<mxfile host="Electron" modified="2023-12-19T08:40:42.506Z" agent="Mozilla/5.0 (Windows NT 10.0; Win64; x64) AppleWebKit/537.36 (KHTML, like Gecko) draw.io/21.2.8 Chrome/112.0.5615.165 Electron/24.2.0 Safari/537.36" etag="k7QTUWsBK9zCL28guUbG" version="21.2.8" type="device">
  <diagram name="Page-1" id="wdU2vlvLfLhHSGHgqa0V">
    <mxGraphModel dx="5186" dy="918" grid="1" gridSize="10" guides="1" tooltips="1" connect="1" arrows="1" fold="1" page="1" pageScale="1" pageWidth="3300" pageHeight="4681" background="#999999" math="0" shadow="0">
      <root>
        <mxCell id="0" />
        <mxCell id="1" parent="0" />
        <mxCell id="694kBXsGKUZABNbLc-Xw-11" value="" style="rounded=0;whiteSpace=wrap;html=1;fillColor=#1e1e1e;" parent="1" vertex="1">
          <mxGeometry x="1360" y="1410" width="1140" height="470" as="geometry" />
        </mxCell>
        <mxCell id="694kBXsGKUZABNbLc-Xw-10" value="" style="rounded=0;whiteSpace=wrap;html=1;fillColor=#1e1e1e;" parent="1" vertex="1">
          <mxGeometry x="1360" y="1120" width="1140" height="260" as="geometry" />
        </mxCell>
        <mxCell id="694kBXsGKUZABNbLc-Xw-7" value="" style="rounded=0;whiteSpace=wrap;html=1;fillColor=#1e1e1e;" parent="1" vertex="1">
          <mxGeometry x="1510" y="420" width="780" height="160" as="geometry" />
        </mxCell>
        <mxCell id="694kBXsGKUZABNbLc-Xw-6" value="&lt;div style=&quot;color: rgb(212, 212, 212); background-color: rgb(30, 30, 30); font-family: Consolas, &amp;quot;Courier New&amp;quot;, monospace; font-weight: normal; font-size: 24px; line-height: 32px;&quot;&gt;&lt;div&gt;&lt;span style=&quot;color: #569cd6;&quot;&gt;find_package&lt;/span&gt;&lt;span style=&quot;color: #d4d4d4;&quot;&gt;(Catch2 CONFIG REQUIRED)&lt;/span&gt;&lt;/div&gt;&lt;div&gt;&lt;span style=&quot;color: #569cd6;&quot;&gt;find_package&lt;/span&gt;&lt;span style=&quot;color: #d4d4d4;&quot;&gt;(fmt CONFIG REQUIRED)&lt;/span&gt;&lt;/div&gt;&lt;div&gt;&lt;span style=&quot;color: #569cd6;&quot;&gt;find_package&lt;/span&gt;&lt;span style=&quot;color: #d4d4d4;&quot;&gt;(SFML COMPONENTS graphics CONFIG REQUIRED)&lt;/span&gt;&lt;/div&gt;&lt;/div&gt;" style="text;whiteSpace=wrap;html=1;" parent="1" vertex="1">
          <mxGeometry x="1540" y="440" width="720" height="110" as="geometry" />
        </mxCell>
        <mxCell id="IgzzJq8hHqzZI9EDabm_-2" value="" style="rounded=0;whiteSpace=wrap;html=1;fillColor=#1e1e1e;" parent="1" vertex="1">
          <mxGeometry x="-1490" y="330" width="1100" height="260" as="geometry" />
        </mxCell>
        <mxCell id="08-NsosBbDU-mmR43x8U-31" value="&lt;span style=&quot;font-size: 70px;&quot;&gt;Dependencies: conan&lt;/span&gt;" style="text;html=1;strokeColor=none;fillColor=none;align=center;verticalAlign=middle;whiteSpace=wrap;rounded=0;" parent="1" vertex="1">
          <mxGeometry x="-3150" y="150" width="800" height="382.5" as="geometry" />
        </mxCell>
        <mxCell id="G5lKV5aw3DPKW_N5aaKm-2" value="&lt;span style=&quot;font-size: 33px;&quot;&gt;Find the packages&lt;/span&gt;" style="rounded=0;whiteSpace=wrap;html=1;fillColor=#dae8fc;strokeColor=#6c8ebf;" parent="1" vertex="1">
          <mxGeometry x="1600" y="310" width="510" height="60" as="geometry" />
        </mxCell>
        <mxCell id="694kBXsGKUZABNbLc-Xw-1" value="&lt;font style=&quot;font-size: 30px;&quot;&gt;Install conan&lt;/font&gt;" style="rounded=0;whiteSpace=wrap;html=1;fillColor=#dae8fc;strokeColor=#6c8ebf;" parent="1" vertex="1">
          <mxGeometry x="-2170" y="250" width="400" height="60" as="geometry" />
        </mxCell>
        <mxCell id="694kBXsGKUZABNbLc-Xw-2" value="&lt;font style=&quot;font-size: 30px;&quot;&gt;Tell CMake to use conan&lt;/font&gt;" style="rounded=0;whiteSpace=wrap;html=1;fillColor=#dae8fc;strokeColor=#6c8ebf;" parent="1" vertex="1">
          <mxGeometry x="-1290" y="240" width="400" height="60" as="geometry" />
        </mxCell>
        <mxCell id="694kBXsGKUZABNbLc-Xw-4" value="" style="rounded=0;whiteSpace=wrap;html=1;fillColor=#1e1e1e;" parent="1" vertex="1">
          <mxGeometry x="-1490" y="640" width="1100" height="260" as="geometry" />
        </mxCell>
        <mxCell id="694kBXsGKUZABNbLc-Xw-8" value="&lt;div style=&quot;color: rgb(212, 212, 212); background-color: rgb(30, 30, 30); font-family: Consolas, &amp;quot;Courier New&amp;quot;, monospace; font-weight: normal; font-size: 24px; line-height: 32px;&quot;&gt;&lt;div&gt;&lt;span style=&quot;color: #569cd6;&quot;&gt;add_executable&lt;/span&gt;&lt;span style=&quot;color: #d4d4d4;&quot;&gt;(gui gui.cpp)&lt;/span&gt;&lt;/div&gt;&lt;div&gt;&lt;span style=&quot;color: #569cd6;&quot;&gt;target_link_libraries&lt;/span&gt;&lt;span style=&quot;color: #d4d4d4;&quot;&gt;(gui PRIVATE sfml-graphics)&lt;/span&gt;&lt;/div&gt;&lt;br&gt;&lt;div&gt;&lt;span style=&quot;color: #569cd6;&quot;&gt;add_executable&lt;/span&gt;&lt;span style=&quot;color: #d4d4d4;&quot;&gt;(use_fmt use_fmt.cpp)&lt;/span&gt;&lt;/div&gt;&lt;div&gt;&lt;span style=&quot;color: #569cd6;&quot;&gt;target_link_libraries&lt;/span&gt;&lt;span style=&quot;color: #d4d4d4;&quot;&gt;(use_fmt PRIVATE fmt::fmt)&lt;/span&gt;&lt;/div&gt;&lt;/div&gt;" style="text;whiteSpace=wrap;html=1;" parent="1" vertex="1">
          <mxGeometry x="1370" y="1160" width="640" height="180" as="geometry" />
        </mxCell>
        <mxCell id="694kBXsGKUZABNbLc-Xw-9" value="&lt;div style=&quot;color: rgb(212, 212, 212); background-color: rgb(30, 30, 30); font-family: Consolas, &amp;quot;Courier New&amp;quot;, monospace; font-weight: normal; font-size: 24px; line-height: 32px;&quot;&gt;&lt;div&gt;&lt;span style=&quot;color: #569cd6;&quot;&gt;add_executable&lt;/span&gt;&lt;span style=&quot;color: #d4d4d4;&quot;&gt;(&lt;/span&gt;&lt;/div&gt;&lt;div&gt;&lt;span style=&quot;color: #d4d4d4;&quot;&gt;&amp;nbsp; unit_tests&lt;/span&gt;&lt;/div&gt;&lt;div&gt;&lt;span style=&quot;color: #d4d4d4;&quot;&gt;&amp;nbsp; test_calc.cpp&lt;/span&gt;&lt;/div&gt;&lt;div&gt;&lt;span style=&quot;color: #d4d4d4;&quot;&gt;&amp;nbsp; test_run_app.cpp&lt;/span&gt;&lt;/div&gt;&lt;div&gt;&lt;span style=&quot;color: #d4d4d4;&quot;&gt;)&lt;/span&gt;&lt;/div&gt;&lt;div&gt;&lt;span style=&quot;color: #569cd6;&quot;&gt;target_link_libraries&lt;/span&gt;&lt;span style=&quot;color: #d4d4d4;&quot;&gt;(&lt;/span&gt;&lt;/div&gt;&lt;div&gt;&lt;span style=&quot;color: #d4d4d4;&quot;&gt;&amp;nbsp; unit_tests PRIVATE run_app Catch2::Catch2WithMain)&lt;/span&gt;&lt;/div&gt;&lt;br&gt;&lt;div&gt;&lt;span style=&quot;color: #6a9955;&quot;&gt;#We don&#39;t need this with vcpkg&lt;/span&gt;&lt;/div&gt;&lt;div&gt;&lt;span style=&quot;color: #6a9955;&quot;&gt;#list(APPEND CMAKE_MODULE_PATH ${CMAKE_SOURCE_DIR}/build/_deps/catch2-src/extras)&lt;/span&gt;&lt;/div&gt;&lt;br&gt;&lt;div&gt;&lt;span style=&quot;color: #569cd6;&quot;&gt;include&lt;/span&gt;&lt;span style=&quot;color: #d4d4d4;&quot;&gt;(Catch)&lt;/span&gt;&lt;/div&gt;&lt;div&gt;&lt;span style=&quot;color: #d4d4d4;&quot;&gt;catch_discover_tests(unit_tests)&lt;/span&gt;&lt;/div&gt;&lt;/div&gt;" style="text;whiteSpace=wrap;html=1;" parent="1" vertex="1">
          <mxGeometry x="1370" y="1420" width="1080" height="430" as="geometry" />
        </mxCell>
        <mxCell id="iOABAnh25_ZmhCILAKLg-2" value="&lt;font style=&quot;font-size: 30px;&quot;&gt;Tell conan about your dependencies throug a conanfile.py file&lt;/font&gt;" style="rounded=0;whiteSpace=wrap;html=1;fillColor=#dae8fc;strokeColor=#6c8ebf;" parent="1" vertex="1">
          <mxGeometry x="190" y="310" width="539" height="80" as="geometry" />
        </mxCell>
        <mxCell id="iOABAnh25_ZmhCILAKLg-3" value="&lt;span style=&quot;font-size: 33px;&quot;&gt;Link against the packages&lt;/span&gt;" style="rounded=0;whiteSpace=wrap;html=1;fillColor=#dae8fc;strokeColor=#6c8ebf;" parent="1" vertex="1">
          <mxGeometry x="1655" y="1010" width="510" height="60" as="geometry" />
        </mxCell>
        <mxCell id="dh3TJx1O1v9X3l1imXYK-1" value="&lt;div style=&quot;color: rgb(212, 212, 212); background-color: rgb(30, 30, 30); font-family: Consolas, &amp;quot;Courier New&amp;quot;, monospace; font-weight: normal; font-size: 24px; line-height: 32px;&quot;&gt;&lt;div&gt;&lt;span style=&quot;color: #569cd6;&quot;&gt;cmake_minimum_required&lt;/span&gt;&lt;span style=&quot;color: #d4d4d4;&quot;&gt;(VERSION 3.20)&lt;/span&gt;&lt;/div&gt;&lt;br&gt;&lt;div&gt;&lt;span style=&quot;color: #569cd6;&quot;&gt;set&lt;/span&gt;&lt;span style=&quot;color: #d4d4d4;&quot;&gt;(CMAKE_TOOLCHAIN_FILE &lt;/span&gt;&lt;span style=&quot;color: #ce9178;&quot;&gt;&quot;${CMAKE_BINARY_DIR}/conan_toolchain.cmake&quot;&lt;/span&gt;&lt;span style=&quot;color: #d4d4d4;&quot;&gt;)&lt;/span&gt;&lt;/div&gt;&lt;br&gt;&lt;div&gt;&lt;span style=&quot;color: #569cd6;&quot;&gt;project&lt;/span&gt;&lt;span style=&quot;color: #d4d4d4;&quot;&gt;(Dependencies)&lt;/span&gt;&lt;/div&gt;&lt;/div&gt;" style="text;whiteSpace=wrap;html=1;" parent="1" vertex="1">
          <mxGeometry x="-1470" y="350" width="1010" height="220" as="geometry" />
        </mxCell>
        <mxCell id="dh3TJx1O1v9X3l1imXYK-2" value="&lt;div style=&quot;color: rgb(212, 212, 212); background-color: rgb(30, 30, 30); font-family: Consolas, &amp;quot;Courier New&amp;quot;, monospace; font-weight: normal; font-size: 24px; line-height: 32px;&quot;&gt;&lt;div&gt;&lt;span style=&quot;color: #6a9955;&quot;&gt;#Handle dependencies&lt;/span&gt;&lt;/div&gt;&lt;div&gt;&lt;span style=&quot;color: #569cd6;&quot;&gt;option&lt;/span&gt;&lt;span style=&quot;color: #d4d4d4;&quot;&gt;(BUILD_SHARED_LIBS &lt;/span&gt;&lt;span style=&quot;color: #ce9178;&quot;&gt;&quot;Build shared libraries&quot;&lt;/span&gt;&lt;span style=&quot;color: #d4d4d4;&quot;&gt; &lt;/span&gt;&lt;span style=&quot;color: #569cd6;&quot;&gt;OFF&lt;/span&gt;&lt;span style=&quot;color: #d4d4d4;&quot;&gt;)&lt;/span&gt;&lt;/div&gt;&lt;br&gt;&lt;div&gt;&lt;span style=&quot;color: #6a9955;&quot;&gt;#include(${CMAKE_BINARY_DIR}/conan_toolchain.cmake)&lt;/span&gt;&lt;/div&gt;&lt;/div&gt;" style="text;whiteSpace=wrap;html=1;" parent="1" vertex="1">
          <mxGeometry x="-1460" y="680" width="960" height="180" as="geometry" />
        </mxCell>
        <mxCell id="dh3TJx1O1v9X3l1imXYK-3" value="" style="shape=image;verticalLabelPosition=bottom;labelBackgroundColor=default;verticalAlign=top;aspect=fixed;imageAspect=0;image=data:image/png,iVBORw0KGgoAAAANSUhEUgAABKoAAAHdCAYAAAA9/5HNAAAAAXNSR0IArs4c6QAAAARnQU1BAACxjwv8YQUAAAAJcEhZcwAADsMAAA7DAcdvqGQAAP+lSURBVHhe7N0JfE1n+gfwn2hiuZYklihCSJigJaShxBLtDGprUUOorU2YsbTaaYMOVWVqqUFtU6RjK0kXtLaSfy2tpdVUK2rJIISgYkuEi9yU/s97zntu7r25N7lZJfy+/Zw65z37e869yXnyvO8pFRgY+Eda2k0QERWmsmXLyDF62Ny9m87rS3ki7p309Ltyih41ZcqUlWNEREREmVzkv0RERERERERERA8UA1VERERERERERFQsMFBFRERERERERETFAgNVRERERERERERULDBQRURERERERERExQIDVURUspSvhcfqBqNMNS+4lJJlVHKVb4qyTw2ER4tGssCWKx5rMQSVnwqGW/lysozIlitcqrRCxaAXUDmoI8oaystyIiIiIippSgUGBv6RlnZTThIRFY6yZcvIsTwq3wqVe/RAlerlMiPsf6Qh5ZuPcC0+WRbQg3D3bnqer2+55/+NWnXEWAZu7vsIyT8nquUaEaQag9rBtfCYmDz3NU599Y06hx4O4t5JT78rp/KubLd3UPX3DFQO8kVZtSQDv332d1w8oU5QMVWmjHa1iIiIiCwxo4qIir9SjVC5z19RTQap7isPpPf/EOXKdOkMdZHCFYL+f/87+neUk1QIXFEx+G+o1sRTTis/oJr8LTNIVYyEhP4dr/QMkFP51KwnXvn7K+jZTE5TnrgaqqJ8zcooLafVIKdBjpY4s7Dj7FmcVYYdH2jjOz6Qsz7YgbM7Z8mJB8Ubzz/v+Muw4/PPK0sQERER5V0hZVR1wZuLe6C+nAJOY+PIo3hicQdcWzABy49rpQ2HTMfY6t9ipPILmNXyN2Ixb8IKiD+EdnlrOh7fnLmOpiGGTX8NQZXlJNIQa7HdLm8tQs962rj1PHvH9W+cFsfRqpIsU0q/GoXZ2+UEERWI/GRUuQS8AZ92tdQg1d0jK3F+12Hl28sLZep7Ij1BfLjLwaWi8hm+lawFsKhIFUxGlfTHHaTEzEEK+qFWJz+UsWze6VRGlQgqNoKHnIKypeP/icZuBKDnK61RCxfw/ccbcUjOzaStZ7jwPT7emHWuJRGo8jXmvJyVjv3x9xqX8J+o3bIgF0Qwq015JKjn4RynjzEP2y5I+c2oKv1EOGo1Nv8yoKiMig0fV7Oqrmx5D1cfa4FS52JgTL6tzS4BZu08i+cuT8OT/ZfJkkzZzSsyQ1fgp0mBSPr4VfR6f5cs1HR8ewPmv+KNg1OfEovliBlVREREZE/hZVSJYNPIURipDv/GNuW/2V9dRdDgoWgo5jcaimH+/8O8D7api1suPy/+Txj7VhetPAstSNUw/kO5bWVY8D80HDMdw8xdnIjglJxnuU8hy3FpRHBK21Ysqjz/DzjaOxEVNVeUq6cFqZBxCld3H1ZLH2v3N1Qqq0ewg1Fl6N9QsZqcpBJJz5Lz6PRP+OhBKqXsvjrXCSIY9HflB0H8f/Cf/8hh/23UMGc/mZT/asHfTjJIQE9fi+AWlQhlX0Cdnq1QraG/xaAFqTRNUbVzd/i/8ibcS0w8ZBYCfdNw5Bt7gahweFdzNK8IrRiKtz4+Bb9X5iPq1SayEGjyahTmv+KHUx+/5VSQioiIiMiRom36t/3f2Hg9CD07A126B+Habi1rytaJH/+HG3I8i849EIRYLF9psebxFZggAlLd7YSXth/F6cpVLLKocnB8P07cqIrHHfXrS0RFrC4e0xMm7qbh9z+Ax56OQO0mlVCx3TRUaT0Qtcc8h8qohGr9/o1qmc9NdmhN+P6uDv0RIgIboSHaLJFZ8kpPZDboEhk4epMssZ6j5lliOX2bepMwuXxH0axLzrPcttrcS+5fn68fxyMrEVdiTiFdDVYpP5zUIJXIrtoN53J+lTr3N+DC/v8g2jLJI24joi2yiq5cSYFHDdu6DoF/LSMuXDDJaY3ISjJfH6t7w4K8huZmoeq11ddTrrEsdki/F+Sk5T7Ve0lsv00tuMEDjfQye8uZafdjI3fArVZreQzafW99jMr9Ocz+tkuMen6orP8Wcz8DNy/E48oJOfzyJS4Z66CimOdSB5UaqEtlS2QrieZ2Yvg1OlwrDIvCr7Ls7NlfERWmFYugUdSvYlr8K+fbNMmz3J7lNsOjf1XHxb/avB1Q1xTN+s72g5/yXdZmklzeqqlfA1SvdBlJkXJSPYbM7ZubB5pp83d8YLHcr1FKqUJsVx+X1ON1slnhrvd74dWPT+GJ16LVYJUIUkW/9gRO2cmyIiIiIsqtwgtUVQ7C2MWLsFgM0zMzmrZtFhlLi9ATmxw2rxNBLFw+LaesNaxRFTfi92cNcJ27hhueNTIzp3Sdm6D+maPmzClHx2XWqI1S9j/ss2pqSPQwaY0x85ZjxbzRypgum7KFr+NZWfJg3MF96/gBfv9hFs4fTcPNPRNx7YdNuLhCBDPScG3rHFxz2HmyeIC3zLa5hBr++c2h0ZqTVbvyvdzmcVyRc6A8/teqDxyUmT3Hb9dCa6tglAcaiaZg6vzvcaF8o5IXKChgv5/4Dy7sSsTv6lQGbuwS1/OOOpWjjjXgYbqCc3Fy2pGz8Upd+1oFHdVsqtRLOCenNSGogeOZ1we1EGh7fUTAxyo4FoL+barhijKtrhev/EhxFOCyI6DnK2hk3ud/tGZ7u6Lxn/0XYFKbMGpldpczO4SNHyv3WypguiDuS9Gkbzei41PgUV87lpDGtYALB7FxedZtlyjpt3FPHbmNi198iOTL6oSmelv4v9jC3LH6fe2mckgEafrhU9StW1cZPsXl6g20INWkJ3Bkqiiri2nfA21e04M7ImgEPPHaq8CH2jqnfJ8zB7KstzcN+9MyM6EaiBWbvIpXMV+d/2mCH54TQam3nkXdz04BCdp6onnfrEA/pF0+qa6HMG9UT7sMbUoEnybiiaPTtH1M3Y/qXawDT5o0pVw/RuU40Ab9RUDrf5eVORaUc33O9xQ+fSZCFuRMBKv6f3hEqYOt2PqaUk8f9meQioiIiApE0TT9k/1NZcsigCSCWBMsM6ZyrRKCxshgVNOjGKk3LxQcHFf95+Xyg4HlzhwvERWRC0i/JIMVFf1QsYarOvr7gY9w7ZQy/kca7t/8GanffYub5y+IxAr7Ovqr/RPFm5+jtIf3fGlWB9WUbR40P+DvxkbzuAkXfsrsC2n3sQswudcwZ86ofSeZ+ys6hI2nU+BWrY7TQY2H1f2jH+Hc8jk4vfx9XDl6XZY66Xaanb6nbB3CuStArcb6lQhAnWrKXXbMtocm5f6wuD7nrthES1EH/dvUgjH+Y2yUwTEt4JVgnsauS0hxKw93OZmTQzeNQPlKOd4Dzi5nZVe0Giz179kTvuUt79kS7OJF3FLbhf6GW4Ze8Gtu0QSwVlW4mrOtlPln5Lg9WYI0EXhWGZ81oA3w/XyEygymZd8cQVql6lCTs0TQSPnnyIdPmucDMtvpgx3oV20/ppm3Z5kJJZrvKf8cnW/Vz9TlJG083Lt6ZmBKXTYzwBX+5ydQ6UoS1KkP+qPNlU/N27CaZyb2WwmXt+nHuAxJeiQ9MgmX9XNRiHO9/NmzypkTERERPXhF2/QPDTFscBCufTUKG9EDb3aWxYJlAMkysGTjxKWrqFzdTkO+OlVQ+folGWDS+6jahNP1Olj0XeWY1kfVh4iF1jSR6OH1PRaMHYahYxcqY7psykbPxQ5Z8qCYfvkZRrWT9Eqo8uLb8Or+d1TrEoY64W+jshq4uoD0uN34PV0skw2nAhm54Fkebs5uMy4NRjlq1/XbsA2FPJoycP/WBWWwyvdwjpPBm0MbE5CiBw1FAPO2RXDJgshc0pvXta7lJks1brVqwSP1uHUzQ8G9kXkd0V+WBwyo5Owb/XZF4/sr1dBarJtdJpazy9kQwVJDrWq4YhFALdHufokzH6/Bqe07kdkd+23c0Jv/yeHcxsVIzaa/djXIk3DQJkjjoK8omdGkrfN1ZpDKIttJDTYd3ZkZNLLMhAp7Bk9UOoWvzUEqLRh1+X/a+DNNKpmDVrZN/UQm1qmD2lGKTCv49jM3+5tY/WvUtc2GUve7H9FvyWk9SKY6ictp1eEtMsBEoK6a5XLOER2ni+Z+Rz7siq5qZlU0Nrzt+G2ARERERM4q2kCV6F/qutbkT2sCmIdOy7dvQqxnD0wfYtFor9FQTH++KmI32wa4tmG26GjdsjP1bJ3A8gmbAHamTlS8pGxSHq6TtSZhpSqhouibpo4nHlPGPTp0wWPqQk6wCWQEVCyA99c7m9nSrBIMpttIlZNZ5CboRVmp2UvVUMepoNBuxF8wwLdnCHrWN9jJptKCVK0NCebmdd/b9F9lunDcbnNNrbmdbPqnDpkZV844tPFjbX8iEJVNv2XOLmdJNPkzphpR6ynng1vFXvIu3Ig9gMxEyvKo3NAXZQ1VURmHce6z2bhy5Kqc51hmFpMly/6gZHBKZi2JoJHVOn+qbjUvM9ikZSuZs53Ecubme4JlMEqMn8JBPWBk09QvM6ClOfWZ1iRRHew02cuSZSWDZNr2RXZVJVT/kzg+EWwKzVzOCdrb/fzU5n6h84/i6PxQtRmg6GCdwSoiIiLKr6Lpo2rxdAzrLIJJwEY9W+r4Ciw/UBU9Hb7dT2fRjE8Z3uwsgkkf4oT/a+ayxWOq4NuRE7DcXr9SYj+WbxG0Pa4s2Vbi7YRAz+lD5TQRPXgZar9UidHrcfnoKdxMuYP0Kxdw7bv/IPHTTbJPoxyogQzLN76JDrQtsmRExpNFoCOgZyBskmgkrbNqtWNquc3MvotC0NM87mbVvKznU7WAK+csAlEe8LVYr7+/B1IuZQ2YPOz+uHsHv8tBTZrL4g7uWyzjmAg+AbXa2HR636wn+tv2LaU4dFa0/2uEWrDfr5W7wQ0mox5WFM0DbW+GVGz8+DiMtVqbg1XaNgMddLqfO7lvBmhxX9rTsT8alb+A+Kh4tb8te28+LNGMty2CVRm4e/kGbhtzDlAJy5Iuo1Lr/lqH5sr/d6gdiouMI9l3lBAWhVdbA/vXioCQdZM8wbIvqZOX0+AXKDslF80AfTMDYVmyrT4IhJ8528oyMKWwCH5ZB7TkPrL0SaV1mq532m4dTFPOa5JoyhhtzhwT26je5Vf0g0VmmDOGrsAH6tv9XlWDVDoRrBIdrPu98oF4MSARERFRnpUKDAz8Iy3NuXcqERHlVdmyZeTYAyQ6v1bfciak4Ljo7Fp0aC77IlKzaGR0SmTMXKmmPGH+JDJixFvTfHF7vxjXOlAvf9qiA221iZcmJV6Uy+UvGFGrlpyTety8H+04yuPKBYMyX9/f9yWvM2vp7t304nF9BfGWPMtO8k0X8P3HoqmbuG6B8npqs8Sb82pcynxLoLj+gTgor4PldTUhJRUwGLV5Yj1fo7xe+j2lX1/b/TsqV6jX/Gwd9V5I+E80Ui3uP/X+VDtC14h9ijf5iXUOKkeZdTmb+9J8ryvz99+Gr9rJuzx3dV7mtOW2i/oeFPdOeno27fJyw+CP8g384ep6GxmnD+D2NYfvD85C7fxc+bgLIlPpWZF1pHam3gaV1NI07J+q9/U0CzvOKndKXb1PJ61j8+rb5HrqfPH2PkXCp/gU/RB4UJsn9qOPC+LNf+Zme+JNfIEHM7Oj9P2LztWfOanuo02lU/hU3a+2zzbawSmHtx/TntyJZ2QH60/2h/V8hfm8dGJ/f4XcXm544/nn/fDVV7btXjUdn38ep776CklyOjtlymjd3RMRERFZYqCKiIpEsQlkWLAOTBQky8CWLLIkA1UiOKEHIkqyYhWoohKlQANVJZwIYj13WQSZctMIzxHbYFpWIkgm3jxYMPvLGwaqiIiIyJ4i7kydiKiYaNYTgaI13tmSmcVERA+TrM0J88W2GaGtD3ZgYpMjmP8Ag1REREREjjBQRUSPCJHlpL+NTRna1IIx3kHGExFRkVqG0Cf1poX5l6UjdZ1oTijeFCia/D2Zuw7UiYiIiIoKm/4RUZFg07CHF5v+UV6x6d+jjU3/iIiIyB5mVBERERERERERUbHAQBURERERERERERULDFQREREREREREVGxwEAVEREREREREREVCwxUERERERERERFRscBAFRERERERERERFQsMVBERERERERERUbHAQBURERERERERERULpQIDA/9IS7spJ4mICkd6+l05RkRERERERGQfM6qIiIiIiIiIiKhYYKCKiIiIiIiIiIiKBQaqiIiIiIiIiIioWGAfVfSI6oFxS3qjURk5aSv1MFa/Nxc7rsvpXOmBict6w89VTuru38Dxzxdi5tenZMGjhX1UPboG/aUM/vE08OPqdAxPlIVU4rlWGICBz4QisKob7lyNxYad0/H9LaOcS0RERESUNwxU0SOqH6asaITjQ99FtCzRiPKmuHHIgKY+Z/Hft+fiu9tyltPsb9vvuQiM7tcI7nI6i4xTWBf+L2ySk9kT++iCunIqy7rPDMe4egnYGLUDx3N9/LbKo/3Y9/FyQGU5nVXqr5/g3X/vQKqctqdwA1WucKnSAob6j8MFN5B+7ADuGvN94lQA1CCV/z18uRd4tntpnPk0HYNPyJlUMrkEoHXL19HL3xNp8VFYdvAY6gdaTP+4Fsn35bJERERERLnEQBU9orILVInyubjyjykY5J2XYJWjbWcnL+sofHtj4j96wK/8WWyzWLfq0/3wSq9n0ajiWWz697+wLkHOyJOcjs25Yy/MQFXZbu+g6u8ZqBzki7JqSQZ+++zvuFgiAyLd8foHHVBTGbu451ugXQdgz1uYu1GZM/YDtLoRhUnLf9YWLUqN++KtHuXx7Ycr8aOTl1IPUq1e/jv+fQsY1bMswg0mBEQxiuE87X7Q74GC44kO4SPQInmtst2zsiwnBnjVnYDw4CCUu7wJK79diBMZcpbg2hHdO4zBM9Vv4vC+uVhz9pDySXyAWryCqaE+SIyahI8fwEeGiIiIiPKmcAJV7SIQOTJA+ZU2U+LWAZiA9xHV1UeWaNTy1WIsGOOWjkJARbXYonwgpkd1g3mtm4ewcPgs7BPjVvtJxJbQt/GJOk6UE0fBFctyP/SZ9Dp6VDmOJWMX4nu5RM7sb9v9mdfx7ktN4e6wZzjrYFOOyrfDG+8PwuPxx5HxdGUczrJueQQO+yf+1uwqVucpM0xX/ANVFf86H48bbqNsrarQW1xe2RKGc7/IiRKkxbCpCK18AG/N2yxLMj3QQBXKouWQCPTyPosNs3MOVtkGqdTpJ+7j02UZmK5MO68FXnk3FP6WP1CM8Yh692MUVi3kr54zA41mF761ez0fuLrKsYa1AmIjnQpWudabh5ntPfDT1rFYeyVFlmZVrto7+EfXINzeNwpzTp2TpZSVdm9X+rmgg5BEREREJZvDR+bynpWVx9zslIe7Z/ZLGA8uQmjoAHXQgk4aEYQSZVuU34t9ur6Pl5Syl2aIIJUINlmXo10tpMrlQ7cmKk+kARj2ZrAyYyCmiyDV2S3KvEU4dNMH3ZZGQMwhyp+66LJiOVas+Cd6+Cr3uHvVzCZ2TtO3kTnMe6kuzn0yFkOHDrMzbIOzOQ26pkP7oFHaDsz96KKDrIXbOLh8EXakNULvoU1lmbNEc7958thFE0M75zO2XQ7fEYWv9BPhqPPXN+GBc7hrvIrUE78hM35SB+WDXoDB60EfZe7dvXFRjhUnd/HjylnYkFQXPd4IRUstdc0BF/R+2gVn9loEqQIcBKlcSmHpqHI4NOYxhLvJsizuIj7qLbz1ljZ8m+qPXsNayHnF0UV8K4/1rbeiEO/eAa/3lLOKk7ObMTfyABAUhtGdc/6Wq+dVB66laqD1X+ZhaL0glJPlmTxQu940/OMvwfAq5YYqVX1lORERERGR8xxkVAVizJwRqHNiNSZ/tEd53LWlPMSOeR+D6h7DR28uxUFZaiYznXBwEcJmq7lPmkFaRpWeLRX85jKMDgQOLd4N95Hd4COCTuPXZFnOzHK7B4Kt9pG5rXDM3COXJ3LIuSwg55ezVBTrNMKI2a/D/f+GY+Z2WeRI5wgs+0sq5iif1eOyKGc5HY/lfOeOvcAzqsq+gHpvdIeng3D7lS1fAt1eQLX755Aw5z2kZrt766ydu8f0bBqb7BiLzBg98+lbdECHWqJEBFMymxip8xvr0RwRuJgLsWZ264lMHq1MEOucRIMPWiHNYr5lpo/l8pnHbEkcv7L+nkT4tPPXmkXq2Uhqs6hKOCCPS8gumytTWbQc8Dp6+CRi05woh5lV/j6PYdmg0rh6CqhXR7lIpgysXn4Px+R8Xa+BZdHocjq2pruhn91mgeLa9AI2WjTf6vk6Pqh/0nycWest85y0OrB/Da3nieuwQdm2ZfaWzXXTr6fFNrRrEo/rjf1RU63bZHT4oAFO2tRrL2xw4rrZuw9ratdQvQeyuZ7qGgr1usp5WerCgbpdMHpYMPB9JBZudxwyb/j0egzBEsxMaIAhHXugIRKwfdcMbL9yDeWqDTOX7dyzFP+r+w4GYgH++cMuuXYm7T5LRLy7v3Ku+jHaXguL6215Tsr5fnvWB61kfdrWrbpsT2BDlntc1t2x6/BvXNNc705dV/M8ZB6j1X0kz8nhdr5FYt0O8rraO1+FvI5wsB0iIiKiR4mDR7yDWDBxNX7zH4Qpf7PNmtCCVP3rHsPqd+wEqSwYAkchKmqtMizDuHay0EK9quK3tiu4gFqopowZr1q/Dqqal3V+1EvdRDM/I04eyAx+GapqjQK1bREVtE8xOVcBp7zK7X6aombVizibU5BKUB48L1atiWZy8qFRzw+V9W+w+xm4eSEeV07I4ZcvcclYB2pLYpc6qNRAXcoBLTjgczZKZsAoD5Xm8g7wVB5ozZk86ICplpk8tTqgwWltXtQxwL/nK8paQgs0Vx7Eo/T1LtREh7Hd1TkqB+ttniem76oP0W/lEGAQD8YdlCPSji1KeRAOdZC1Uxb+ysY36MeS6o9QcSw//4JEY000MK+jHHNdIP67nB6M7+LHtXOxKdFHzaxylNcUn/g7Jnx6D5Vq3MeXG5TrU8EV/cLLYIp5KIvpr5VTg1Tv73dBV+UGjT/iTN9VynVpURMXT2vHqdaDu/KQL8/vrT1Ah3czr4Pja6jNE30/afNEYORnfPyuuF5akMh8DXq+jtC6FtfT5j4o27gSTop5dpsjdkeHxkBinDbH8XVzdB/acnA9Vd3xutonkzbPui6ycXYbFi5Xfq62DsPoP1eXhY6YkHZlIRZ81h8zY68j4C/LMHPQevzrL0G4c2gGIj4biQ2/HcLvcmmHaik/uzeK4xR1bHMtohLhE/q6cjaCzTltBFqZA8C5pdRd5ZPqdtTAlrPXVbkWF5XP7AdqADJz2vx5y3E7reS5intL/y7YjLki284IXBTnLe4dm+0wSEVERESPKodN/3B7D+a8bRusKo/2f3tXDVJFv7M0xz5vMpv+WWc5+XQVwau16FbXiEOLnelXSvRfJZYXzQbltvbMwvKDym94dbvJbWlLEtEjIv027qkjt3Hxiw+RfFmd0FRvC/8XW8iskgzcz+6puUVz+CAeG8xZLZvxsfoQ2wH+VuXKnO/ile+c5pkP/he+Nfct83NcIu4aKskMiZ/x8bzMoMXm0zZN+Ryu5ywt+JEZVPoZv5y9C88q9kISdxG/0eJYlHO4W6uBsgWbddR6SMQvmaebMxeHbfVUe0/8jmfnZuBd0dwvLQMLPriLlhbD3qt/AI+VxptDH8OFL++i/6/aelmVhX/oB/jgAzGI7Cq9Tx9ZDxbnh43fKlfNB83FaWV7DX9Gcioc1JklGRj72fp6lq2cecXuHvvWJqhYEx3UYxWDCG7o2UHZXDdH92EWjq6nsolhrVDzwoHMTKSNJ3Exl/eWaxk5kqMUnD8zEdOiNyHZ9Rw2Rw9B5IlduCPn5sjyOOV1+lbvp0kNonrCS1SL7Tkp12HDsbxmZyp1Z6773FzXzTipBi+tp7V7x5ntbDAfv/pd4O6V+R1i6XxaHr4LiIiIiB4+jgNVggxWnWvYH1P+9iyeFUEqv1NOBamyo/dRZQ5g7bmAK8o/enaU7kqyyJzSO1kXQS3rpoD7ZofL7Wj9WqnZWRYBMaL8E83alPteThW8vG7/MC5erYm6neVkdjrXRc2rFxEnJ3NHHJ9131QrCrU+cuHiRdxSE3B+wy1DL/g190e1hnIQnaqbs62U+WfkuD21K6FsarL5IdOKbfnPybju6EFSzJOjKtE8TQ9WtMvm0dN2PadZBm8+UJsLWT4cO2SxPxEk0wNvLZop379nf7FfD1a0pn+9/C5j0+yVTizvyB8Y/Z+7OF7JBVc2ZhekEkRTMD0jRTnv9noGkXAdydYXCcmpZVGptpzM5hpunqdlNIn6s8qUs6Nmu8y6Vq+no2CDSjTvEscrMmZqopXVth1ct+zuw+zY3j9q5o++fdG0TAv4ZEs0/QvrANefIzF3i2XE1wn3TchQ/kN+X+Ro8Eeo+bhF88fMa1iYfbbl7ro65vR2RDBKjmbx88eYpPwOowU59YwyIiIiokdP9oEq4fYeLJgYjXMNXyqQIJV9a3BUBJrqNtE6Vm8iAlaJOCqCUoO6qW8CNGdS2dMuAiF1RQbXFr71jx4Rx/H96dvwa/cS/GSJfX4Y1M4Pqad+yEX/VJZEk0Tbjt/1Jop6B+tdUPnQDujJEEXm7pc48/EanNq+0+LB7zZu6M3/5HBu4+Ic+qdSOHqotC1v4QVPYxpyfGwWQaoWaRbN0QrjQVsPhlgMzjQVsjwH5cH4QKrIPtKa/enN0xzLDFJtmPVxjm/+y9H9PzB8mQlpIeXVztT/UUGWZ2PzPNHsqhVeMV8Y20BMC3i530XaeTmZ7TXUmvpl33RSyAyUmQe7zfxsKdvfGA807mARdMjmuuUlSGJzT2pNFi23r2dzOaAHqWI/curNf4VG9MdkddyZb8KzDcDWrJzXpn+28npdbRXUdhQb52rri4CVM802iYiIiB5COQeqBBGsemMYwt/MXZAqs4+qtYhU39Tn2CfjtyARPuhm0yQw2Ev0XpXZXDBzW1pzQLVMvv3PquN2oofc4RXrcLxCe4zI0o+cTjTVHY72FY5j06rDsqwgncU2GbwaO8/eSxeKQPIu3Ig9IPI5pPKo3NAXZQ1VURmHce6z2bhy5Kqc54DaPMryLXLd8YoYz1KuzGnv71TWUYsqnlaZPN3rWz9o559oemTT75VOdCBtlY1hmYHUAq/0tD6Hzaevw6d9B/ikWjSvsiufQSrlp01191J4zmZYOqosGp29i0/PPoZBPZz5kbQZc/dcl/16iXpQzs/cN5hCbUYmmzA6fQ2zawYomudZ9j+WS2pTNU9zv0QOr5uj+zALx9dTzZBr3MsiiJeDXAapThz/EXf+9AYmPj0AXo4ulUsAWj+9EmF/MuHoqawdqdslzt2yzycLatNYy8Ckcn+3Mnecr8y/dh1lzc1xtfpwLoyVz+tqVlDbscFmgERERPQIc/DWP6KHXXZvqhPzusB+t2ciOJNTp+c9MHFZb/i5ykkzfd38bt+Cb29M/EcP1L15HDu2fopt355FKiqjbocu6N/1WTSqeBab/v0vrEuQyzstu/oRcpqfVYG/9c9Sw9fQ9K9PQqvy27jyy2/K+HYkbMk28mLB+g1conNjvQ8ky3L9TWGC+pYvqzfkiWX1t70pD8wWb2+7eOGisg3tLXXZr6dtN/MtZmKeo7f+We9Dy+pQloPjN52psrxJTDtH0ZG1nsFi1xOhmPBCeeyYnYcgVVkXRP/dDfUfk9OqUnArXwo3j93F+/tL4c2hrg6aAIrztHnrn37uqdq5WL5FL8tb8OT5Zb2GNvVnWS/mt8zpb2jT6j7zzYKZ94j1NRGsr6dGOwbRqfuk5bB/3dTVrY9V24cos3nrX3bXU2TzWTY1zXK9dZ54dvRoND230qkglZlrR3TvMAbPVL+Jw98vxKdnmuPvLwfg6H/fwqG6ExAeHIRylzdh5bcLcSIzgmwl62dAYa5zyfI6Wp6TzVv/rK+jUpfijYgtsnnrn+XbBBXOXldnpp26P8Qx9ZTHJ6b1cxPn+3MlhJqvneV9QURERPRoYaCKHlE9MG5JbzSy6jjYXpAo9wGZ3CmA7ZdvhGdDe6NLoB+q6alVt6/g7JE9iF6xCcfzlOpUHu3Hvo+XAyrL6axSD/0Xb+cik6pQA1WCwR/lG/jD1fU2Mk4fwO1rN+SMR5n9h3NrYhnbwEpRKIWlY8qi0dXfYapf2ol+qsi561k0ynmORtife6AhjLhTAUi76grPsknY+c0/sfl6ilyqcFgHc4mIiIjoYcNAFVG2SkCgqoQo9EAV2ZFzYOOBPvRXKIVVA93gtj+dQSqnFJ9AlcYDDRv/CwMCPHHt0BJEHsvFW//ygYEqIiIiooebc31UERHRw0U0QfrgA4TWTcSGB/XAf+sPDF7CIFXJlYITx0bi3bX9saCIglRERERE9PBjRhURFQlmVBEREREREVFOmFFFRERERERERETFAgNVRERERERERERULDBQRURERERERERExQIDVUREREREREREVCwwUEVERERERERERMUCA1VERERERERERFQsMFBFRERERERERETFAgNVRERERERERERULBROoCrgZbw/czTal5fTThuI6VHLMK6dnMwVse5aTB+kTb00Yy0i3wzWJrIQy76Pl+QUERERERERERE9eIUTqDoUjW3n/TBoWl6CVXm1BhNCB2DCajlJREROMqC0z+vwHrEOgRO34el3Mod6LeQiRNlwaTwTT4p7Z+I61GrsLUuJiqMQRER+ia1bt+LLyAhlyrGwhVvV5ayHBQiT84mIiKhwFFLTv9v4bsHbWH3GD/3fG16EwSoiIsqt0i1mIWBwZ9TyMsCVDcIpDyq0aAaDuHdcDPBu0UUrfMS4tpiJBqM2onGXjrKEiqVnOiKopps66lYzCB2fUUeJiIioGCkVGBj4R1raTTlZ0Mqj/d/eRX+/U4h+Zym+uy2LHRJN8kKQuvUkGnQNgEEU3TyEhcNnYZ8YbxeByEHAcn0awRi3dCiwOhwz98h1F4txrelfyNVFCJutLSmmu9VVR5G4dQvQtQmOhr6NT7QiIipk6el35dijp2LNFmjZpgn8qoio/U0cXb8We69o8x68UNQdPwSPK89txhObcOLLFUi/a5TziJwjMqqa9G6m/Nw2Imn9WFw4liTnPDoqvbQNjesDt36ciSPbdsnSQmBohu7hQ9CnVX14VdYCLrhngvFqEuJiVmFRVCxStNKHVBgWbO0NXzllj/HALPSdsltO2RIZVWMRUtMNpou7MS9sFhwtaeWZKfj8zSDlHk/A+q5jECmLiYiIqOAV8t/Ob+O7j95F9Ckts6q1LM2eAQHtgOWhAxCqDFuuB2D0jIFyXt4Ev7kM3bBF3Z4YjjbpBh85j4ioULhWRJ3mz6LPoBEY0CNIBqmKoZqNUVE8696Ow6noRQxSUZ7cPzYOv07rgh+m9Xkkg1RFxdB0JBasmo6Rnfwzg1RCaTcYvHzRZlAExjJDKAe7MSvsBXTt2hUvOBukIiIioiJVdI08XCx+ocqWEYdW6xlTwCdbDsFYt0k+Oj4fiO6BwKEta+S0ss3xW5Aox4mICkPFgK54rqUfqpYHTFfi8e238Sis3NV8ca+AcuJfkwn31QIiKpZ8wjDjve7wFR/Ye0YkbJmHN4b3VQMuXQePwbRlmxF3/joytKUfASKzSTl3O4PjbCoiIiIqCYqk6d8g/9+w+u25zjf9k833NKJMNtPLU9M/n8z11XUEi23KEiIqXI9c0z+3pujRuxYufLcXP19UvmOrtcWA3k1Qsbg1/WuxCE939wVSY/HL/ElIl8V2yWW1pk0/orT/eNTvGgSPCoDLfRPSTm3Hyc8WISNLxMsDZVq+g3ptfFGpkpv6F5L7JiPSTuzF2Zi5uHNLW0oo02Udmrc0IHlzH1ysPA/+wd4oByN+2zoRZw/VQZWXR8FX9C9zKwHxS0chzWLd/DA07Y7wQX0Q3MALBvl3FVNKEuJ2RmHex7uzNqUyNEP/V0eix1Pe8FAjfYo7KUg6vB0rZ6/CfqvEtBBMiYpAUGWtydDePhPxeu+n4O2h7ciUkoCYZe9g8e6sDbY8nuqNIb06I8jfS9mPPLB7JqQk/YRNH81F9GGbDLjwBdjay1dr+jTbhJHvhqOjsq6htDLvnhFJP63D4tnRiCuIxDn93rGRvLkLzvwsJyxoTeOMOBM5Ecan30Gjxh4odT8FZ1eGIfnGi/B+ORS13JXDvLwPh5dORbq8j/T1zn7cB79lDMHjXXuiZm2tP7X7ty7hwjdzceFwnLawLa9R8H7hGVSvJvtfU+5T45UEXPx6Ka6dO64tYyHzGPsg+VIzGDqNhl8L5R58TKyaguRvFuLsT/qf0sJR750+8JJT2Tq9Dj98skxO5E33f32Okc0Nyg2ThM3vvIHFttc+Gx4hIzFpSEfUr2qAm3oviKaCp7Hvi6WYtyVeW0inN3E7vR5dR+9F7wmvo08r5T4Xt5+4907HYNnUxdh9VVvczOCNTv3D0KNtY3jr+1GYbiTj9N6VmLrI9nOU18+F3vQvN03w9H3JSd2NWMwKnVzwTf+qhmDkuCHoaPV9koDdaxdlrW8iIiLKohAzqnIbpHKgXS1Uu5mKM3Iyb6qhVjs5KohtylEiokJhOoxN0V9rQapiRTxcW7zZTw80uAehuWW5GF6dijLaXCvl3RujXNdIBP41CFVEkEoUurihUsMeaPrXcOsfLC6dUSVsJZp3aQR3GaRSi90McH+iM5qNXIEqtdQeCa241H4H/u28UU6s4GLA420GoErvUWhQU9uGSwVf/KlLqLpsfvkPmoMVM0aiU5PMh0rBzcMbQX36oI+cNvMfjDkrpmOwcnzmIJVQzgPerfpj4oo5GOwvy6zUQLMPlmPGK23MD+OCm4cvukfMwdgs64ThvffC0Km52I/FgZV2g4dPGwz+10JEtJJlNgzePZVjnIju4pxkwAClDcrxDcbESb21PiAfELenxqHxEx4orVxIl8c8ULfdaFR5SQtSCaWrB6Neh2bahJkB5ZtNxRPDQ1G3Tman/y4VasD7hamo19T2TYMGlOm4AoEjeli/JEC5Tw1ejdBg6Ew07NhZFtpS9lWzBx4fORNPttSCVIKLmwce7zrOzr6KgGEwnmmiXbWUA5G5CFIZ0CliOZZHdIe/Ug968EhrKuiPTqNmKPM62b8fqjTDnOUzECbuc/32E/deg+6ImDEWtrdryJvKPdwnCL6W+1G4VfaCf7cILP+gv/395PpzUcz5h2HBkgjts2f1feKr1veC8JJ2QkREREVP/9WtgOUnSGVAQDe9T6pgjBsUAJzYp2VQ7bmAKxUboK0MOgW/ORQBFbVxx9bg6FnLbQIvdZMdtRMRUa65+PXAk095AKkJiP84HD+81wexWxPUJkeuDYPhIQMOarCgy3A1uIS7l3Dmi6n4UfRj9F4oflyxCclpyiJla8C3x2i4aiuYVWnaDGUubEfsjCj8ZlIK3JUH4MbAlW3j8MPmBLWZYumaje0G0nKlVQTGhfqrPxNMyXFYP28E+ormQ31H4I356xF30TZlyx8jX+0Nf7GCMQGb54/BQLn8tNWxSBbHavBH7+H2HsoN8FUeXt1Mydj/kbafgbNikCTWgReC+rZRl7JyQ3SQHYlpb8nj6joQY+bLdUp7oU2//tpytmr6q8dojF+PyYPF8U3AqsNaZoqhaUcUSIjv51HKtRTXUwwzcSZVlmfLgMeb1kD6kWX4YdE+iFvAxa8jfKsbcXZVKH75UQvAuNdqqf5rqdpTQagAI5K3zdXuoxkzcfKcqAg3eP15tNaEVVdrPBq0q6HcVyZc/3ElDs7qox3nnLmIP2FU7h83eAaHokoVubyNal1Goa6n9oKBX8S608Yh/rTcV5sB0OIwy3DGfP5dcOy0WqhmHGbWixzymU2FTo1QXw16JCM2KlYtcoahUwTCQ5R7TqmH5AOrME02FRz42jxsPinqWjmfkFCMshfwrOwLfy9lzeT9WKyuNxCzYpKULSlqBuFFyz8ACvdvIeVkLNbPn4Ax4p5T9tN3+DTzfefWpDNGNVdHbeThc5FruzE5VDsmddiQIMsLmj/GvtlbbZ5pSo7FqncGZtbDgWSl7tzg22tcyQu+ERERFbHCCVQFvoQeDfOaSWXEoatNEBW1VhlGIeD6FvOb+0TQafNBIGCkmLcWw5RfPA45kazwyfhFOOTZTW5zLZocZR9VRPSosn64FkEflWj6Z1kuBkdNAcVPjmv7ELdwFFIviI6zjbj30xc4rwYqaqBSHfGvouxQ1GmhRnSQ9MUoJB/bh/tqc64U3D+3CGcit+OaMu1SvSWq2rzhwsXFiLNfz8U90zncFT9HlH26XIvFuR/jgEvXkdckXWsGDO7XRm26ZUrcjPHDJiBSeRBXQyXGJMRvi8SEMKVMTOu6DUFHHxExSEbMpDFYvC1Ba86kLL8/ajJGr4xT13fz74gh9t7aYUrA+vHDMG2jtp+U3fMQ9YsWnPHwaqz+mykSY0JHYMK89dh/VB6XsreEbfPwxjatw3I3Lz84eoxPOTAPQ9+IRKxoomWMQ/TUXdCudg14P8AOt11+T8CZreuUe+gS7qgFwB/xG/FbYgrSL19Sl7HrfgrOLB+MMz9u1+4j0y5cW7VOC2RW8EOlmupSCm94/kUEtYA7h1bixLYoZOgvCbi1HanRE3HqgjLuUgO1W/fQym24KMeUtn8uftVfMHA/Dqk746CGLavWsROELGRVK0CNU904h2NO/wLjjSEviqZqyuU/vAqjp0Rj/3l5F52MweLXJiHmopjyQlDP7mq5LdPp9crnYho2q+ulYPe8KMTdEHM84GUTbNk9dRgGvjYZkdvikCCbBRrP70f0+JWIVdfxgncLtTirXH0udL7ovXUrtmYZPseUB3V/K98PweI+VD5vq0ZPRvRPWpBOrYcpo7HqsLhZvdCsp23GIBEREVkqnEDVwaV46428BKnWYEJoOGbOftv8hr7Q8ZmdoAv7Zoeb54XNXoOZw/X+rOS6sm+rT8aL+XqAa5+ynNyeMkxYLZZl/1RERHlyOw5H/5PZh5BmF+5cl6OyqRQaNoaHGtQ6hMuntYdOK7eW4so5MWJA5Xo2D24X9uKK+hCtM+G3b+cUcEfRPRCgpqkYcXzLYjjTc0ybFlqQwhS/C8vsrGDcsAvH5EO5n51X3SZtG49Im/V2X8wmOOOA8Z6abqL8FHfVAhi2bsRi5ZQYGdySjKdwXT22Byv92E6kWXVZl4LEHSvluGO3flqK5As299H9nbip9vdmQPkaaomiCyrXFv+m4OK+dWqJteO4HqcF+srVbiyzo6yJjK9j32yXU9LFc1p9Fs5vTtkKqWk+OS2jySmd0UjWQ9yG9db3gioey37S6sFQszGyhk6SEDMu0uZzsRtJ1+So0yyO2EHdFdTn4kHTvx+Mx3dhfZYKN2J9glbfXnWC1H+JiIjIvgfw6xYREZVoJhN+twpSadI+0TKx9I60S1cxaD9kblxyEGAy4s5l7WnusTKe6r9m6bds3kKYgbvXsz5q50s7P3ipUZ5LSNiiluSojoeWS5NxQwYtsoiRD/JucBUpPTZM93J3DqKT97EfLMfn62yyRnpl7cTclvMBjaKVYdIjmrrrSM918EOXhN9l2l+ZyjLU4u6JMuqNl812L17SsqPcKpjjqpYybtseo6BnI45SmywWpYSUzCaodgOT9jT3VLPKRD1cOqCOZGE8cUm7j8sa4KGWWDLBlKvb1QMhr0zBkjVf4stNlvernU7MbeT2c6ERnZpbNOczD30xeadcpIg1rqrVouGpsRbnbzE48bklIiIiBqqIiKiQuJTOdw9ShcvVQTZSNiqUzu0aeWfoNAVL9U7erTpgInsybp7SRtzc7AafSrIkowxUVa4BP2fbHVZwy/X9nXf+CFu4HBF9gtQO0S07U3+kPKrnTUREVMAYqCIiokKRcV1mpVTwdPD8ZkC56tpTd3qaDDIUpZ1J0BoXVYCn3U6eszols7pcK2c2xbLWCd5qB90m3LJ9fX+uaP0LqfkZlp2260OhdQZd0nREOTUZz4Tfb8usnMsyS0i5v1zNHfvbqFlDyzYyXi/g5qSF5OckJKsj3mg21Mm3Du65BO0T6Pj+NjSsoTZVgzFF9l+WR92GoLPajNa603ZtmCX7qHr4nbqi3XnGA7Mszt/OMNqq5zsiIiKywUAVEREVjtPnoPavXr0lqteykwZSZTRqqB2vpyD1f1rfLUUrFknq078Xgvr11h7Yc7D7hPbWM7f6HTHSzpu7DKFd0Ew0czKdxvEYrSxv9P6FgKQd4zM7bZc83IouV6ZYq98FNUQw6n4SUsx9HP2ItMvi3xp4vE1ntcRaEKo8pQV70s7stWlimg+/a/+4utk0Yy0Iv+zCcS1SBe+/RCDMqbfGWdzfvTrZub+DMKqVVg8pCfuQn0+g3jcTbsQhyqLTdpVBdgT/CNC/Hwy+bZXaJSIiorxioIqIiApH6lpclp2l1x24CF6Ng9W3qYm+bFz9xsF3WEe4K9MZJ3biWp77KMoP5aFa70y6aRhWfDgWvVt7ywd6D/h2CcP0yOkIU6elqJ04Lp7B3bzRfeoCjOziqyypMHij0ytzsHSAv/pQnnJwI1ZZPKvn3jlzx+deLcIRUlWMGeDdujfGfvg51nRzMqvmIeLq7ocyFWRPSi7ecG08FQ1fbAbRKvLWT18gzRxxikPKoSQ1AFXhqVFo2CUUrmVlmMazD6oNngTf6sr43QSc3x+rlRcAY7KWn1em6YuoZb7XC0osFkXFaplibr7o/a/lmP5KJ/iq94Wiqi/a9BqLOcuXYKL5jXcW9/dTI7Fwcn+0qS3v7qd6I2LxPxGivvIyAbuUbedH3BW9aaIfOvZrpn2GlGPq9Mp0LF81UgvePgo27tW+H6q2wT+XK98dXfzhLW89Q21/dAqNsLlGREREZE+pwMDAP9LSbspJIqLCkZ5u9Zqvh1+1thjQuwkqyklHbh5Zh7X78tVGLH9aLMLT3X2B1Fj8Mn8SZL/U9uVmWV2FcNT7Wx94lZfTNu5f24c4izcIlumyDs1bKk92p9fhh0+WKSUd4fXqONRzN+JMZB8kizcB1pyKJ8KCUCE3x+GQPwbPmYr+/vJpMgvRYfMYWDbUMXSaiKVj2sDDQX80ppPrMf41y7elhWBKlNahdMKGrhgjTstS+AKtk+XT662aBIVMWoOI1lm7uFbdMMJY2QDDjVjMCp2M3bLYvC3bcpV+HEbEzs5/h9OVXtqGxvXlhCMW10hf/taPM3Fk2y6lRLk33lHuDaWOj+kdlOv3mPn657yfjHPbcXjVXGRYpUY1QqX+M+Hf0M3+X+Tup+DM8rAsbxHMeoy5UFY5n1eV8ykrpy1ZnE9++CvXd4ZyfR1nKNleW3+EfTgDvRs4WONeCvYvGI5pMRb18MwUfP5mEAx27n0hbOFW9FbqyOpe9gnDgnm94Wt3NyYYlc0bDG4293/ePhfKEWDBVmVfDo7PLvM5Zc/6OPT9ZE808+s7JfOTpvYtN1Y227WrYD5/RERED7MC/XsfERGRlVvLcGb+TMQfuQSjxWvo7t26hAs7F+GgRZDqwYjHqjeGYsLK/UhINsJ0TxYrTClJ2L8yElFyWmeMmYbh/1yF/YkpWZaPXTcLw6yCVHm3e+poLI5JQopFvZluJCN+yzyMCNsu+9d6dNy3vE+U8fRrSTizcSYOrrANUgnHkRY9BHHbjiM1zWRu3nf/dyNSj2xH3MKsQap8u6vc60tXIuF0CtJlM8CCFr9sDAaOX4yYo8kw3pGFwj0TjMnxiFk2C/OsAiDxiHxtGGZtiUfyDcsPoBHJR2Ow+J82Qaq8SozE+HeiEad8hsyUY0pJ3I9V7wzDoiMloiewAmGMmYzh+jWyqHLxttSU83F2rhERERHZYkYVERWJRy6jiogKRL6ynIiIiIioxGFGFRERERERERERFQsMVBERERERERERUbHAQBURERERERERERULhROoCngZ788cjfYO3vL0wLSLQGTU+3hJThIRERERERERUfFROIGqQ9HYdt4Pg6YVw2AVERERlRhpn3TBD+91YUfqRERERI+IQmr6dxvfLXgbq8/4of97wxmsIiIiIiIiIiKiHJUKDAz8Iy3tppwsaOXR/m/vor/fKUS/sxTf3ZbF2QrGuKWjEFBRmzIeXISw2T6YHhWC1INXEBDoo5Ynbh2ACXgfUV0tplero1oTv5EBMMhJ8zy13B27Q9/GJ/p+cAgLh8/CPmX2SzPWoltddRW5X1FKRAUhPf2uHCMiIiIiIiKyr5A7U7+N7z56F9GntMyq1rLUMS141ODEIoSGDlCGLTgp5wAGBFQ9qpVvTYRP17WIamI5ndn3VHArd5xcLNbPOk/30oxRCLi+BaEySBX85jJ0gzKt7ncRTjYchemDtGWJiIiIiIiIiKjwFd1b/1zc5Eg22gWjAQ5huTmTaQ1mmseNOLRljTa6+igSs0xXQ6122uS+2W9j5h5tXJtnrZYISnkewsLxcn0MRPdAZG4P+7D3hBHVvILlNBERERERERERFbZCDlRpTf8G+f+G6IkL8b0sdcjHHYbrF9QMp/wZiOlRaxGlDt2gNQ7U+SBABKVWa5lUmQwIGKmvsxajAw0wVLVek4iIiIiIiIiICk8hBqoyg1Sr357rZP9UCs9ayF8ekwhShSBVb/oXusUmoyoRW7ZeQcBI2+aASrm6vMVgzrgiIiIiIiIiIqLCVkiBqjwGqUQzvYoBGPamHqoaiHHmcSe1q4VquIILetO/QU1sMqoUq9/GwoPV0C1KD1atwdGzPug2Y6A6RURERERERERERa9wAlWBL6FHw1wGqVRrMCF0C64EjjI323NPzmVDwD2zsFwNQslmfE1ErlRW+2aHY4sITkUtw7h2wCfjF+GQZze5XzFo5UREREREREREVDRKBQYG/pGWdlNOEhEVjvT0u3KMiIiIiIiIyD4GqoioSDBQVZwZUNpnOGp2bovq1Qxwtci1Td7cBWd+lhNEJUYIpkRFIKiynNTdiMWs0MnYLSfJHr3ujIid3ReTd8ri4qjmODQc0BGeZU24vnsuTuzdJWfQo+KZZ55Bq1atkJycjP/+97+y9NHz1FNPqXVRunRpWaI5efIkvvjiCzmVf3p937hxA59//jmuXLki5xSuDh06qPsVDhw4gG+//VYdJ6KHVyG/9Y+IiIq70i1mIWBwZ9Tysg5SETkjKHw6lqz5Emsmh8gSoqJRpmlLeJZXRlzc4NniGZTRih8pLvXHoe6IdQjqHy5LiB4+vr6+ahBODGKciB5+zKgioiLxqGZUla/RAq3bNkE9j/IoLYJA927j6pmf8e13R3E1Q1vmwQpF3fFD8LgbYDyxCSe+XIH0u0Y5jyhnYQu3ond95f45MAt9pxTTXKXwBdjaS3m4YUaVE5hRVZKU6bIOzVsagNPr8MMny2Rp4XjyySfVzJ2qVaviscceU8vS09Px22+/4bvvvsOFCxfUspdffhleXl64c+cOvvzySyQmZvYWW61aNfTt2xeVK1fGrVu3sG7dOly8eFHOzb2iyKhylK1kj6iPDRs24MyZM7LkwdCvATOqiKik4t/OiYgKRWnUDO6HQc8Hwa+KDFKpxeVR1a8t+gx4Dv4iE+BBq9kYFd2Uf2/H4VT0IgapiKjkuDgTJ2Z3wQ/TerLZXyFyc3NDnz590K1bN9SoUcMcpBLKlCkDHx8fdO7cWZ329PRE2bJl1XF9niWRDVOhQgV13NXVVV2GKCciMDVr1ix1YJCK6NHAQBURUWHwDkHnJ9yB+7dxbt+XWL5sCZYsW45P/y8eN+8r88vWQdBTNbVlHyT3Cign/jWZIA6LiIjIUo8ePdCwYUOUKlUK165dw6ZNm/Dvf/8bM2fOxKefforjx4+rmUSCnnUkpu/du4c6derAxSXzcUMEru7fv29eviT46aef1ADJ9OnTzYPI4BJExpJl+Zw5cx54NhUR0cOATf+IqEg8ik3/arbvgfrxm7D3siyQanYYhh7+bsDNo1i3di+uyvIHosUiPN3dF0iNxS/zJyHbRwe57K0fZ+LIth9R2n886ncNgkcFwOW+CWmntuPkZ4uQkSXi5YEyLd9BvTa+qFTJTf0LyX2TEWkn9uJszFzcuaUtJejNWJI398HFyvPgH+yNcjDit60TcfZQHVR5eRR8ayp1dysB8UtHIc1i3fwwNO2O8EF9ENzACwaRYaYwpSQhbmcU5n28GylaUSZDM/R/dSR6POUNDzXSp7iTgqTD27Fy9irst0pM05tSJWB91zHY22ciXu/9FLw9tB2ZUhIQs+wdLN6dZS/weKo3hvTqjCB/L2U/8sDumZCS9BM2fTQX0YdtMuBkEze1Gd5sE0a+G46OyroG8ex4z4ikn9Zh8exoxOUrcS4MC7b2hlO9hJxej66jI+WElKu603kgZNQkDGlbH16V9QtkRPLJfVj38TxsjteKHMpN07+qIRg5bgg6WtwLMCYjft86rFy2OZ91Z0Opi+7hQ9CnleV5KXXxyy5ELYrEbvnlEDL5c0S0MiBhQ19s8piD8HbeMCifi4SNkzBmbR1EfDgSIeJzYVTusUljEGlZH1WD0Pul3ugc1AheyufPTbZeEvf3TxsXY+6nccqWLDlu+mfoFIGFI0PgpezKdHozJo9bbF0fdupO3N+71y7CvC05XSQn1ZyKJ8KCoOXkZNK+l+xkVenLi6ZxuzzRoF9HVFFWvnNiHY5Er8VjHRehcXANlNG/Z34+br1e4ib8sGonyrUdrX6HVSgrvu+U/SVuR8JnyveXSVvcinsoqnXvidp1lO8+kXykLJ+u1PfFPSuQfHiftoylXH23doTXq+NQz12M58CZ7/Uc+Pv7o2vXrmrmU0JCgtqUz2Syd9IavWmfCGrdvXsXFStWNDf/q1mzppqZlZKSovwsqKRmXn311VfqdgUR0HriiSfQvHlzVKlSxZxtlZGRoTYP/Oabb3D5svUPVEdN/8qXL4/evXvD29tbDZjt2bMH33//vZyradCgAYKDg1G9enU1wCYCaCIQt2/fPjX4lp3cNK2ztx/R7PHo0aNqk0kxbUs0jezYsSPq169vrgcR3Dt79qyaUXT1ava/OeS26Z/erFNcP/0YRfO+X375BbGxseZj1OtbXIf169er03r/UaKexbX8+uuvcfv2bXV5nbgeTz/9tBrwFNdeLP/HH3+ozUPj4+Oxa9euLPeVvi9bounfzp322ySL8xZNU8V8cf+1bdtWrUtxb4lj+vnnn9Xra6/Oiah4Ka380Hg3Pd3xDxwiooJw797vcuzRcfPsCZyz81B7s7w3nqpbUXmCu4Ljv56D9a9zhS0c9d55H/4dXkJtMTT01IrL1sLjepk+NPsTrhzYhXvaEsDj3dTlHzOm4Hqd0Qj4i6/6MFpKzCtVGmWq/AnVapRD8pGf8Ye6gsKlM6q88j6aNK+BsmVKa8sqSpV2Q9nqfqjR/M+4k/h/uHNT67DrMb9+eLyWG+7c9kfNVg1RTqxQyg0Vq1bBHe8eaFDfTd1GKTdPeFa+h4vHjqjr5Yf/oDmY//pzaFS9gvkhXihdrjJqNa6BUmu+htWLD/0HY878sXjWrzLKucoywbUcKtd+Au27BaL0r9sRZ36O8EHHF4NRq2wZuAV0RZ/OjeBZLnNHpct5omFwW1Q7+BV+sHr2CMMHkQMR9LjYj8WBuZRGOXdvNOvYAbVOf4V9WrcwmsCuGNjIE24uVRDYvzfa1FLOSU9mcHFTjq8ZWvvfwdZvjiPvXaS1QNeByjnIqWylHMearRa1l+u6Uxg6IWLpvzCwuRcqlLW8QG6oUN0XQR3/jFrXv8G+hGzOSNYL0i9i37rdyOwxx4Z/GBbMD8PTj1vfC3CrgKq+QajnugZfF9RbMGVdPNeoqs15ibpohBrI3JdPyF8RXNsNxow/oa3yuTCIayo6EK/hiVoteyCknowKKZ8L37r3EL0983MRNisSA5+qgcrKPWdugqwQ97d3wJ/R4fET+Gq/ZR9B+v2agYv7P8dumRxiaD0Wc15/FiIeZjq5HuNfXYKjllUu6m6uUnc1bT9HyjG17Iinyx9Szif7h2unVHwG1VvUgjxjM9OFfbh8ys6V1Ze/kYE/Wj6NGjLC5VrlcZjutYRfSD246d8zPnWRunc71N+Kzfu5i4wGofBvUU0NOmnfd0pVe/iheuN6uPrjd5nfkYrST8zFE4P/DC/PcnhMr29l+cfKV4aHfwd4VCuNa8fiMr8jhVx9t9ZDhVZt4aG1rsve3Yu4ZPkdngfiQV809xMBhR07dqiBnOy4u7ujSZMmaiBABElERpUIGIgsoxYtWqBu3bpqhpIIRIkmgJcuXTL3URUYGIi//OUvamDBsnmhCGqI7f7pT39SlxcBFF29evVQu3ZtGI1GNagiiKBIz5491X2JINfu3bvV4IaloKAgtbmiHsQQRHDNYDCogSWxnt7nlj0imCaO//r16zh27JgszUoEW5599lk1OGO5HxF8EkE0cYynTp1S96cTgZ8XX3wRtWrVsqoHMS7qTdSDuA4i4OeIs8cnjun5559H69at1aCi5TGWK1dObcoprp0eeNLrWwTNRFBRjOvriH/F8YlAkQg+iUCUTuyjadOm6jYt9yGafz7++ONqXRw5csRqHX1ftsR1cZS1Js5bnIe4jgEBAeq9IPYjiH2JOhX3ZlJSklpGRMWX9k1BRERFpqpnRW0kIz1ff+l+UFz8euDJpzyA1ATEfxyOH97rg9itCWrgw7VhMDzMf+k3oEyX4WggnmzvXsKZL6bix2ldlOVD8eOKTUhOUxYpWwO+PUbDMmYhVGnaDGUubEfsjCj8Jp4a3YPg2xi4sm0cfticoDZTLF2zcf7f8tUqAuNC/ZUjVR50k+Owft4I9O3aFV37jsAb89cj7qJtypY/Rr7aG/5iBWMCNs8fg4Fy+WmrY5EsjtXgj97D+6vbtGaAbxMvuJmSsf8jbT8DZ8UgSX0q9kJQ3zbqUlZuJCEuJhLT3pLH1XUgxsyX65T2Qpt+/bXlbNX0V4/RGL8ekweL45uAVYe1hxpD044IVcfyKhJj1GPRhvWntVKRxaWXmQerbKq81J0BncaFI0RN4UlG7OppGNFXbFvUw2YkiECwmxdCQkchSFshX7oP6gxfsavzMZj32kB5Hsq+pkci5mgKbhXYH+GDEDGuv1YXynnFrZsnz6svRrw1D+t/Sba7L2/lc2G4GIMJg6MRL+rLIwgh/kDSlgkYuEHLSnF7vBGs3r8oMul+iUHk9DfkPpT77rV5iDmv3njwahsKB3dRJv8wzBjXCd5K3RjjozH+tUhY50f5Y+ybveFbTpxOLFa9o9Vd3+HTsOpAMkxwg2+vcRirHGu+XZyEI++J7xFtOCbvvxzVaYZa5S/h5PxQHNEqD3VDGsElcZPyPbMOyaK+3erAYNsi270Z6tV3Q8bFWBxZGKp9330Wp14fF89g1HnaWy6oqDAKPt0bqYFE8XKKuDlieeU4Z03FkR8vqd+RhsZ9ULtx1m8Hwbnv1l1Inp95/r/8KP8aIjLGZJl5yGc2lQgqiAwbQWQsWXaK7ogIwIiAgHD+/Hk1wCWCVaKfKxGUuXnzphrAciQ1NVXN4FmxYoXalO7DDz9Ug0wiW0cEH5o1ayaXtE8EQZ577jk1yCGCKSJTR2zPkghWiOwecZwi6LFq1Sp1X1FRUeq0CIyJTB6xXH6IbDRxvGJ7Yrti+2I/y5cvV4NTImAi9iGCZjoRWGnfvr0aZBLBt5iYGLWZpagHkREmzknMa9OmjTngkx/t2rVTA19iW6JTfJF9JY5x8eLFauZWWpr4QZ2VCGB5eHiY608cn54ZJ87Jtu5+//13dfvifMS29XrQA04iWCUCX5ZEVpRYTgyRkZFWAcqciOCqIIKiov7EeYlzEddCnC8RFX8MVBERFSWXmmhSXwtUJf8vDkXf8HoZzlg+yGzWfrFUm4hYlovB0UOO+MlxbR/iFo5C6gXxV0kj7v30Bc6nipk1UKmO+FdRdijqtFCjEkj6YhSSj4l0ezEjBffPLcKZyO24Jh72qrdEVev+dpVfmo04+/Vc3DOdw13xh1xlny7XYnHuxzjg0vUCykIzYHC/NvBSxkyJmzF+2ARExiRpzaCMSYjfFokJYUqZmNZ1G4KOPsrTOpIRM2kMFm9L0JoFKsvvj5qM0Su1ZlRu/h0xxOacVKYErB8/DNM2avtJ2T0PUb9oD5oeXo3VfzNFYkzoCEyYtx77j8rjUvaWsG0e3tim/TXYzcsPdsJbqpQD8zD0jUjEiiQWYxyip+6CdrVrwPsZdaRo5aXufIagz1PaPRS3cjQmR+1HkloRoh4WY8ykGGVrCq8g9O4mRvKnRmUtgJBybBtiTurZCsq+9qzHvLcGYsLHsiifDINC0Ua98ZKwWbkfJnwcI89L+awcjUHkP0WZmLZlROzaeYi7eg4378iiqz8hclEcUhKuy3vEWuRrfTHin/Owfk+83IdyRidjMO91ZZ9iws0Lfu3UYvtEptSM3moATwSpJr2xyiZIpVCubbAI8Cj32arRkxH9k1Z3xvP7ET1lNFYdFoEhLzTrmX2QoVAp3yG3f1qJa6kpyEjTsldcXFKQuGWR8j1zCrftP4+rMk6vw6HISbh1XZyX8n0XPw7/26+do4dfF/VfoVzIM6im1NP9C9txLHoR7tyS99Ddfbi1bRSOHVLvcHi1HGr/F3Bnv1uLiAiI6EGnnDKpbIkgjGgeJt4KJwIaIptGBDdE9pSjgIMIKixdulRt4ieCGoLI5BEBCz1IJjJ2HBHBll69eqnNy0RARwRaDh48KOdmEs3cxLmJYxMBDBFsEcQ+xLQ4VxEw8vPzU8vzSmT0iOaN+n70cxBZYeJth6IZnzhmkcElgoKCqCcRHBTN4EQ9iOMX46IeRGbYDz/8oAbtxDLiPPNDZJM1atRIPQYROBMBJz2IKK7R/v378cknnzh8s59YJzo6Wq0/cXziWEW9i6CkaHZoSTT/FMFHsYx+/UU9iCw9EUDSs8UKiqgjUV//93//p9afOC+R5SVYBmCJqPiy+3OSiIgKQ3n4P9dZe9vfjcPYqz68lUC343D0P1ORbpXxsQt3rstRvaVCw8bwUB+8DuHyaTuP0LeW4so5MWJA5Xo2D7AX9uKK1RvLTfjt2zn5aK5mTw8E1BeBEyOOb1mc9eHbjjYt6qjZPqb4XVhmZwXjhl04pv4Orjz8t1aLrCRtG2/df5Bi98VLcsx5xnvy3nFxzdIESnUjFiunxFgHLoyncN35P0gXuDzV3bONoOarXI3D+g127qH4ZYhVn/0MqNEk/0GQuHNaB8lenaZiyYT+aFNbC1wVtB7N66vXzXh0ExY7c+PpLu5DpFXXLCbE/99cWOeLOMlo0pq4KUciYxFZeQzGnKlakCrlcKT9IJVCv7bG47uwPstlMmJ9ghZY9apTEHlveXUJF3db92F1L34bruQYf0nAyU+WZWk+l5F4Tg3ku3jWkZmdwajko97hSD6w1E5zOyPuHDymfiZdavgpPw3scPa7tYiIYI7+Bj+REZMbIjggAhIimCGCEKI5oAiInDhxQi6hNekTzbScofcppDfjsiXKRXM/EVwSTQ31II89IntHOHfunLlJm05Mi+Zy4ljzE8wQQTkxiOMWdWC7H1F++vRpNaAi6lk0lxNEP16iXkRwSA+sWBIBF5FpJQKItsGg3BIZbqL+RXDp119/NdexM0RwSQSCxHXWiTJR97mlN/dzdG3zQgQFf/zxRzmlEfejqG8iKhkYqCIiKhKlUbPtC+hQW3niM13Etxu/f7CdqOeH8ovp73Z+n037RMvEOiP71SldxaD9kLmhNXnJSnlwu6w91T5WxqbHo/RbNm8hzMDd63YCFfnRzk/tFFo8wCZsUUtyVMdDC1xk3DhnHQQyi0GS+uCrPPzb9vasMN3L3TmITt7HfrAcn6/biq1bLQbRMXgOilsYNC9110z0ei2kXXIQjDHiWLK2tQrlPNR/8yN21kxEx4vtGeDdbjAmLv0cX65ZguljeyNIe44sAG3gp914uJS4Wf3XaXdvaVlQZhm4eSGHe0p02D52DpZHfWl9DznRIX7jF2XzROU43xm/3mEwt3FVre4NT4212YccnLhfC58Rv9s8Q99JUyPleXPXpH2vla8gmy7XQVn1ds3mu+rCOaiNid20l0pk4eR3a1ERAQy97yTLvpKyI7JiLJcVgRURwBABGPGvyCKyZBucENlOw4YNw1tvvYUJEyaYB5F1lB2RHSQyjETQQ2QdHT58WM6xJoJHevaS6BPLch/O7ssZopmiyCwSxyM6TrdHBKNEAFAExfQ6E0ErQQS27AWOxDqiOaVYRwS08kO/ViK4lNuMOcu+pJwh6kL01zVq1CiMGzfOXNdhYWHqtStouQm6EVHxVDiBqoCX8f7M0Whv989FuTTofUTNGCgniIhKovKo06EfejQRHagn4/uvNiG+YNquFWsupfPdg1ThcnWQjZSNCqVzu0beGTpNwdIZI9GpiRcM+tvxSrC81J2hTNHVtyYeq97oi4Gz1iP2ZDKM95QHLA9vNOsUhinL12B6n4LoZMkNrkX1Z0JDJ0xZOh0jO/lnvlUwF459sR4JIuLp0x3vTe6kZk3Zlb/n5ZLt7i0ZiK8AlyLOeCpsIoChZ6CIzszzQmSxiCZegt5nlSCCVrY6deqk9m0m+hdyNjCmE/sRfSSJ4I3of8pRP0T5De44S+wnLxlCRXV8QkFmMGVHNKMcMGCA2u+XZafyRETZKZxvikPR2HbeD4OmFVCwioioxCoPv7/0wXP+Ikh1EXu/+BKH9WYcD7mM6/JEK3g6eI41oFx17dE3Pe2U+m+R2pkE7fGpAjybqyM5OiUzJVwrax21ZtUJ3mo3GybcylfKnDeGvBgENU/FsuNxfZAdZ5ckeam7/ZfkPWTwhP2GfQY09tLuoVspBVcnKbsjMfm1Yejboy9GzFuPONHTe2kPNBs0POeOx3O0W2aOKXeeR+H22eQ9tA+CtJsICVvmYYzoWN98H62XfZZlIyUS4xfHqn2JebQaiRl/a2Y3WHXqinZt7XaobzlYda5fwtXw1Jrv3b0FrVGc3s+VK8o6iunUqqN82yhu68Gt4k00gdOzgUQzM72D6twS/ROJDrG3bdsmSzKJztcFsW29U2+x36+++gozZ840d6adXQfsgsjw+frrr9W+rURzRfGmPXudoYuMJL15muikXd++vUH0K5VXonmeyEgTwSCRXWWPaFooAnIia00sK4jO5gUR3LFHrCMywkTGkB70yysRLBSBSJHtpDfxLAyi363q1aurxyyaQYpO1PU6zm0n6UT06CikkPZtfLfgbaw+44f+7w1nsIqIHk0uFdGkWz88W1/5Erx7Dt9+uglHi7739Afn9DmofQBXb4nqtez8ol5lNGqonQOnIPV/1g2aikYskrSeuBHUr7fjbBELu08kqU3q3Op3xEg7yTWG0C5oJloxmE7jeIxWljed0Ui+lTtpx/jMjsclD+XBolAYOiEiUmsi9mVkBDo5Uymyyw/XcjbNN23kqe5+SsrsLN3ewbQahSC14/UUJBwojHvIiKSYSEwY7UzH4wZ0iliOL0VTt3XLEZFN5cXqfWEF9UdvZ+o4jzo3lG+kS9yF8YtikGAZPK3q5lRGoTFmMqZuSFCunRt8e07BjPCsF0+/tgbftgXy9sXirxE8m/uqv0TfSvxRfgR2wXhRvcNR/alRdoLzBlRorQX67p07hvyFGDLd/13sU1GmQqH8Ui+a6okAg2iSFhwcnGM2jOjzKDdZQXoQRwSVRABGBE5++eUXHDt2zNx8y9lmbqK5nAiGicCHaE72/PPP2w2uXb2qfRBq165daNk9IiAmgnxi+/Xr188SeBLlIjAnzssy60ysJ85bNMsTbw201bhxY/VaiMCW3uF8Xok3OYo+pkS9iyaXhUXvd0vUh+jXSj9XQfS1VVjXgIhKtkL8ZtCCVdGnchusGojpUWsRpQ7v4yVZatYuApHm+WsR+WawnKEJfnOZeV7U0gioc63WsbNNIqKC5uKFoBdeRFvRJ9WtM9jx+dePRHM/K6lrcVl2ll534CJ4NRYPOWLaA65+4+A7rCPclemMEzuRy+4xCkgcon7SghuGpmFY8eFY9G7tLQNWHvDtEobpkdMRpk5LUTtxXCSPuHmj+9QFGNnFV1lSYfBGp1fmYOkAf/XhP+XgRqxy0E2Nc86ZOz73ahGOELV/JAO8W/fG2A8/x5puFq/EL0CGAT0QUlMLX7jVDEGfoTnvJ/aCFnRxa9oH00PbwNtR4CUvdfdLFGLPixEDgkYuxBTz9j0Q1CsCSyJCtLc2ntyFlQdEeX6EYOLS5ZgT0R+dmstjE6r6olN4M3U/ounuqT1qaVaGUPQI8dKCP+W8EPLiEK0jeDviPovVAl+GZgiLXICxvTLrzaNBJ4T9azmmv6JN58e5G7IiazZDeIh2RobabdB77AJ8vry7w+OzFb9sPBYfEKFSN/j2moQptkG4jXu1a1u1Df65XPnMdPE3n4+htj86hUZgzvIlmPgg3jaZb54oV0e8GU1OVugM9/7T4CeSdUwJOGfRQfutn46rAajSPj3QuP8olKsg76KynVGpdyQaN1bujvspOLd3pVZeADIuXtICZbU6wrdtZ7hoH98CExsbq769TxB9Nw0aNEgNoIjggh6E6dOnDwYO1LrpyGtzstTUVLW/JhHQ8PX1VQNNItOnefPmCA8PV/fjDP1NciJrSmyjS5cuWYJEIqtHBGhEcGzw4MHqm+/EvgQRvBJNEEXfST4+9l7d6jzRcbwIvIlg2Ysvvmjenthv//791X/FfMug3P/+9z814CYynMRxiH60xLGJc/jLX/6CoKAgtd6TkpLMbxHMK7ENPWgkAlX9+vUzH6PYX+vWrfHSSy/l+w15elaeCErqneqLayPO769//avTHeoT0aOllPIF+EdaWmH+ib882v/tXfT3O4XVby7F97LUvmCMWzoK7nsGYMJqMS2CVt3gc3YLQsevMU9jqz7fenkRpBrd8CQWDp+Ffcrcl96MwJnZF9A9KgSpi8Mx09Evl0RU6NLTc/8mmJLM/ekB6NfMiV++zn+LJVty89qvAtZiEZ7u7qs8JcTil/mT1LdYOZSbZXUVwlHvb33g5eCPFffFq9gt3nJVpss6NG+pPOGeXocfPlmmlHSE16vjUM/diDORfZAs3gRYcyqeCAtChdwch0P+GDxnKvqrPUbbk4D1XcfAssGSodNELB3TBh4O/sBvOrke41+LtOh4OgRToiIQVFnZ2oauGCNOy1L4Aq2z6dPrrZpGhUxag4jW5nCJtRtGGCsbYLgRi1mhk7FbFpu3ZVuu0o/DiNjZfTHZ6u1xGu9RS7DEIgiWvG0Ehs3PIVPJJwwL5mlvhsvC5pxyX3cKf2X7/1K276ifrqv7Me/v0xBjGRh8Zgo+fzNIBh0ds74emdfJPpOy/HhleQefV5+RWLLYIvhzMQYjwubZdH6eyX/QHEwN9Xd4jJbHFjL5c0S0Ep8LvT7tXEv9nC2v/TMTseZNpb7FuK17yj10V7mHDLb3g6P7xB9hC2egt/qmzBTEzhuOyRaVrvapNlY2V7XL8X2XG+bviGwl4Nh7o6C2xNO/LyzK9G3c+nEmjmwTgaZsvmfENuy5n4Kkz97DhRPHZYFgQJk/R6JZGw/7fwm+b0Ly1nE487PlOoq8fLeaKcc+Wjl2ewmNBfIdqTXLe+GFF+Dh4fjqiuyc//73v2qH2aIvItFUL7umcyJwIwJfol+pzz77TM3qEUELkX1jj2jmJpoJiowjsR+dvj99/7qWLVsiJCREDXyJzCOxD8s374kgiQiCOcrmERlLGzZswJkzZ2SJtZdfflltDpndeYpt9+rVSz1PewE8EZwS2WMxMdbptyIY1aFDBzXbyJ6LFy/i888/tzofvT6zY++cxLXt3r27w2CUyPYS+xL1Luj1bVsuiG307dtXzfjauXMnfvrpJ7VcBB579Ohh7sTekqgD0fRRXFvRFFOsp9PrODu2x5HddXnqqafU4xeBM9tjJ6Lix/63c2Fw5k88g7ohAIewWQ1CCWswYWvmXwuC3wxRg1ZakErYh5l7EuHTRPwVJxhtGwKHVmtBKuGT2WI8Eak3DXDP3x9FiIhy5THnWz483G4tw5n5MxF/5JJ4G77ZvVuXcGHnIhzM8ir2oiY6zx6KCSv3IyHZCJNsxiaYUpKwf2UkouS0zhgzDcP/uQr7E1OyLB+7bhaG2QZa8mj31NFYHJOEFIt6M91IRvyWeRgRtl32r1Wwklasw261+ZKyr4u7EfVxDkEqITES49/JWh/25Knu4iMxZsQsbD6abHUPwajURcxiTLANUuXZbsxbIjtRt2yXdc+ElMRYrJ81zHGQSkhciXW7k9UmcLiTjN2fLXMYpBLiV7+BoeOVuhD7szyvOylI2rMKkWvldH7snIbRi2KQZHUTGZF8dDPm/X0otmvJcE6KR+To8Vh/WmzLA0EjZyDMomWSaCI4fPxixNheJ5NSf+fjELNsFublM0j1oMhkF9V9pf5Sj2xH3MIwmyCVYET6N2E4+Nk+XLlmwj19vfsmpJ2OxbFlQ7IGqfJtF5KXZv2OLUgi60YEgUQgQfRrpGf/iH6hRABJZA5t375dLdP7nMqJyGgS9Lfcie2IvqxEEEXvwF3sR+xv79692L9/f67eNPfjjz+qzczEth5//HE899xzVkEpERwSTZzFuen7E0QwRwSCvvnmmyxvKMwtcfwiMLRnzx6rehP/iv2K/dsGqQSRxSb66BIBNv3YxLmL/qvENYiKirIKUuWHOI5Vq1bh4MGDagDH8hhFX2Gi7vMb0BHBSNEkU2xP3744L3F+4jzPncvH2zeJ6KFVyBlVWjbVIP/fsPrtufgup+9U8Ya/Jkdl9pRkUSYypoZhBcJm66EohWjWNwhYPlxkTjXB0dC38YmclUlmZiljieZsLCIqSo9aRhUREZVgdjKxiIiIqGgUYkZVLoNUOs9aWr9SUrCXdSqqoapNapSPOwzXL8gsqmqoZbeT0zWYEDoAoaFbgK7LMM5hR6hERERERERERPSgFFKgKo9BqtVHkVgxAN0HyWkMRPfAzH4I9h04CWPdbphunh+Mce18kHhUZGCtwdGzBgQMkh2oK0QfVdZdrbMZIBERERERERFRcVU4Tf8Ch+ODgQZsmpiLIJVONOUbGSA7F03Elq1AN8vmgFbzszble2nGWnSrKyfUTthhbvYnGA8usm46SERFgk3/iIioxGDTPyIiogemCN76R0TEQBUREZUgDFQRERE9MAxUEVGRYKCKiIiIiIiIclKInakTERERERERERE5j4EqIiIiIiIiIiIqFhioIiIiIiIiIiKiYoGBKiIiIiIiIiIiKhYYqCIiIiIiIiIiomKBgSoiIiIiIiIiIioWGKgiIiIiIiIiIqJigYEqIiIiIiIiIiIqFhioIiIiIiIiIiKiYoGBKiIiIiIiIiIiKhYKJ1AV8DLenzka7cvLaSIiIiIiIiIiohyUCgwM/CMt7aacLCjl0X7M+xhU7xRWT1yI727LYiJ6ZKWn35Vjj47SleuhResW8K9ZFeVdtbJ7plQkn4jD9z/G42qGVkZERERERESa0jVr1nw3Pd0kJwtKBs7++B1uNOyL/r3q4ObegzjLBzKiR9q9e7/LsUdFVQT36YFm1cvDtbQsUriULouK1X3QuFF13Dh+CtfvyRlERERERERUWBlVuvJo/7d30d/vFKLfWepUZlXwm8swOtCgTZzdgtDxa7SyqidxyDMAARUTsSX0bXyCYIxbOkqZ1hY1HlyEsNn7tAkiKnYevYyqqgh6vgMqnYvFwaPnkCr+HuDiBneflni2QxNUdQNSf16LT2ML6/uXiIiIiIio5CnkztRv47uP3kX0KT/0f284WstShwa9j9ENT2Jh6ACEimH8GjlDUbcBsFqUZwapGpxYpC0XugUn5WJERMXDVcR+tQ47fpFBKuG+Camn92LvSS1qX9qtjPovERERERERaYrurX8ubnIkG4mpMFZ0Rz05aeXsbszcI8fbBaMBDmG5OYNqDWYym4qISogyZR5T/71nSlf/JSIiIiIiIk0hB6q0pn+D/H9D9MSF+F6WOrRnFsK2At2i1iIq6n28JIuz8HGH4foFMDRFRCWKmzvqtOyBZ+u7ATeOYvdBNvsjIiIiIiKyVIiBqswg1eq35zr/5r/Vb2vN+UTAamkEgmVxFp61HM8jIiouGvXAiBEjtGFYPzzX3Avp577Fp5/tRfJ9uQwRERERERGpCilQlccglaXsmgGuPorEigEY9qYeqhqIceZxIqLirDQq+nTAi306oE55WURERERERESqwnnrX+BwfDDQgE0TcxmkGvQ+orr6yAkjDi0OV/ul0t76t9u6c3UMxPSobtCXTtw6ABNWywkiKnYevbf+2eFaHlVr+COofRDqVFCmbxzGuujvcVWbS0RERERE9MgrnEAVEZENBqosuPih09BnUc/1Hs78XyRiTstyIiIiIiKiR1zRvfWPiIg098/gwjUxUhplyqglREREREREpGCgioioqLnUQ60qYiQVl86rJURERERERKRgoIqIqKi4lUdV7xZ4rr9o9geYzh5EHFteExERERERmbGPKiIqEo9cH1XV2mJA7yaoKCdtma78jK1fxiL5viwgIiIiIiIiZlQRERWZDBNSL8cjdtNaLF/PIBUREREREZEtZlQRUZHgW/+IiIiIiIgoJ8yoIiIiIiIiIiKiYoGBKiIiIiIiIiIiKhYYqCIiIiIiIiIiomKBgSoiIiIiIiIiIioWGKgiIiIiIiIiIqJioXACVQEv4/2Zo9G+vJwmIiIiIiIiIiLKQeEEqg5FY9t5Pwyalvtg1Usz1iLyzWA5lRfBGLd0LaYPkpNERERERERERFQiFFLTv9v4bsHbWH3GD/3fG87MKiIiIiIiIiIiylGpwMDAP9LSbsrJglYe7f/2Lvr7nUL0O0vx3W1Z7IDIhAqoKCeQiC2hb+MTZSz4zWUYHWjQis9uQej4Ndp4uwhEjgyANkcsfxRNorrBR51W3DyEhcNnYZ+cJKIHJz39rhwjIiIiIiIisq+QA1VCZrBq9ZtL8b0sdUQ0/Qu5ughhs2V4adD7iGqXag44Zc73wfSoEKQuDsfMPdqiGtH0bxTc9wzAhNWyiIgeOAaqiIiIiIiIKCdF99Y/Fzc5khvBGNfOB4l7MrOiPjmaCENVkTOViNSbBrib06eIiIiIiIiIiKgkK+RAlZZNNcj/N0RPXJhjNpUjPl3XIipKDl19AM9aCMY+zBy+BZDz2Hk6EREREREREVHJVoiBqswg1eq35+bYP5VjRhxaPAChoRaDud+pNZiglomA1TKMa6cWEhERERERERFRCVRIgaqCClLtw94TQMCgCATLEvvYDJCIiIiIiIiIqKQrnM7UA4fjg4EGbJqYhyCV+U1+mW/9Ex2od6urzRYSt4qO0gdiusUb/owHbTpgF00E+dY/omKDnakTERERERFRTorgrX9ERAxUERERERERUc4YqCKiIsFAFVD16QHo06yiNnHzKNat3Yur2hQREREREREpCvmtf0REpHIPwrNPyiAVERERERER2cVAFRFRoXNH0F9awN3lHi5eZA4VERERERGRIwxUEREVMvegzmjhCdy7+D12nDLJUiIiIiIiIrLFQBURUWEq3xQhAe5AxkV8v+MocvsiVCIiIiIiokcJA1VERIWmPJp2bg0v0eTvwA4cZZSKiIiIiIgoWwxUEREVkvLNOqF1ddnkj1EqIiIiIiKiHDFQRURUGMo3wbOBXmzyR0RERERElAsMVBERFbjyaPJsa9R0ZZM/IiIiIiKi3GCgioiogJVv9Cxa1izNJn9ERERERES5VCowMPCPtLSbcjKPDAEo/0QzGP74CVd+PCoLLbnCteUQVCx1AsYjPyHdyAc3okdNevpdOfbw8+82Ah1qywknXPxuCTYdlxNERERERESPsALJqDJ0DUP99kHw6hCG2i3ry1KdCFK9gfodAlCz/V/RoGt7Wf5gvTRjLSLfDJZT+dQuApFRyzCunZwmIiIiIiIiIqJcK5CMKkPfhajnIyeQgevbp+Hi4WvqVOmmb8Cvc324qlOKxM048vk2OeHIQEyP6gbzJpGILaFv4xMEY9zSUQjAISwcPgv75NxM2nrVDi5C2Oyscy2JQFXI1ZyXszLofUQ1OYrQ8WtkQS6IYNZId+xWz8M5Th9jHrZNVNQepYyqbDXqgRHtawI3j2Ld2r24KouJiIiIiIioUPqocoVnp3Go0agKSjd6FT6dLIJUzhDBoKhuwNYBCA2Vw+JUNDFnPxmV/wLQfZCctBD8ZohFcIuIiIiIiIiIiEqSAg9U3f9D+V+p8qjabQr+1K0hypVSppWy++rcnAzE9K7VcGjxAExYLYuEPbMwwSKr6OSJRPg0GSindAPRPfAKDh00ymmNyEqKipLD0gjYbeynBsfWYroe/FKb8unrvY+XZLFD6vKZy1nuU21eKLY/MgAG+KCbXmZvOTORObYW3eoChsBR8hhEtpjtMS7DuPH2t01EREREREREVNIUcKDqNC5uOYE7arBK2bgapLqNq1t2IFWdn4NBTeBz8yT27pHTjhzYgkOeIVZ9QqnZVGePYq+c1gxEE2yRmVmLcAgBGGYbyBEBH6vg2EBMH9kAJ5Vpdb2tQDdHAS47gt9chm7mfQ7Qmu2tfhuhiw/BqDZh1MrsLme2DzOHD8CWs4Dx4CJlvmjStwYTtibCRzlecSwvdQsADq7AzBlZt01ExdjxTViyZAmWsNkfERERERFRFgWeUZVxfD4SY04jQ5vC9ZiZuHT8jjrllOsX7PQ9ZWsf9p4AArrpWVXBaNsQOLTFtu+oNZhg7k9KrGOdbSXWmz4yAFe2hmOmDI5pAa/d5mmsPorEiu6oJydzsi/5CuBZK8fAlrPLWVn9NrZcD0D3NyMQ4nkIyxmUIiIiIiIiIqKHSCH0UQXcO7wAJz+aieMfTTZ3qu40J4M3+2bvRmLdJlpzu0HdEHDdIrhkQWQu6c3rRgcaZKnGEBgAn7NbrJsZCnW7mdcR/WX5oBpqOftGv9VvY+GJBhgt1s0uE8vZ5Wx8suUQqgU2wMnV9jqTJyIiIiIiIiIquQolUCUyqe7fTMK9m2ly2klq9lIDtHUqKLQGmw9WQ8ibAzGuXTU72VRakGp01d3m5nULbfqvMh4UTQi7ZenXSWtuJ5v+qUNmxpUz9s0O1/YnAlEzbPvSyuTscpZEk78rZ68gYJDzwS0iIiIiIiIiopKgkAJVeSWCT0DAyGVW/U+JfqSm2+kkfN+Bk0BgNwTAfr9W9aoaYLyaKKdE80DrjCogETOHb8GVwFHmYJW2zaHW+8+j3DcD1DpRN3eYbmvQ++jmeQibx29R+9uy9+ZDIiIiIiIiIqKSqkACVX/cuY0MdbgjXvBnx23cMy9zW5bZp2YZbb2CgJF60ztlGARsttcf055Z2H0WSFT+tdcM7pPxWhBK285QuF+37aNKWIMJiw8BYjmR1aRsK8x2/5bZTlbNArO+Zc+yqWFUV2DLcHls6rFmvpnP4XIWRDM/9bjEW//0Tt/VJn/7MHP1IVTrKgN6NtsmIiIiIiIiIiqJSgUGBv6RlnZTThIRFY709LtyjIiIiIiIiMi+Ytb0j4iIiIiIiIiIHlUMVBERERERERERUbHAQBURERERERERERULDFQREREREREREVGxwEAVEREREREREREVC+pb/w52XykniYgKR53lXeUYERERERERkX3mQNVjMbNkERFRwfq9UwQDVURERERERJQjNv0jIiIiIiIiIqJigRlVRFTomFH1kGixCE9395UTmZI3d8GZn+UE0SPMO3Q65gxoBgOMiFv7BiZEJck5xc0fmPWfawg8VAXPLikly6hgeaP/jDkY3NQA3IjDqgkTEJ0oZ9kKX4CtvbJ+tyZs6Ioxy+REAQofn4ohngZMinDFLllGRERUnDCjioiIiBRBCPvXEqz5cg2mPCOLKFc6BzeDobQyUtqAZsGdtcJiRwSpLqNf/dvwDjChoyylgtYZwSJIJVRuhuC/aKMPXM3f8UyAEd7NLmP+lN/hLYuJiIiKk0LIqCqN0pXrwKNWJWXsLoxnzuDWHZOcR0SPokczo6oq2g7ogyYV5aQ957/Fki3xcqKk6QivV8ehnvujl1EVtnAreteXExZMN5Jxeu9KTF20GymyrGQJw4KtveELI2Jn98XknbL4AQuZ/DkiWskHfgumOylI/mkTFs+PRpxRFj5gJSGjKnzKNUx8WqmwlCqY9ooBy7KpO4+QMIz9a0c0q+kBNzdZqNR7Uvw+rPvPSsScLyYVX0gc3XuZErC+6xhEyilrucioshKCKVERCKpceBlV8E/Hjg+S4edWBqfWV2dWHRERFTsFnlFVIbgz/uTfEE+2ehItWwWhY/8+8K8jZ5Y4L+PX/SuRoQy//lMb//Wf2pylUStxZeFz2gQRET3y3Cp7wb9bBJYvDIO/LKPC41bOA97tBmP60inolF0soQglRU1A3x5d0bVH32IZpPLufQtviSCVyR2fvptdkMoD3SevwZqI3gjysQhSCaLem3fH2PGhsoDsS0L0+L7o2lW5H0KdDVIVkfgyGLqwCtKQDr/eqVjxtCwnIiIqJgo8UFW2bAVUrlYOj8lpkWHlWlaOljCvLwyC/9lv4dpmCJ7813/xpPqvnElE5JSbOLp+CZYssTOU2GwqEkS2g/oQqgx9h8/D+qNaHpVb/e4YPqiYRE4eIsYDs8z13XXwZETuToKar+0RhCGvBqnLUHbuYVb/6ygDN5zaXBER2Xz9hExaiJGtPNRx08VYrJo+BgPVuu+LEW/Nw6rdCUh5hJLlre49q8FRNlXxl7TdgPk/lFfGbqLjiLtsAkpERMVKgTX9c60fDP965eSUUA5V61RGBWUscd9WnHvMGy6XjiPlesn5zeb1hf/B29iIaqO/liWZREZVr2vRducRkbVHu+mfCFStxd4rsri4ce+BKs/0Qc2GNWCQWRMZ15Jwft9aJB/KrpvdXDT98+yDKm26wMvfCxXKu6l/Ibn/uwm3zsXi7OY5MKbaS+swoLT/G/B5NgieHm4ora5kQlpiHM7/3xykJTtoXOceimrde6J2HQ+UkX8xce58nKc3/cvaLCcIE1dNQZuqyoPtT/PQ950YWa7zQMioSRjStj68KsvKNhmRfHIf1n08D5vtBg7yso5Se0374/W/9cBT3h5wE30mKUwpSYjbGYV5H1s0TXTQibM99psh2Tm+OylI2BOFRfM2I8vhyf2JB/++U2LRrF8ERr4YBG8R17tnQsrpGCx6ezH2W9wSevMrbZ3dslQwYPCcNejvr+w3cTP6jlwM2zspSz0o+zD+dhyblk/Dqu8dphMp63VH+KA+CG7gZf5c2K0/IdcdYetNu5Kwue8I7AwZi1EDQuCr3OcqZT8xa8dj3hZ797hBqbPXMbLnU/DWl1fuh6Sjm7Dy/VVW9WarzehURPVIUz6w1RAxuBw+leVZ+IzEksXd1b6LjL8sxvB/bna6KavD+y5mJWat3G9zffR60JrP7e0zEa/3zjwvU0oCYpa9g8W7s+7d46neGNKrM4KU7xSPcrIexP2T9BM2fTQX0YdtKsLyvpttwsh3w9FRWVftT+yeUn8/rcPi2VmbkDq+9xyz3zQ4uyaCtnLT9C/v94PKYMLW6Eto4lYOPy+shl6bZLlDmc0ZU76fh+FTY7J85oiIiApCwWRUuTXDE+3rwadODYtBC1JpaqFOqyfRtuef8bj8OerYc4hRfqERze3EkNm8LrMZnjpEvSzLtYCSmBbBI23+fxDTX85UqPPN607HUstyB+uJslktysO9RX+5jti/9XYtZW7DUZNAuf4/x+GKfiwx4/C6mNVflGUel6AfGxFRYSn9xFw8OXoUGjyRGaQSXKt4o17PF1FJTudPOOqNDkeDFt6oJINUgstjbqhUP1jZ/yJUqSILzQwo0yUSgX8NRrUqMkgluIh1gtC43xsoI4us1JqKJ0YPgW/9zCCVoJ3PaHjVlAWFJhaX0rQx1wqe2ojO0AkRy5cjopt/ZkBHcDPAq0knjJyhzLNtv5aXdRSGTlOwdMZgtBFNtmSwQHDz8EZQn1EYW2Adpfsj7EM7x1fOA76dRmJGNk0gDZ6N0f29pZg+RAaphNJu8GjQHRHvhznZwbMR525kaKPlKsBPGzMzdJqIpf+yqQdlH4bazdB/0lJMcdBe0H/QHKyYMRKdmmQGqQSt/vqgj5zOP094v7kAM0Z1ygxSCcp+Oo1aiIlZrpMBnZTjnj6kTWZQQlDuB+/m/TEx2yaQ9zG8pbg53XB0RzZBKkVQaLBW/6Z4bHrf+SCVVm8O7rt+E7FizmAH90MNNPtgOWa8Yn1ebh6+6B4xB2OzrBSG994LQ6fm3plBKkHcPz5tMPhfCxHRSpbZMHj3xJwVE9FdXFvzPaHUX6vBmDipt1LDJUl+7gfJ6IaVP4jf1u+gxZ9NOX/umoeis+wg3qN1KEY1V0eJiIgKXMEEqmpWg5feD+Mf93D1yiUknpPDiTicuuuBqmJeKU9UzfanoAhS9UfzE9FqczvXNt/iF3N5B9T4WS8fguXoYB0QqtsBrY9o8yJ+Bjq+LINAyrrPVUlEhL7e2ZoYZhkAcrDe8FAxfRup6j4nYLi2tF0iqDQMWhNB1zbR+KVhf3NfVtbKo2MH4H39WK41xixxLNGH8cutmmhtXkc55obArq/+K6eJiApYlXFo8EIjGJSfAhkX43Ds43D88F4X/DAtHLEr1uHsxVtywfy7n5qEpJ3L8Ms8uY/3QvHjiu24dleZ6VID9Tva9HVTdijqPOUBl/spSPpiKn6cJtZRhlmvI25jLK7Yzcz1hudfglBBOZ9bh1bi4Kw+Vudz5vR15VG9kBl6w9dLG025dFwbUSkPlOPCEeKlPEyakhG7ehpG9BXNhgZizPzNSBApCW5eCAkdhcwGbHlZR/DGkBeDIBptpRxehWnDZR85fUfgjfnrEZt4HTK0o1k2RpuvDuuRoBaKztT1sszBNrPD/9Vx6N1AP77JWtMwZT/TVsciWblEbvV7Y9yrDkJVDbpjpHKNcSMBm+eNQN+ufTFhY4LalM+tQTBCnXoA9keAjHKZUs4hTh2TlGsxMbwNPEorZ3NyM+bJehj42jxsPikqzwNB4RPR2/ZBvlUExoX6qwELU3Ic1qvHpp2XqL84e58LqzqchdgbsjxHBjRr5Qs3i/rrO34V4tTIkAfa9B9pFTgw9JqI8NbiyhqRsGVe1vvBIwjhjoItLdLxhLg3TeVx8AutyD5vBPvKJn/xe7HK2XQZ/5F4vY9Wb2p9vzZQrY++w6dh1YFk9boa/Hsrv1vZOzoDfJt4qfWw/yOtvgfOikGS+jH3QlDfNupSVm6ILK1ITHtLXh+1HuQ6pb3Qpp+DvyrW9Ie/cgjG+PWYPFhc1wlYdVgLxRmadkRB9LoVOVq/F5RhdmyhZRzl636w8OmOslATfv3vYoxaQkRE9OAVTKAqw4Tf1RET4nfuwmnLP795+KLtM3VkdtU93LunjtjXvyma4xjeNzen+y86ifF/tkdHq3Jg+FfHgIZNZTBKcfZbc/9Rc/cmIrWCOxqpU1+jU+hMzFXHlfWOXJRjksP1nPUyXm5hGVT6Gl+fuI0aj9vLqrqNXf+1OBblHFLrNsBS23XUekjE19HaJBGVZBXRpPcIjBihDWFDBqFPl7bwr2KRclDkDKjwbDDclZ8A9xI34VDkOKRdkB0/30/CvXPL8Jso00ryaRnOzg/Hhb3rkJ6mdy6dgvvn5uLkTm26dA0/uKpjkmcNlBE/ne6eQ2r8PtzXI0x3j+POoUlI+GQq0mVRJmUbagqYCTfiNyLjrnw8lOeT/Ek4rth8/RccA7xb98eUhYPRTDwVmhKw7zOLsInPEPR5Sn2ER9zK0ZgctR9J6uGlIGHbYoyZFINkMekVhN7dxIgiL+uofOGlvmnShHOxm7BffyubMQnx2yIxeeQITCuQt/l1x5B2IvKhH1+slnmj7Gd/1GSMXh2nBie8mvdEM1Fuz9X9mBc2BotjkpStKNv5aB3i1CCPF7yVn6vZ8WjQCSM/nIpOapZcCn7abP0D03toZ+1aXIzBpNcWm99Ol3IyBotfm4QYcS8YGqFtT7VYMmBwvzbK3pXaS9yM8cMmIFI9NoWsvwlhSpmYLijKvbJ+/DBz/RkPR2PC/P1aXdZuhM7mKIM3hjwn3iYIJG+bhDGLYuzeDwb/tughim21yEA18e9VN3wtbwn7fOEh95mcuF0bcUL3QR3hLZJ69Po+qf0iaDy/H9FTRmOV2hTPDf4dh1gF38xkPUzbqNV3yu55iPpFO1APr8bqv5kiMSZ0BCbMW4/9R+X1UethHt7Ypn2nuHn5wU54S5VyYB6GvhGJ2KvKhDEO0VN3yQBtDXg7yDY0tIrA1q1bsw4Lw+QSRS2f94OlH9yQdEeMmODdWS1x7JcobJfNKlO+j8Ii7a/JREREBa5gAlVXbuDaH2LkBlLKNkPLhhZNAKtVQFlztpUyP7sHBV93uF+7Yg7kWLEtj76CS46CSmKeHFX9c7q5WV5Gt2zaftiu57Ty6Piq3L4yqE0Gqzwu52XDYn8iSKYH3l5v6wOcOGy/HoioRCtdtjyq1m2CDi8OxgtN1YjCA9ATVeqLp0ojzn+3CNn9/aBQ3VdTJtQmfVY/jC4dw02RbVW+Gfz/PhfudZzpQ+lHGC+K7bmh1guR8G7ZWWy2UPn20h9YP8eSSYMRJLKf7iRj9+LxiLR8w9ezjbSH86txWL9Be8izEr8MseryBtRoIsM6eVlHFYvjv2n10GzQUswRzcrUlOYC1i4AdcRT8o1j2GXn+IzrEqCGDLy8bTK+pDtxiPz7NMRYrbobSdfkqJ3fTiyDBWs+HIvuDZQDuGdEfNTULMG3zg21cEjST8uy9pOllBxSn+rd4N0wRCtS9UCA/Fwc37LYznoFL2HLGETa7ujAMZxTAwc14G1uwtYZjWqLf5MQ+7GdI4s/hHMiyOfmjUZ2gi3h3tpnLe3CY9ivjjniB8/K2phJqVvntEGAj7gZTIj/1l59G7F+5zEtoFTdD8FqmbWkbcpnxmbF3Rdz/xuZ8Z7+neKqXF07bsRi5RSbfpWMp3Dd6Sy44iJ/94O1x5CkRr1vo7ry62f2Mt9kOJD9UxERUSEqmECVKQ6/bIzFjwdOIDMp3oRkvfmfHH797juovz9np0q1zCwpS7bl/auhxq1UWDausEsEqTqkmpv+uW4pjD+pX8Ryffv6EOpEsz3Lc4ieiQ3XfPBcf63Z3y972Uk7Ucl2FXvX2rzl77+rsW5rLM7dFPPd4NWqK4Lc1YWLlvKwWFF9irsEY1G8Ml102N57BZ6M2IaW72zD0/rQ3UEA6n4Uzq7Zhet3Rf9SjeA/dBFavr0O/v2nolItu/kYCiNurV+EkyJYVdYDtbq8jpbK/pqNWASvgM5wKZifdtm7GovFrw3DLOvoC5pVkT02pl1CrDZmw4hjydo6Fcppza7yso7GiOhJi7FbbXvnAf9uY7Fg1VZ8vnwBprzSKbM/qPxq6AV1r5WDMFbPLrEaeiPb8KLJhOt2nnL1ZlPZdyAtGROw/v2heGO17YN6G9SQwTnvnp/bObatagfZWbTzg4g1is9Fwha15AG5LqpH4YqKsikp2tWA1uuZN7p/nvV8tm7VOt92SE/gvKf/5dCR67ilBsmU26e0szdLHXiqi2bg5gUHoYuYJO0Pc26uFv2XZnI+KKYRnd2P/WA5Pl9nUw9OvBggp19D7XH41r/RD+idf/m9H2zclVmr1Ws8sD9bEBERWSm4X92v/w/Jx85A/BFcozyE1amm/AJdAV64iF93fIPE0zn0efKvk4iv0BhvW3SgHiPGs5QDS59v7FTW0euPK0+BFtlYS58o6N50/4vvbfu90mXpJL08Oj6vL/ccYl62PofhR1LR/Pn2aH4tFp3Y7I/o4ZNxG1eTfsbXX3yPZPFg4OKOGk4kXxa4x+zmGhQOtYNz2WF72Vz80LkwEydmj0Pczjhcu6Y8Wj5mgHvDIDR+ZRmaD34drvY2dH87rkWGInbVdiRdSFH7Yirn5Yt6PV/HU28sg2f1gorSaMQbucTD6sB3ZL9CVYMwcmbWDowNZXJf33lZx8wYg1nDBmLCRzGIO58Ck/LsaVDqIajPWCxZtQRjWxdAPRRF4M+GHizoO3weYs4r94TBF73HzUBYlm6w3OzfHzlxdZCF88Bk4KaeYZbPY6vs5mwPbZdglL/Ieda0l/tkTwW4FmHFaS8LkJ3dW75s+lFS7O5VIiKiglXwv2reNVkEq+7hVsodpN51tlPe/+LJNt/ikvqmPdGMrgMe/01kFtmWr0Sva9GoZtFnlSNzR2/EriodzOu1RsFnVA0Pjbbah+1bBzPdxq5rDeQy/dHx2rfW5/Cvk7hUtyYuHWEn6kQPNVMyrt6W4w/CxXOyyYYBroWa0ZXZwfn9tATErxglO1OXw2atZxiH7sfhzt5xOLmoJ36cMQm/7kyAUXneLuPTGfXaOOr5yIh7iXNx4eNQHJymDGu3IzlN+WFX3ht+PUebE0sKUspP0ZgwdbPWkbPowPjt7toMaf+l69qIwdNBf00GNPbSgke3UrQ6ycs61oyI2zgPE4YPxAs9BmLyshitg+Vy3ug0fJTjfqOclXBdu4duxGKWZYZJlsHZV/I7z3g+BvNeX6x1Wu7mi95vWHc6btmEUA8mOhr6TtmtLSjslFk/qADPB/k2M4Pe/O4WjGov1wrzsSVgvZ3zyBz6YrKdPshu3JG/7pVW+2nIxn6cEtl4CkOjjrC+kx3Rm85ZZIDZ6uSNGuLfO7cg7+w8ynxZgMio2zx/jNaJvz5syOE75WGRz/vBkcuXHmTfiURERJkKPlB1bhf+L/obfLf3V/x44AjOHfkOP+07J2c6QwSlMpvQ6R2d25ZbBnjmjv67TVM7saz+pr6v0amTxfZCJ5iXzX49bX7mfsS8v5szncRbATPnWe/DVV8ueiaq2b4xcK+yf305u80DL+J78zkT0UOpegPUUdu/3EbaA+kb5UekXRb/1kDt9gX3sv2suqCy2o8KcG1vBFLP2TxE5iazyxQL495ROPGzFmJzr91S/Td7Kcg4NRdnPtfevOVSow4KNqfKQvxiRB7QOpA2NO+BkZZ9vfyUlNnxub33xbcahSB1+RQkHJAdzudlHYdSELthHsYsk28gc9RvlJkr3HJqNrTzuBaYq+yHtuZ+lIqQyBrbGq8146rdESOtOpQHYs+ptQfvRoNzcc1jZV89Xgjql/Pb0gqL/yvBWrPJG+fwo7mzav3YvNF4UO6PbFvyY+q/lWr97rCTcd2m2NNavRqaIXRyJyfqYbe5X7T67UYi63seDejfRev423T2OJzvot0evW8mIGnHeCzelqDc3Zk83B6VPKP83Q/Wfod3FfFveVzOsSm4N/rP0JrTrpnkzL1BRESUNwUfqBLuXMKNk3FIPnYMN27Izg4oR68vDEKNn7+zDmwR0UOjdPmqqNP8OQx4vglEN+qm87GILbQ30WUnDimHkiAaA5ULCMeT/V+HoYqek+IBlzrheDxsJtSX6OXLOegJte5PDIfWms0Alyp9UKX/OrTs4qC/qaZz8cRLU+HuF4zSZfVHIbFeKKrW16bTkn9U/80Ujrqjl8GrZR+UqWSx3bLBqBDoB7WF0FU9k6xwxM7fhHj1Cd8bHcMtclF+iULseTFiQNDIhZgS2kb2FeWBoF4RWBIRor1p7uQurDwgyhV5WUcVhjlrlmDKqN5o08Tb/CBpqN0G/Z/x06aTkxz0e6U//Lqh2YvT0b915vpZbcLeeFGbHmgzYTmmv9IJ/rXl0gZv+Hfpj4gPlmPJBMvOyguWcXUU9qvHa0Cz562zquI2Kr+DKP+6+ffHig/Honc7X+VINR4N2qD3qClYsmaOUluW4hD1kxb0MzQN09Yz14EHfLuEYXrkdJt18sezhkW9VfVFp1ELMLWLemWRsDMSmflecdj4i3pG8A9dgQVjlevbwHxG8G3XGyMnL8GaOfaPLumHMlCTs2qa8ILji6oyRi1FTKJ6I8Oj1VibejDAu0knhNnsK3rHcfWz5ebTHVM/HIlO8tgMtZVlP1iKwf7iwy/ezrgqn5/Bc+aOz71ahCNE7YtMvHWzN8Z++DnWdHPwnfLQyd/9YKVFBhqIwLTJDUdziiI2D0XnpvIT0ToUox5k5iERET3USgUGBv5xsPtKPBYzSxZR4XgZv+4Pwm/zM7OyzERfVq82hvutY4joNJNv+6OHzu+dIlBneVc59ajwR48RHeCoVzzTxe+xYcthpDrbdUyBa4QKL05D48YGB3+xSMCx90YhTU4JlV7ahsb15YQjqbH4Zf4kpMvJMn+OQrM2Hnb3cT/ViHR3A8rZrIMWixx3tK64fz0WcYuV5a3qLhz13umjBm/sup+CM8vDkOyos+dcCFu4Fb2VehDNymw7/fZ/dTnmqIGGJGweOQKL9QwF/zAs+Fdv+DrqU+fqfsyzfQteXtaBsk62HZmnIHbecEy26fBd5/3KAizo42u3/5ss52vohClLxyJIfz62Q/QrZdW8LnyB1uG1aDIYOtkiEONYyOTP1c7Ps2xLYeg1HSvCRbaOEXGL+mKCRSfo/sq+Zij7cpxjI5pN2TZN9MfgOVPR399RNCfrOvr9kC2r8w3BlKjsO7tOORyJqePX27xBz1/Z1wxlX9lkDZ1e76CD7/tY8cl5dKxWGkmbaqLtwhw6VVeu7cT/jEWb7N4YabUvAzpNWoqxrR3dDCbl/hmv3D+WZ5RZD/Y+S+Z7xeacQiatQYSj/dwwwljZAIPt/ZXtfacfhxGxs62bymV379mX0+dPY7u93N9DQn7uh0z9/nkds9rfAuJroO1rbtrbOh1pHoHl/9KC5EAydv9zGGaZs/6IiIgKTuFkVJEd1k0HrahNBIfAlUEqoodbhgmp54/i2w3LsXzTgwxSCcdx64vBOPjZPvyWbESGfizKv+nXkpDw2VKrIFVepX8zEr/uTEKalqChyki7hAvb5uKnhdvs7+PQUnMn6ubjUqjr7VyEg1mCVMJanJOdqKdb7Ou+yYjUI9sRt7BgglQ5iZ+/Uus7yTarKj4SY0bMwuajyTBaHB+MyYiPWYwJWQJOirysgyhE6p2oW66j1EPy0RgsHu84SCUkfTwek1fuR1KK5coOGGMwefgELI6JR/INi+XvmWBKSUJcTCRmLXLm4T7vjBsWY/tpse+sWVXxy8Zg2Kz1iE3UOpQ3u6PUxclYrJ83S6ktW/FY9cZQTFDqIEH5XFiuJ85p/8pIO+sUEKXejMnxiPloAoZnCVIJ8YgcPQyz1sVmuT6mG8lIOLAe82Y4OjoXLP1B5Ejeg/fTd9BPK3RMubbTBg8078uqHu6kICnLvoyImTpcrTerY1POKSVRqetZw2yCVHm3e+po5Z5LguVuxPnHb5mHEWHbZd9Nj4L83A+S4Xf0DxRpr+Xw8zc5BKmEX6Kw/bD2/ZHyfRQWMUhFRESFhBlVRFToHs2MKiIie3LIJCosht+xYfVFtDC4IekrL7RdnENWFT30+o1PwayON4HTXgj9exnsl+VEREQPmjlQRURUmBioIiISHlCgSuE9IA07hqSijKkSvnrLHa8WTJITlUDenY3Y+sY1VFL+2/aaO0bwXiAiomJEDVSlpd2Uk0REhSM9/a4cIyJ6lD24QJUQPuUaJj5tBFKqYNorBixz3BKUHlb+6djxQTL83Mrg1PrqeHYJs+uIiKh4YR9VRERERI+IZZM98enpMoDHNby18A4Gy3J6VNxD1LtX4edWGmk/VMFQBqmIiKgYYqCKiIiI6JFRChFvVsO2RAOSfiiLVbKUHhWlsfN/5XAl1gv9Jz+WcwfqREREDwCb/hFRkWDTPyIiIiIiIsoJM6qIiIiIiIiIiKhYKJxAlcEbrvXao1z1GnBh03ciIiIiIiIiInJCwTb9M7SGZ59eqOFVPjMC9kcarnw9H8lHL8mCwjIQ06O6AVsHYMJqWURExQab/hUP9evXx+nTp+UUERERERFR8VJwGVWlmsAzdCBqyiDV/d8zcO8PUV4OpUtnqIsUrjWYEMogFRERERERERFRSVVggSqXwO6o4aGN3z4UiWNzX8fxf09DwpeRuHj4mlJaHi6V2BSQiIiIiIiIiIjsK6Cmf66o2G8u6tZRRjNO4PSH83H7D6X02fdR7crbuHhYLNMFNd9qj7ur3sb1ZDHtiNaEz0cdT8SWrUC3JkcROn4N0C4CkYOA5cNnYZ86Pxjjlg4FVodj5h6xXghSF4txdaYFsdwoBFTUpowHFyFsto+2/NaTaNA1AAYx4+YhLNS3LfY10h27xf67akeDs1u04yCiXGPTv+KBTf+IiIiIiKg4K6CMqnpwdZejd24gQwSp2k5E/aaV4P7MLHi1H4L6b3WHJyqh5uCFqNlULpuFCChp/UyFhorhKJroQaI804JUDU4sktvcgpNyDmBAQDtguVo+AFuuB2D0jIFynuCjBcnU+YtwyLMbIt8MlvOIiIiIiIiIiKggFVCg6g7up8tRKWPvNJw+nIbUnRFI3rMBZ5fsQCrSkPzlTFw6LheyNagbAnAIm839TK3BhK2JcjyP2gWjgbLN5bO1HCyxzZnmcSMOrdazs4BPthyCsW4TvCSn1YwucwbVPszckwhDw2AwVEVEREREREREVPAKKFCVhDu/3dZGK/0JlWu6qqMZ++Yj+YQy/kca7qX9hGs7diA1KQn3s+tb/foFc+CoQPi4w+DsNvdcwBU5aldiKoxylIiIiIiIiIiIClaBdaaeHvsTboq3/KESagyYgtq9XkXNHn+H3+gp8FQDV0m48/MOZOTUTY1nLauMpWCvanIsH2y26VC7Wqh2MxVn5GQWuQl6ERERFZRnIrB83VZs3follr8ZIgupwNV4Amv+MQBfKsPnPby0sifbqdNiWBJUWit7QIa9qB3Hl//ohDcqiZJKmBQuy0a2wPPqUg9IMa+7olcafZ/rrp1/eAv0LSOL7bGoJ8thzpNy/oNmeR2Dy6pF7Z+R5/aP3phaVy16YHL9udDPJ/wJtJdFhe8B3g8P5HxLlmL93Wp5LGNaoa9a5o056vEqwwBf1FbLSgjzz4p2GCaLnPOQ1QPlqMACVbi+ARd/uAQ1WapUJbj7NYSnTxW4KuPV/twdWo5VDlYfRWLFAHQfJKcxEN0D1W7ONSLjqWIDtG2nTQa/OdTcQbo10S/VWkwX25HbHGbuW2ogxpnHDQjopvdJpawzKAA4sc8iEOWDEIv1pnf1QeJRdqZORERAUPh0LFnzJdZMdj5wlJd1hJB2QfAqJ8bc4BXYEQxVFZLb6bglR03GO3Isk/HuPTn2YNxKN8mxO0hJk6O6DBNS5OgDUczrrujVROvG6hOv8nzlj9YNtdESSbnv9MYQxjTbvzibYLLp/qOoFevPhdlDdD8IZarijRc6Yc1rwbkMNhRPxfseMsGoH95dI7K8k8xkwnk5+nBjPTxqCi5QpfwIE/1S/W/lZ7hw+ARSr9/GnctJSN4xH/9btcH8Ay57azBh8SFU67oWUVFiaIKjVn1UrcHmg0DASG3+MOzGoRxfWKhsM3QLrgSOktvsBvdkPRRlxKGrTWT5KARc34Iwc/9VQiJOYqh5vWoHF2GCuf8sIiInuVREzeYd8EK/YRgWNgIjRsihm79cgEqiZs2awdvDDW5y2hl5WUfYvScWyeqzvwnJB3cpP/2oUCgP4Vma+F9JKTbN/pONtkGCNJwvHk/hxb7uit5FfH9MPvGmxeP7E9qoXb/uwQv/XiuHzTho+6D8oKUZlW8ea99duSHHHrxi/bkwe4juB8GjBgJ9q8LwWAE+Sj5AxfseuouULF+kN7IG1B56rIdHTcF/u1z+Dinb5+P8xxFIWDkTV37O7pvYjj2zECbfwhca+jbOeFWD8WpmsGrf7HA5bwDCZq/BzOHhmLlHzBEBKX18n1I+wCKoJObp27QsVxx421weau44PdMFq/2x0R8R5U7pmkHoM2gAerT0h5e7G9wetdYvVDB2zsKwPl3RtesLGDabYaqicOum7W/Et5ByVY4+aHeMuC5HzW7cxEE5+qAV67orMvfw+debtWDDsp/x+QPOOioYd2HM8lB4A5cvy9EHrVh/Lh7G++EhVMy/W2G8g9NyVGdMKT5B4yLDengkFO8weLsIDAsETh5ggIiISqBqrdGvWwtULQuYrp9C7NZ1WL18CZYskcOWeLkgERUPd8TvvypzUzVzk7b7gNoX54Nz+qZsXGfRFMXcZOX+/QecvVS8647yIeWOvI4WzfwsmgOalMv7IBXvzwWVBMX9Hrp+U2Z8mZu3WTSDe4S+W1kPj5ZSgYGBf6Sl5dh+rogMxPSobvCRU0LiVpsMqAIj9hWC1MV6FpaNdhGIHOmO3aFv4xNZRER5l55um1b9sCuPpr0GoXV14OaRL7F2X5bW9A9E/fr1cfq07d+hHh6Gpv3x+t964ClvD3P2miklCXE7ozDv4932+5moGoKR44agYwMvGGSbPFNKAnavXYR5VsHEMCzY2hu+cipbp9ej6+hIZSQv60jPTMHnbwbBoqdGlfHALPSd4iCrKnwBtvby1ZaZbcLId8PR0V85L1EX94xI+mkdFs+ORpyd37oNrQcjYlBnNLOoO1sJG7pizDI5ofJAyKhJGNK2Prwqy8pT9pMcvw/rVi/D5sMl7RFRdNbaHYGVlMsRsxZv/CrKRGet7VAfaTi4ZjOmXlIXtOZSFn3bBKFbQE24l5GVl56C88fi8Mnui/jB7oN8abRv3gIDg+rCq6Ksu99vIfnkUXy5NwFf22vOIDpF7uQNpB3GnGVH8J1SJDq1fqO5csBn9+CFL5K05R6IPNadoNTfc0FP4oVmFnVhUurv6BF8tjcJ3+kPImZ26s6UhuSE4/jyW6XuLG870XHvwKYwKPUzcF9ZzHy+BWorHypjwn6892USvIOfxYiWXnDFXZz+ZrNy3HJn+npJ+zDws9/QvlVz9Avy0a7v/XtITfoZn248ia9tjk10yvx8ls7Fk/DVv/dguZzKnr16dOxJP3+MaNcYtd3Lan9+Vurh/P9+xiff2Lvv9G3L43GrgBFd2+HP9TzgKtY1XsTB/9uPqQm2FW7nOur1k6tzKyS5/Vzoy4t5669on93mymdXfPHdv4vkoz9goVJ/v1rWn519ZNLrNet9XtT3g3u1upjw3JOoX6WSdk2VezXjd8BVnJvdY3eeuU5zZFEPZepi4chg1HYx4X+bvsA4ew1tyvhiyehW8FJ+Qv+w/GvMUFOaMu/Vr+fuwe7HfTGiUzPU1+/z1CR8E7MfC5Ps932Xu8+Folh/t9o/Fv3eMv6yGQN3Zv2B4e5eFS+1fAJP+VWFezn9Z8xdpF44hi0x8fjcdhWL70qxD3EvvdM9CPU9lXWV+8j421F8tukIvnLwY929mjfGdHgCTWsp3yePKQVinWun8f2uX7E8yaJpuL6fm0ewcOlRmJo/hZfbKt+t6ufPhNQzsfho41m71ykv9UAlVzELVBHRw+qRC1RVa4sBvZugYqryMPNpLFJl8YP2MAeqDJ2mYOnYIHjIaWtGxM7ui8k75aTOPwwL/tUbvmpH5bZMSNgwHmOW6cGqkhOowsV4xFf2h7/tygrj4UgMHb/e6i/E2dddJutAlT/CFs5A7/ryF2BbtufzsDLUxMyBIfiT3Ze7KG4m4PM1B7DG6pd7N+WX657KL9cO6q4YPBgVmRzqL8vDuUslvBHaCe1rOKi79GR8t24H5vwmp80Bp3j86umPJ82fiRQc3HsdTdv6Zr7wx5SANQsO4HMxrq+XdhIHU+oi0N61SlUeaj+2fvAvysDEn9s/h9FBDj61yrEtXH4E31g97OnbVs79y2PweC4Y9W3fPnc/BT9EfY0ZjoKKDwM9KJF0BD8YGuFpTxlctpCRsBuvf3kxs3PmEhCoyvZ+EB5EoEox8PkX0dfPDRmndmPoVxezZCfVDgrBwvY1gQv7MDr6rKzzzDr99Zcb8G/unfXFXA7u1dx/Lh5GenDZgfvK9+RK5XvSsp2j/p2n1NHygx546Vk7dW7nO0/4swj4Py0C/nbY3neW361XvBHoq71J1FJG0j5M/Ows/ien6dHEQBURFYlHLVBVMagfBrRwx824T7H2h+ISpnqYA1XeGLl0CbrXVh4/D6/CooWbsP+88uuwwRv+7TojtGcQMr4YgWlWgSp/jI2cg07K78em5FhEL5qH6J9SYKjdBj1eCUf/Vl5wQzJi3hiGeXZaaYYt3Ireym+B2QaObORlHZ1T6+qBKskYvx6z3o9E7J1m6D8pAoObil/eE7C+6xhkhpCCMHHVFLSpqtTD+Rgs/mAlYk6mwKNBJwx5ayQ61VYe0JN3Y/KwWYiVa6i6Tcfno5rBYEpCzEezsHJbgpqx5tGgDTp2exF9ahzDwPH5DVQ5G+hzEIgsdG4Y8deeeM5bqaObZ/H1llh8esGEVJfSeNqvEYZ1agqvMsov3Sd2YOim5MwHNO8WWPNXfxjSL+KbDfvxiVhHKXY3VECHJxqhl+cFDP36orbsQ60s3hjSG+2Ve08EmH7dHYslx9JwXnmIrF3RA39p3QL1z+/ApGPa0sKfn+2O0QHKw7Ky/MGYA1h+6payfGnUr1Ubo7sFo74IeF2NxdSVykOQWEF/KFIfTJX6/ngPUjr2Uh+cRYvEDOXh+L0v72PYKOWhzsVexpAm49JhfLblOD5PvYcn/VrgHz384e4CnN/9KUYfdPBGQ/M2Cj4wYajbAktfVO6h+7dwevduzIkT9WZdD8YjMRi+/apFYCBz2+LcRZ9TyXH7sHSvUpfwwKRBzyHQXbtf+yr360NLDzpJxoR9WP71WXyTXhrtW7XDmLY1lQfuW/j1s42YpMeL8xioslKY90PDVljRwxeu9+/ifOx3+CT2Kn5IV8rLuKF16xCMDlQ+ZPkMVFnJzbko9+rnyr3qakrA54sOYI1VkCjzO8D6/CzuVUH9vO/DghN3kVHJC+P7PosnlXvVOriV18/Fw8gbc8J9YTx8BFuOpeDXm/eU8xX14IM3erVCbflzyepzbvldKbLQ7ih1/o1W5/BuinkvPqF852XNjDPfe8q4MeEAPtudiK+U70m4ueHpWt74a6ArvvwiPmugSk5mfrcCgc3bYPwzIkB2Fd8ti8EcJkg90sRtSEREBcyrivgNSnl2NZVHi/YvoN+wsMy3/b08CC+091Mfcqig+MJLzcgw4VysDFIJxiTEb4vE5JG2QSpFtyEIrqn8a4zD/7N3L3BRlfn/wD9BjJdBZAgbQ8YLeMErKZKGl9BcVPIWal4oi01l10sZ25ruSq7h/jR2l9z18l+UfpSFWiqZmhY/NfOWRmp4JRXSQHPSBJERGYL+5zYwDDPcHGDUz/v1Oq8555lz5vLMOWfmfOd5vs/aWQulIJXIkH0IGxbNwtoTYvcXLfxH+Uvl95qcI8vwUlQChOsV6T1uiPkSGdI9LaEbLM3Ieg6CrxgoEC44Ul5bJgWpRDnnU7DstRShVKDtjH7m/fJFXq7yD83rZ/G5EqQS5Zw/hORlUXYIUt0DdN0wUAxSlVzBrqSDiFcCTigpxuFzpxC1LV26GHJp3xnPm7dccVfLdZeThf8zbSPINeTj0yOpD0iQSrjA6eyPJ8V9z5iFnYm7EX1KDlKJsm/lIDGlfJBK7EY0pod45ZqPk9t2I+acGKQS7yhG5uVLiEo6Ar247NkZY8riEDLhfGtIO4YVecXIMuU5ccoRLsQu4aTxJnKUFDXWFF3ajwVJp6QglejkhWNYnirv8d7tvEovuOqPM55/UrgYF+b0Bz5H1HFTvZnVg7Ck7uiLULHYKrmrY+Qe4WJUPNUZcxD3jRyVcXm0BfpKc/e/3OPbMX2LGKQSl4qx78hebLkgVogrfDqYoiSOrjEin5QDBfpvdmDWATlIJTIUGrHrFyV5XEO59APSxROhyhcBXeWiUh5t0UM6B2Tg6Gm5qILCLHwqnB9izt2RzpWGPD2iPzkmnzcfa43flf6Wssdxcb/IQtSavYg+IuwLUpBKJNZDBt44UMVxLgWpLuHT98vqPDfrBL6SNlNB29JVnFE0xux+SpDqO/FYypCDVCKjEYd/yECUeZDKQtGlg3hrvencWoyjx9NwQgpOecK7QktEetDwMomIqA48rPQk8AocicDOWrnvvYlLU+G6/2lMeK4/tDwL20kqzv4kXlyo4P/CasTNDFGCL7YF9Wot/aA1nP0SyRX+WjUgOUP+MadtHSjd3lNupuL9RSnl/zE2XMCNmg6K00Il1KgNJ7KkH/3wCkHMqgWY+KSuDi7YEzA7VBztsKqpIVpTAX3baaX3XJR5DokV9iGhyi9dQLrYaN3JEz7mP7ovX5UDKi374M3n/DDew7kO6s7xhbaXu5YYvj+FeCv1V4GvN7zFc+aNc9hySS4qx5CBY5fFGVc82tqyO8kVfH2w/N/zRRfSsLzCEF+WsrBjU1aFLihHs/RyMnFNcwRIJfVJi06PibdZOCZFmSwYriFbfKuqFvBrKRdZ0h8yy8elMFzLkc8ZQh3bPO7vJ3kn8L978sqfJwVfXZGHqFR7NJduHZ6TFj7S990VnPzWEVuv52DLKTmw69Op/PdEQJd2EP/WM3x/zqKlVZnMr/ZXPL/euI4sMf7m1Bzej8pF9jguHgQGUwNQm8e5HrveP1ihzjNuyOdPl4fNfri66dDOQ7gtuYJ9ByoeS5XLwq7kS+VzwSEP2aZ/veiBx0skIqK6dCcXF77Zic0fJMgj/a1JxJavfsAt8Yu5eVcEB0jNgOiuGbAhehX26oUfpyoN/J6Zg+Vrd2Bj4nIsejkEOitRgC6ecg4Lde852LFjR8XJrAvdvcjKz3Trjp/BVenXpQ4h78xBSAe5XjS9wzD3L8HCT3/B9QwcvCgVlzkSi7fXyy2G1G2DMCU6Hhu3JCH+73MQ1ruSPCn3EV1zeccy3sq38QNd+NEtBUJUcDFvUXXjPOI+z4BBOA+odb0QHjEBSbOHY0WIL0a7V8yXc39yhe+j8mWS/qfqXZl01ygH8i2DzeHiz16XL6ZcG1leghXDYBqxTmH7c6uGQqN8jDVWy8dIffL0gIf0C16H4a9NxpY/WU5mXaZsMNy2coa4egrh/1qHMfbqHnaPyjaNWqlujO7ynGN7tBmkM+6tG0i32McdxdHUc/IfGzpfs9aljfE76fsmByeVFs3VJxx/UqS4MVxN+7odjov7idpNg1mhIUiaNaF8PZh1e7XOCIOVE+O+PdsxRjg/lEtY7v2ofP7Lv46ztdj3GnrEUHJsDFQREdWhK998hN3Hf8T128oP3xIj9Okp2JEmd/Zxf7SVdEt2YEhBbEQ45v83BWnZOTAKVa7W+iJw7BzEr43HnCctolUPSjygStsR+7ncKVDlHYI5/06SAnVJb01FsJifSriISP3wnfL5qRTpH0Rh/JRYJB/JgF78YavSQNczBFPfSkLS38PgJ692F8QcVVaCiBWmjVhk3p2xnrg6177dyfdnjyB85VZ8evySUHfCzirUnXf3Poh4eRzeC/FEJ2W9+5eTPCpZDaidHfCgLSwo7fZabx6G1BKN6liBEfdURsffSqr/B0V9K7wot3Z08kL3bspx3LI9uoutcS6fwYdVtmy0xYh8U6plHhel1I91w8qXh2NIZ0+oTSPR1gVnhhKo7nDvIiKqA3n58s/Fpq7WW0zl3rotzzRtBrapsicD0rYuw/zp4RgzMhwL16QgQwygNNEhZPpMmGebunBN/stQTE5uvTuZMt3vI9epwzB3mK/we1+PjItygE9SbETOxUNYO286FqZU0u7k+l4kLJqNiPGhGD99GZKP66WLJU3PKZg+QV7lfpWRJ/+zrFJbHTZS4AZv8UIMd2Aw+xO6lDEfiXsOIvK/HyF8xXZ8elLsTuYM9+7B+P293aCvGsq6eKjdKo76ZM1hUyKpSlq6dPaUm0zk36pkn7UDdQuN3IWpsEBuKVKfrt5UnlNMZL1OauVgfaoksTfZNLCF3OWvqMBsSP2qPKTcNoRfhdcq3ro2tzrwRKemtQ+o208xPkzLkF6nd6e28BZuh/fwEY4hI75PK0uGXm1OzaGRUiUJn5HpQ+JxoXDG80/1kPOgioN8bNiEl8zff4qc1sAuTN2FG6JlKd33GKgiIqoDV36Wc1y46zqgqTRXntejcrL14tzr4LirdSUHqZ8sw+w1qfIPKa0O5tmm9p7LkgIqat/+5cqrTQnouDSRIhHVU5tt6ph68iD4C1fchhPrMXuGGOBTAnQjxyB8xmJsOFH9C35DdgoS/joLKVI3QRW0HYOk8tpz7BxV+7KvSRdeLm07ItKiwZ5I3bEzeoiRaONlpFdxbWAozJOSh+8yJaxtZZ6w1g7UIViwVm6BtvEfU+zQ2u3uffuTfJ7Udu+C0dX5RXrpqnwh6tkJY6RcNBY8OqCX1Eg1Bz9kmCKudUGFiO5y9xlDlh42BmKrQ9eQLVWdFn6dpQIH5oep/94i7XdbEuYixMpx4lCcPPG7jmKw04jMC2YhyEKjHAxyUaF8x2ZhXxgzBA3ai//6NYi93qVcVRYJqMWWNfOD6iCEYAqOwRlq827NlTCczUC6mFfqsY543kODIB/hHGfMwrdn5ftrolOAL3zEc0beFXxb+idAAx0XDnduNeXqArK/MRvkQ+FuSqJqD1eFOhf3PZUvhgQ6QkCU7id1E6hS6+DSbiCaPNoSTg35DwMRUUP5/ix+EH/FtQjEmN/5QWv6/nZphtZPjMFQPzF8dQvp3/0gl9Ndmoq4pHgsmhmGoK5lyVrV3kGYOLi9vKzPKt99besBnBVjMJ5B+GviEkwd5leay0rt7YeQSXMRlxiPBTa6lKVeli9iVD3GYsmkIKt5sCzVZpu61l7+Wxpq30GYOMAf/j19LS7ErAueH4/Ef8zFxGH+ZonrNfAdNg3+4miKwoWe/sIhqfS+de6cMpqVDsPD+yGylUpKDAwnZwzpFoiVz8ijIeWmnS2XKHhg/2DEh/phfKvG8Cn9bS8OHe6L7lJiYKHurlYyDF1tTB6JIOVzUncNw/QXGn7nO/nt9/KoXGo/RLzcB7PaucrJ0gXuag0iQp5GTBd5WZKXqSRLd0PA2KcR3dG0vjMC2vlhxcRAaYCKooy0u+hKZKkJtMLnav66IscMwxDxQlC4yN5lkaC9ftzBZ2fEkSFV6DRsFOL6eKKv2nTxKexHLTwROXgA3hspHYgNa/AkDO0g7+Qqr2C8+IoDDU7hokEPs8/W20OL6EnB6C4eGrnp+Mw8gHL1BqRdqokPQvu6Sse5upEbZj03AqN9q9cisO7oceJHMVrQGN2H9MJ4Mc+deA7q2QerJ/aQz0n2ZgqOwQtPPeuLIaX7X2Wu49AF8bymQfcRgfAT6llMor5RvtMmj0c06GQKhqlUwvvqhzf7i/u2EZmHz5rlU2ug48Lhzq35yFH+X9L6+WKg8h3j7eGJWWNG4L3B9nz/euz9Xv6u0vYfgfgQXdm+IOyDfdv5Im6cHwbKJUQ18lBAQMBveXl2+j9f/SQ8xj6LltqmZRGw3/Jwbed/oD9dj20sB8xFwowOOL9qGt7er5QRUYMqLHTEkWjqVtPOIzFhoJfwk8kaI64f24HNqWb/2NYDHx8fZGbeU1k3qknMZRRmtduDLAepyyp2YVOHLMLqOYGVBGYMSP2njdY6bYXnXCY8p7UPODPZepfBGmwTvHAj5vap6gdvBpJDZ6N0q2nL5STwN1MRO2kh9irFsmAsWj8Xgc0t3pPfDMT/YwR0tq4zjAboz3+J999ehb1yAxhJVa/PKLyfecL7SVeW71dSLhDxYrD0h095RRn7sWBL+VHjBg4egaietrP6Fl0StrEy0txdGbwASa8Hle7rYpfX8YvK7yENoVPnPnhzmC/UNuovM2UdosybLKl1iHtxAHxs9ba8cQIr3j+FXabAYMtuSArvAbXUHWg/EoUiU/0bjm9XEgO7IXqamGg5D0eTlG5BpdvZUJKDk1t3IzpDulpXCK/tT8JrU5ZsKXteWcS4yRhd1VDseScQVy7JuUrYbpSwnfVvGImwH40R9qMypvdppV7riuU5z9a5sT51H1B5QunCK9i1YS9WmJ3vxEBHxJhnMdrayVvY504W9ED3Vmb7j6Qe9wePDoh/UQ7UliPsp4c3nMGjk/vBp8I+dHcGDhyOqEBr356W9WDGww/vRfRSgmfCa0vciaVWg8pl+6otuadSsOSL6xbnydocF3fJAc+ttj8bQV4eDG5uUFvuD1bOldXi5IaoSSEY2NJGndfweUz7f72do8hh2fhZUAsPdYXHpHB4KUGqkl+LUPybWN4Ezs5y49B6sz8WUycxSEVEDev22W1Yu+kALvxyG8Wmi6aSYtz+5QIObFpb70Gq+9t6JJiSqJtfN4pBltMpWGUjz5IhZSGmz1uFlNN6GMptZ0ROdhpS1sRima0uZRcTMO/NtThkntepKrXZpq6l78GXUrMgQbERxgJhMn9tKjW0XUdg7r8Xleu2s3flSjmJ+k3zihOqLicLqZtjEfEABKlEhp9OYea7u3H4Ug6KflUKUYyiG1k4+sVWTLMIUon2HdgrJ1G/dUc4JyiFwrmhdBt7B6lEe97B+99WPAYamphUfrpYfxnXhWPQbMcrzEH2kd1IPK0smxiyEJWwFTvPWqxvEC5YD+xEtHmQyl7MH8+YB73wmuPfFZ6rXJCqvhmRuOkTxH1xAtk3LPajW9eReXw/Vmyz48V4bQnnvJWfy92sHcb3x5F0JF2qt7JjViDuc0K9xa22DFKJipG49XPszBCOc1Nd/5on7aPiPpdp/jgN4cZ5RH1wEJk3lJoW9gPD5RNIEvbTpT/Z+4CQ7duXgrg954XzWA0+XeF1fvuTaf4H/F91Wj6av/wSIwzXzmPXx8mYWSFIJWqA48IBz63iZxN/IAu5pedI+f1/v2c7Zr2bpuTyspOSPMQlCXW+Rz6myupc/qx2bjFv9UZUfXZrUeXU+w34DdJJQarb3yUg8/++Ex69JZq0fwQF58VfGU3h5OYG3LqKEjGARUQPlAexRZUjun9bVFFtBUcnYe6TGiAnFateXYjt5S7QNAicNBdzX/CHmPQ2/YMxiFqv3EX3nrFLsOVlf6j4WVattq0LqCK/OUiMC5GSLev3zkdEbJpcTg+gxpgXEYa+HkD23o8w66itf2waoPXf3eC5lcju7NSiygVqXzlIhaJzuLrrO7l08CvQNDH9FTYQLSNfgbuUe8GWcCxZvwZvvP4/WL9+nTQteUEofsFi2UTs4qeUl7tPKv8fPC8tKI/5gtm6S8Ole6zp9/qa0sdbv3ou+gllzy9dh4TXw/HGaqVcfLwB8vqlz2X2Git7fCIiIscRjEFd5O4BWYeWWQSpRDlI3Zol52YRfoK7WBsZgByfWge/YTOwfKJ4ISXI+RZbeSFFdU4D3wETseiNYHlEMGMGDn7MINWDrFNgXylIBUM6PrMZpLqH8NxKVGfsFKhqBxdTpr6Cmyj6DXDpvwA+PdzgPjgW2oEvwufPI+ABN3hNWQGvHsq6VqnxuOdpTJo0GZN2XETb0HVY39V82RSAAvr1ccf5VUK5lfvKEx5zAJAorjfpM1xs80z5gJdCDFLN6ngeK6T1JuOzc8odAnVAMPCB6bmu4fEZ5s/VFs+YXuOklfjO4xkkvC6GuIiIiByZsbQbiy74LcwwSygvJ0afiiUrQiBlcxEuMtN2S3fQvUTMW7YxHnGvjICv+NkWZCA5ZrFF/jIiOxu8CBt3JGH5/CkIFEcTKc7BoVXzkCCNCEoPHFVjjO4fjMUD5STo3+85hp3yPfcunluJ6pSdAlUFKClUZhVFBxYj80QecvfMhX7/J7gUvxu5yIN+y9u4WukwpAZ891mSPPvBaVyssNwCrZTWTAf/+ZeyPFTSfbYIj/FBLA5K80k4fQloobUMJPVD/44wWw/48J9l84aj75k912f47lZbdC0Ndl3EZ/OU1yhs8fb+i1B37Ce1xiIiInJch7Bpb4Zw2SBQ+2LEK3GI3ygPs71DvMh8JQz+0pCVBqRvXsmLzHuY8aYe6SmrMH/KbCQ8CMnDyDEU5CDrSDJiI8Kx2EqeQGoAYrfWP03GlhpNAxChbF4jYuJ6cfvZYYjo4wUXFCM3NQVvmTUGuNfx3EpUN+wUqMpCwU+35Vm3TmjuJQ7GDBQd/A/054T53/JQnPctftm9G7lZWSixW251sVufqTveM2irlFblh+vWvijbwr3ZNVw2BaMqdRCXK0v+dzFX+ElPRETk+NLXzEZEbDJSxQTvBUqhwiheZB4Xk9G/hKgP+Av8niR8vqGhoRgzKQJRy7YjjT9QqD7sWYjxwn4XOjYckYsSyo0YSg8gZbCIw59+ipn78u6P6ySeW4nqlN2SqcPjObT5/UA0e0iY/y0PuRlXUfLwI2jWxgXX1i3EjSvViU6Jgadg5K4yjdhX2bK1+7ri9KS/4EMxb9QMd+wV5ys8htzFLwLvYeo/Te2lRBXXMxFzVAVfX2m2fj+8sfol4ANhXZg/l0LMVyV2BSxtZUVETKbuGJhMnYiIiIiIHJmdWlQJbnyCK4evQgpHPeQG9/Yd4dH2EbgI8y2GjIDcxsqOBrRCC5i1gHqha7VbVJURA06mJOxil0A1Hn9BTqAuev71snl1wDNlubFefwmP4zwOlAa02iK4NCdVOJaEtsXF0wxSERERERERERHVhP0CVSiS8lJ9//7HuHziHHJv3EbBz1nQ7/4Pvl/7iRzAsqf9sUg82gLPmLr+dRUzRd2dD+dNxmc3Hscs5TGf8bxslqMqF12V8lkB1/DZ9LL8VeIzn8dL8utY/wxaHF2J+R8odxERERERERERUbXYr+vffaxi1z8z5boZEpEt7PrnGNj1j4iIiIiIHJkdW1QRERERERERERHVHgNVRERERERERETkENj1j4jqBbv+OQZ2/SMiIiIiIkfGFlVEREREREREROQQGKgiIiIiIiIiIiKHwEAVERERERERERE5BOaoIqJ6wRxVjoE5qogcgRuip41AgJswa8xA0vIj2Agd4v40AD7i3T8dwax1GcgW5+8JpveTh6NJ2xFzVSl+AEWMm4zRbZSFUln49F/7kags2YPpeQzHtyN8T55SWtfcEBU+BANbNkbR1VQsTzqPfco99uHgx0X3AdgSopNm9YeTEXnwDgYOHoGonuILvoOTm5IRfUm6+x5hqlv7758PhPtufyByLGxRRURERIJATP17PJK2JGHRYKWI6ogRBqMye8cAvTJbymi8h4JU9MBo2RoBLRtLsy4tO+GpltKsHTn4cVFoRJEya8iz/PPNCGOhMksPBu4PRHWKLaqIqF48WC2qPNF/8lh0baYsVib7K8R/lq4s1D22qCLbpmL5jjD4woDUf47Hwj1KMdWJ0pY3eScQt+YU9pm3Jrm0H2M2ZUnrVeDUGMMDu2OMvw5adWP5L8cS4QL/l59w8vBR/PfcHeRKK5o93o1jiElMx1GpXOGkQ9yrA+Ajbn/XLVXqp0VVWWuFaqisDutLy25ICu8BNVtUVVutj4v6UPp5Apkp6xB1UpgpbVVT+b7v3kKH2U91Q4/H3OCicpYLC3OQfe4Mtnx1CbtMQY3SxzPi+x2b8MZZudjEvi126qdFldVWhiXFKCrMg/6Cxfu/l9zF/kBEVWOLKiIiIqKGYiiAZejYkHNTmStP7dYGcX8IQ2T/DtA2U4JUIicV1C3aoO/IIZhd2srFFRpXZdajHX7nocwrvHv6ykEqkbqJ3LWKqFJ5iEtKxph/rcP4OghSlVOD46L+3YGhQmzwJn7+WZktxxnDBw/He1MGIKCNpixIJWqkgXf3fpg1Uu4+JupbetCq4NPRSwqClNHgdx1NgdrGwvlAmb0XOTnDpYny/meEIe5x4f0od917arI/EFF11U2gSq2DS7uBaPJoSzg9pJQRET0wruPAunjEx9uaPsKxG+J6xbjC1k1ED6Qbt5RWpqXdmcy6Pf2m3Jpr5IWYKf3g00SYL8lD5p6deGPFOiloMGb5JixNPoiTl/NLu6KIF8jSr7wbOcgVLnD9ushdtmTOeKaDl3LfvWPfnu3y+y2d9ivBDLH1gnm5MDV0ayqqlRofF/UppwD50oxZty6z7l/GEmXGzMCBIYjsqZHmi66eQNLaTXhJ2Udnrd6JpCMZyC0slu4XqR4WA1n5yL1hhEtrHcaYX6np2sFHbRTuk1/FvUZsdWQ6PsNXiOesI8jME967U2P4PD0Cb3ZUVrxX1GJ/IKLqs2/XP/WT8Bj7LFpqm5ZFwH7Lw7Wd/4H+tCO1fQzHkvXPoK0wd3HHZMz/QC4lorrDZOpmfEIQ8bt2UN06jc3rDuC6Ulwf7veuf37PzMH0cf3gp7X136yVbm2ewZjxxosY1EELtUouMuZkYO+6lVhWoVtmMBatn4vA5hlIDp2NA2MX4LWw3tBp5A3F7VLWvIlVe3Ok5fI0CJ4ZjRf7+0DbXHmighxk7F+Plcu2o0IH0MGLsPH1QKgzkxE6KwGa4Bl4a1oIfJXnMmSnYn3cQiRbbugZiLDnwzA0sDO0biqY/sA35mTh262r8M5HaUItKKYtx45nfZWFymV8EorZa5QFE7U/Jr4yAyN766ARAygi4T1lnfgC7/9zLQ6VPpFCeT7DkViMX5QK/wlzMWNcIHTix1VsRE5mClb+ZVXF7aAW1n0NM0aV1bW0flYavvx4GRKs1rdjK+3CY9adqbLuXMNDRiGyu6vwQWZh5/v7EV9lby+lW8+lYzjcrBf6wqz7XyNfxM/qg6K9R2AM7gOfW6ewYvUJ7JK2Ezg5Y0iXzgjt1Vaobze4PCwWFqPoVg4yUw9hyXHhQlpa0cR21z/1Yx0QNzYQ2kbChfqlg3gr+RJOlruAc8bAnr0QHtgG2mbKZ1soPs9hxB/JwfdyiQ2mrkvV62bj3qIN5g/vDp9HhPck/lCVukxewte707DisikaUp7aTYvZIb0Q0Eoj14PYZSn3Ck4cOY64M/llx5I1Ne36V9qt06wujDnIPn0KHx/Iwj6zl2jaV7J3r8MbmVpEhfZBwGPC/iG+L8MVHP2/Q4jJsPKeVI0xumcX/K5LW2jdGyv1IL+no/tTsfzCHYv3ZNb1zlxp1zwrTO9b2rf1GN2/D57t6QV38WQk1HnuD6n43x2Xyr0fk5oeF/XLyv5W2WfcqA1WzOgHb6GODSd3YmZK1YFh+f0DR49cQ48+OmSadf8bPTQMEe0uYuc5LwwX6kj87Gd9J98ncnf3xPNPdEPv9p5wb6LsP7/eQe7lM/gsJR0bK1Sd7a5/nTr3wZvDfKEWXnvudzsxZ3f5117xuBCOpZ8ysWPXMSRZ/KgxfX6l3ePMOQn7V4Swf7kL89a6KNfw/CA/Vz6OrtuKuCIvzBvSC35id0vpuLiOk/v2YekZy31c1r29HyIHdIG3cFxIx5G4r2al46uvziLxWlkwsUwN9wciqhFnLy+vvxUWWv9yrpGHusJjyu/h5ekCsRFVya9FKHnIGU4POaEwcy9u6Qvk9RxAv9dfQUjR/2HSH/+G3SeUwup64X+wflYArm47KJyCiKi6iot/VeYedO4IDOkP78bFuHJkB767bu3HT93RaDTIybn3Luqrw2/aciydIlwQuyo/Zq0qwpVDG7H3B2XRbyqWvzMVfb1cSwM6IucmHvB9YhD6Nv0OO4+Z/+pui0Hj+qFV40ZQPR6KsUM7w6NJ2Ybidh379UeLo5/icLkf636Y+u8VmNpXC9fGZk/k0gQevoEY9GQTfLfjWPmgZbtBeC6oFVTIR8GjY7Hw933Rwuy5VG6t0OuJdricvA8XlTLR1NgEhPduiebCus7ij22Fc5Pm0D0+BE89dg6fHroiFwaEIryzRZ8wG3LSk4S6UBZEflMQ9585eLp9czRxUcpEwntq7t0NA58JgPPJL5Bm/qaU51MV5OBm0EzMD/WFKWYnBkeaPNIRfXs2wcHPjwk//U3UCFm4Ggue6Si9p1Li+u6t0Llba1zevLdcHdwLLv1wDhu+PokNZ8re6XdnhGWhLPkHi4QtTl6YNrwjPIW3n/vtbkSfr8b5tFELhD3hDdebF7D0vAtC/VrCVXjOffnCBVnfQIz0+gVfbsmEqmtHeLkV4qevf4TpmnfgoGfwav/W0Kgbme1DTnBu1BSe7TrhGc3P2HHeYNZ6qxGeChAep5HwOCfl5xCpPX3x9nNPCOXCkZexHwuSf8SZcq1iVIgYMwoRAcJx0cjss324CTStOyC4VS5OCPXzi1JcUXMMDWoDDco/rzVD+j2NRc90xqPiezK19hd+p6rUj8CnW3sMcsrGl1mFZu9Jvlj/53MB8NE0KasH4XeteCx5deiEYZ6/4PS5W7Zfn+ujGNtDK7zLPHxvVr9Wqb3w9kvDMbTDI+XrwrkJ3B4TLtJvnsQXZl2JenbpDj/h4j4v7zc8O/xJ+IgHkul9qZrBy88bHS5WrJOIZ5/DxB6ecGvysFk9yO/J268j+pdkYPtl8/3L9NkqiyaFenx97GdYTZFket9OTujZOQBD/DzQ2FSBQp039miNJ1vfxvGTORXqrkbHRb3Lwxfia/varF7zf0ayVFbx8w14MggjdU0gjmD46UcXkFqNFmGPd+yGno8W46evTiKnQ0d0Uedim1AXRdDi96Ed0ST9MP5yzR0TfZvD+eYlszrR4X9mDkaAthkau5ifJx9GY/fH0KPno/A69wO+Lnc5Zjp+yu+fnXx7Yb5wvnVzKkZu6g7M3HsT5k0a1I91w8opT6J9ueNCOJbcPNG1h7DfXbpQbr8z7as5GeX3YclvhTh6pylGdfAQ9kHhGvJ0Br4u/Zhrfn6Qn0uFkmLhuAjpgzbNzY53VVNoO/ii583v8cW18h/GkMHDMS/YRzouSo8jcV9118KvXQmuWN3Xa7Y/EFHNlP78uFtOASPQUm7ZitvfJeDMO6/h7L8WI2NLAq6cEE8hTeHk5jhdAQ3X77WftER0X2j/BPzFfw5vn8fRs3b4k4Bk6imY/oyv8LNW+DF8Yi0WTx+P0NDxiIxZizQlLmdMX4vxQllZayo/zHk9DL7idYQ+FWvfDBe2CcX46Yux9ogeRuHRfJ99A3P8lNXLUcO3q3AhZtTj0H8jhccNRXhsCrKkj1SLwPFB0lomfq+8gbAOwqsT1k/9YCHChfVDx0di8Qep0AvbqHzC8MYrVp8I0ARi6ijhvRWUbRu+MhXS29L0xqhJ0lplig3IOp6ChCVRiBwvPI+4/qvLkJIt72/a/pMwUZoTrJkt3S9PyciQCsVWZ6aysql8ayo/zHglDH5iSyiDcGH7n9kV3hPUfgibPlGoKSs6jMCM3sKPhpvCtsvE+huP+VszhDoX6qJDP0zqKa8mafsixvYRf2DkIO2DxaXvafz0KCzbnIqsHPPQQu0FL9yIHTt2VD2tmKpsUY90LeEjBfSu4NvUarZOFS4iTdlusk/8gOwSN/h1EZvFNMYzHT1RlJmBj211Tfm1ALkZJ/DphmRELTd11dmKpFPyweTS2R+RVeXHUesQM7EPvBsJu8i5vViwJatC64dOgUEY7dtYCnoc3ZYsd4l65yMs3XYCeuFi1aXNAEQFmiKZtad+rAci+mrhIuxh+uO7sVTpMvnSf3diZ4Z4hamC9om+iDSP2arbYPYQuUWJIeMgVvz3o7J6OK6XAlrqjkH4vV26KzVG1LhgdBIH4BDq4uQX2zHrHfk1it3DPj2ph8HGfxrej/eAO/KRuUfeJnzFThyVmr64oUdvrbROOb/mIfvkESSu3VT6HGI97JJalDkL9eCP8fKaijzErJHXk6aUGvxN66ZDp5YqFF09hnipzj9C3IErcjDwsY541lNa6z7ljCdbK13+zmUgqZrdwDzE3HOS6zh0Qdg3dW3xnLAPqju3Fc4BOTj5XSUtyvKu4OSBFCxd/RHCpc/rI0RtOIJsMfDjpMWT/azsDxbEINT8UX5wdxKOlcM7MXNfXvnWR06emDda2OdMx4XlseSkQcDoXhhdgytMw9ksZEn14wnvNlKR5G7OD5bHxZjlW5V9XAWfgf4YLq8ma9QGY/yFz6pEqN9tW0uPC7F74oovTiA7h3+0EjUEOwWqXKD21ckPVnQOV3fJMWSXwa8Iv5NOS/PAQLSMfAXujyqLVold8v4HzytLoueXrsOSF5SFAXORsH4d1kuT2Xq2yq0QH29WgBrqgJml64plCa/PFZ5beYyl4UKp+FrMl8WWWGuwPrQt0OxxzBLKS1+XObHFlWk75fGl7YTHEJ/HdJ/5tvLzh+ON1ab71+CNAcqdRHQf8UT/J9oJP18BfdrXwiUn2c2ox+UL+ZupeH/eBhzKFn9aG5D19QbMfz9V+qGtauOPoeK6Js+8iH5ewq0hDWtnLcSGb+WLcEP2IWxYNAtrT4g/arXwH+UvlVdgzEDyvAgs3polPX7O3mVYf1z+Sa/RdpFuZSPw4gDxAsGAtPdnYeF6JchkyMKh9Qsx64M0KUCj7TkKNp4JKBCe668RpdvmfBaLL6UenMIFdvvyQbGEV8cj8q/LkLw/HVnKFUbO+RQsey1Fbgms0qL93X7HCHU3qK1Y4XqkRM/Gqs8zyr+n9+XuhSq/QXhR7GdvzfVDWDZV2Fa48DWIdfPfzUiTciVroeslrSHz0UKKHxT8iNSth0rfkyE7HSnvLkTkjMXYKxfdv9zUwi8twa0bSC9tbVA9RWKr+cJsnPxJuAj1bY2BHm3h52FE5tkr0mdkzb59u/HSllNIvHwHmeLOKTAU5mPjFwdxVGpaIVxQekvF1ql1iIsYAB8lSPXWtitWuvBp8HyAeADmCxeHuxFjGq2wpBiHz51C1M7zUkBD26UNuovlteaM55/qJgVMDaf2ImqPHoeVOsw15CB+y+fYJdSNeAEeIAZPFcP7+cNb3MV/OoK3tlzCLiVSJNXDnt348JQc4OrUqw0qq4rqUHf2x5Ni0Ebs1pm4G9Gn8pCtBDayb+UgMUUoOyMvVyBcXB/d9BmijsvbGApzEPeNHExyadlC+PVdXuIW4cI9JQOfXjOWPodYDys+TpVzQqk84GvHAFLRpf1YkJSOnVKdF2PfkWM4IcVaNHj0MfH2fqWGRonS6/UWfeGqZIThNrDzbDYMTjp07+qMMR11cLl+AZ9J+S2tyULUmr2IPnIdh28VK8d2MTIvZ+CNA8r+8GgL9JXmrJNaSk0Ug1BikCoFUQctglQC757d0F18X6bjwvJYEru/qX0Q1F4ur5585CgtkjxKk8nf5flBPC42bC09LmDMF/bxQ/hePJ+pvdC7dNAJgaYZNOJFbOF1fHshv/S4MAjnzl2nTmHWpvS6HTiAiKyyU6CqHVzEFgKigpso+k04GfZfAJ8ebnAfHAvtwBfh8+cRwg9NN3hNWQGvHsq6NRKOJTM64PyqyZg0SZz+gg+tle8Qfj+vnot+0n0VfThvMlYcFX4SH11p9hjCOSvAHaelx/0MF9s8g/Xru5ZbFgNLB/85TXj8i8IPxe+wQrivQm4rMUgVCnwmbSc+j1lvbuExup5WXuOq79AitHwwSh0QDHyg3L/jGh6fUXnAjYjuParOT8JP/Mf8djq+kYIgVC/UKvki30JQr9byxevZL5Fc4YrdgOQM+ce9tnWgdGsp6/N5SLDID7X3ipUkOQMeR2vxiW6ewZefVAwNGDZnyAEkrQ7Wn0mPlL/OtnguAy5ckx9L5VTNFicGoxQQEy+uXaxVSA2Y6s6Y/iXWVEiuJTzVJ1/ijBJ0av+kVFReQRoS/rgYKeWqYy+yTH04zH+dHDkrt1Rr4o8p/y8OM4b5Cpcw9rd3kdgKr3wrMqvTrARli/ozsEVzeea3EuUzrD6jQezrU4wPTwt7mVtbPNOvNdwLMnHonHy/zBXa6gYnTD1mzHrilCN2YQuXg1S5p1JsBKkEnq3k3GS3LuIrK/3HDBlX5ePCsyV6SyW1pUUnKSCSg5Op160E54xIPCMf6+rHPJWLXlf468QLZiO+P55h9fV/euKi/FgtWsLaLl4Toe110jnK8P0pxFd8gZUynDiImKzyza0M13KsvM8qlJj2LWclJ5k9ZGFXsmVLujxky/8J3OeaQ6O0OjTWuId/AXLEYF7WBaQLtz6deqNHaxX0ZzJhnuJJ7WYK6lSutDWecF619W2hknLJyUGq7H2fWw1SiX6nE4NHQPYZa8eFESd+El+4Ct7eVTW5tM7lYeXkf5fnB0OacFyIAWhzJXrlO8YNmhZSiezna3KrsyYd8PyLgYhspYLpspaIGo6dAlUFKLH4h6/owGJknshD7p650O//BJfidyNX+HLSb3kbV5WkgDVzEbm31HC3+Ge23+vBaHtpL97erxR8cBoXm7mjnbJYXYajnylBqyScFk6IlssttLZCX2We79oWF3eUBb8O/jO2dB6XPisLbO2Pxd5LanToU/aYhqPvmb2Hz/Ddrbboaq3FFhHdozzxRE8vtqaqK19fgF68bR6IF5dORJC3+AtXDV3IVMSN85d+nBsvncUX4jqKLp5yuEPde471Ll5VJBk3FlfzUrCjFtIzCa9tjrXn2RGGyp8pH/lWgkGmwMr4RRbtidT+GDEnDonrt9TweaqvtdJUoOjmjzYuiFOUCwIVXKxdSxmNuGFlw4RZcjCoXDdDwwZEr9ord5H09MOIV5YjadtGJP57EaaG6KSA2f0u85bS3OAhJ5sXmhW00JSrG8Np4cLS6IZOHT1huPADPlXKZZbBCWcM7NYNKyLCsPG1ydjyJ9NkJal2OU7wGzxA7sKWdRBvfXHdepBK9Ghz+WKwWTfMKn1880lMUmwHbmqp+554HOlttEYxXFUCO6pG8rEq1JymqXh7B/m2gio/5cjnHJWqtItl7bjC91H5U9ULj1lj1ch7VI6YsL1PIOKnh2FLuc/WTvVt4cEd+awAUoxYYJ7/sHJu8C4Xhc/DjrPCPtHGF50evoJjJywiXtIIgWXUbhrMCg1B0qwJZp+rMAnnyco1x8AR8oAHud/txoJUW4MEuEL7iDzn/bTZ45tNUiL8u5B/S3nmOjk/FJeOIKl2MxsFtUSPtzanyt0JPTpg+MRxeO/VUYgf0w0Rjzk/EN8xRI7IToGqLBT8dFuedeuE5l7yX7VFB/8D/Tlh/rc8FOd9i19270ZuVhZKapVO4iDenv4ZEFqx65zYWsnUpW69NJpfC7Sq965z/dDKw4Dcaqa++uG69a8A2UFcttm0l4juRaoe/dGVranqzsVVWP+1fJGn6TEFC1aL+YY2In5OGPzEH/7GDGxfvbb8j+9qXzzcJTt901aLOgSLVi/BjBC/spEF64Crc909tjWGlFhEhM/HqpQ0ZOUIx4+zGtoOgQibE4+kVXMQZIcrCUfOUZVtUH44NWsO39ruTyVXcOJH8dyTj0zx4ldirXWLChHjnkXU0B7w9lBGhau2EqTvOYRM8c9LXT+8OdjN9kWeeab/uqRqBMs84FWzZ6uiqjjVsI7vgjTCWhgi+3eAVsyFVJ/npgfOHRiUP/E1j9Q+eHP0zA9yl7effsBnpkYBVlrMSd32Xh6OIZ09oTZPPF4tN7Fv+wnklgDujz+NN7vbOr/X0b7qpIFWqiIjcm8qwbg6Pj8UGcrn+jP8dB6Rq5IRfyAd2TeE8+TDrtD69sDoyRPw3nO+6Mtjhaje2e2wK0z9Frekf3Xc0HLyIng/+wq8Rv4R7WctgocUuMpCwbHdKLqrEeqTMF/qVicGrMq6zsnd+JRuc9I0rax1Ur2q2OLLlnaealzTH1SWLNUs6EVEjs4LT/rLSUzZmqqO+M3Bi09qgJwsZOjNfsIXG6A/vR2xUy27zqG065zhSKzcpcvWdLddvTJuyBcVN1MRa+3xSyfhNUob1J7upbEIlP6RNyDjs2WYPcX88U3J0u/eBaU5lEtz80Qf5kKgk/55NyK/pulZbDGkYfuy+YgMH4PQKQuRkJIh1auqbQim/dFmdq/7Q/bPcusd6NC9Z+0jrEmfbsKYf21FtNzTzYxKjOfIdN0wpI14oVo+8bg8bcfRSnI5SwxZiN6sXPT2DEHM442tB6tMF9t5JxBX+vjWprsc4v36Tcj//TUp7YplSd1SaX1mKICU+q00Z05juNqKMTwmXFyLtwUG5fFrqyxYWK6VRx3w7tkLAWIzlRIxyfTO0kT5pnqW3zvZRz4yfpb/lFJ3aF8+eXdN3EiXk4hvuCTnEDOnUin50cQ8bHKCc9y6hJ0bNsnbmKZqJMA3/nQKS3ZloUg4F/gMeRrROmvnmbJ9NTPF7PGtTOF7qjpRlPHu2U5+HyV6pF+Qiuro/GBqsSbnAKug5A52HjmGWYnCeXJ5MhIPXIJBOI+56PogIrBuj00iqsh+8eEbn+DK4avySB4PucG9fUd4tH0ELsJ8iyEjrOYHqUjs3mfW5e2F/8EzZqM/lCnrBnjwyHkg4KWGSz4u5qWScmIdxIFzBrQNLcst1e/1uWV5ptoEl71G6X1dxGmzHFfqgGfMtnsJj+M8DjRIsI2I7K2p/xPwE7uRsDVVnQme0E+6aMzaH4XZEWa5hkaOR8SfV2GvlWDJ3nNZws9V4fzr299Gbig72aPkWGreHv37yEV1ZWhHpYvHxS8xb2UKMszft6eqmt3GXKBSUiLZYqo7lc8gzLAyWKF60jD4i49hzMTZFLnMrq6nInnZbKz5Vg6YaXV3/wk6co4q5GXhe+Wz9H4yCBHVaEHWtzQpcXU0hloJyPRtp5WDNrfOYaNZ4nGJkzNU1Ri92WB+0fv0CMRYa6Fx9RqkgSjddAgyH23P7oTnkerOEwGB1lp4NUakv3zc5P54WQkG5CH9qrSHw+fxNugklZU3vndH6bGKLl/FLrmo1r79Sf5wtd271Gi0tJoy5RfC5TREH88pTZQvUdWgW6mDUocsQNK2HdixbSPiXrAximo92vG9eAwI1H6YUFnrwlKuqNFhq26idH8z5WEDsr85iPjLRrkVlsLdoougLd+f3I94Yb+QRu4bF4JoK8nuTfuqzserGu+namq3Noh6Ut4viy6cKxuJtA7OD+o27eEnnufMA2K2GO/g0yMHkXhC7natfaxOT1JEZIUdvw6LpLxU37//MS6fOIfcG7dR8HMW9Lv/g+/XfiKfqKt0EG/vv4i2Sve+9V1P47PSBHpmo/Ctn4kO51bKOZ/2x2KqlHzcdJ8wKaP01QkxfxSsj/onJltfcbQFnlFex6yOwA/Kfbh0HnhBeX2hLfDdqrJcViLD0Vx0NW0XcA2fTY8VaoOI7nlOXgjswdZUda1lc/nvEG2vaQjp6Q//rtXIXbT1AM6KcQ7PIPw1cQmmDvOTk7cK1N5+CJk0F3GJ8VgwWC6rvW04kC4+kQZB8xOx5OUQ+Ek5tARqHfyGTcTcfyQifn6wXHYXfrwpB27g5Y9pwXKyE7V3EMLmLMfGxBGoPFNJKrLkpDvwH7cEE5+spA7X75HrTqXDiJjlZQnOhfcT8nIcVk/2ky56c45uxVrlJdWa8HhJqxZhxrNBZfUmvDLdkxMxyFde1l9OlW7vX3cQn3JKbmHQSIfRLz6NmG4aeaRLkUqFvu188faUYMxTGrmpqnlxaulknpIPS90KT7VXWkMJjz+kWy/E/2E4uotdmKuh9KJXDPaILTQqXPTqceic+Fwa9J0sv59OplZdTs7o1EqLqNAQrOhvq0lTdd3Bx6fkM6/68RDEDdair/I87u6eiHouFAPFRPKFl/BValmz/43fZUr17SJ2YRzTBkPUcn2qG7khInQ4wjsKlS+OLHbE9uiJ1XXy2+/lkcbUfoh4uQ9mtXOFt/IL3V2tQUSIUD/mA4nWUpYp19mj7RDRwvR+XDG6Tx8kzex316MXNrRJo4KgEd+Wsxp+Y6djis0TWP0wnDuOXdK/FGLrwuFYPcYXoz3Kch55NxM+28ED8N5IJYAo9kev1ZVZPnKUnVDr54uBynnB28MTs8aMwHuDTY9ftV17duPTS8JrFoNVYwdUCIqf/C4DerGVUftg+f20KEs87q4W9qWe3bBC2IcjlDJbvJvJ+93ql/tJAy+gMAs79ujNjqW7Oz+o3Jqjr3LMiuv37dgNcSP9pLo3pKUh0RQQE3Xpg/fGdUOkcNyVPofA20OLp9rKkUP9NeZkIapvDwUEBPyWlyeNNUx1pN/razDLcy8mzUtSSsp7fuk6BF9fian/ZGiK7l+FhXfV7/ee1dR/DF7oq5VaU21L+gpXzH8cNQAfHx9kZt5/HTzUzy7Be9P8bQdWCnKQ9e02rPrPBqSZXVWqQxZh9ZxAOchilQGp/xyPhXuURQRj0fq5CGwOZHxikfRbNG25nIQ9M7l8yxspd9QcpVuedWIXxHKJ0QcvwsbXA4X3lIHk6nYLHLwASa8LF2vKYjnFBhjuqKFWW76nMrqXl2P5WF+rLSss36/YemH1bOXC0Arj+WTMezUB5XpcmupH7AY5aSEs0sBbZ9rGlpxULJu+0GIEwftTp+79sHhIm0ryxOThaNJ2xFwFBg4eISU2FrvoRJkPFWYhYtxkjG4DZO9eh1nfCQWNvBA3LVi+eLRUcgcGgxPUzVQWj+uG6GliovWy55eJ+a5GCY+vBHU27Cw/EpeUM0nYrpIhtgzHt1fSjUiHOCmpsuXzWhJeh3DBPtrXRvcd4bUdFl7bUotRwoYMHI5Ztg5aoS4yd20X6sC8WZLp9VTO2nvq1LkP3hzmqyR+r8jyczR9blbrp2U3JIX3gFrsNrXmVNnQ+kL5e5OULmKWSvJgKHATzg8WdWl6LGXRlnKvr3SbLHxqpWuW6bVXtW/WVHB0EuaKXcAlts9z9UrYx+e9OBx9PWycKEWX9mPMJrF7nrL/WH5ulkz1e+sUVqw+IbXoGyjsq1G29tU84bN1Ez7bCo9r2l8tPifz47JQuC9RuM/s/Nqp+wAsDpFHqrSu/OOZPm+b8s5j40epSLI8zGtxfqjquYouH8G/Ps7AYfPfYsL7qTThfO4JrEg8hV0N/PuN6EFTq7j9PWHAXCQoLZTKprK8VkREdc6pHfr3UlpTnUht8CDV/cyQsg2ppuZqRiOMBcJkPkBSEw10A6Zg0dtTYd4hxJCyENPnrULKaX3paEAS4TFystOQsiYWy+xxoWNIwcLpYjLwdOhvmj1RsfA6c7KQlpKA2JXVCttUbs9izFqZIiccNzHKebqW/fElfCEnOrIp6915WPj+ofLb22BIWYzpf12LQxdzytW1+H5SN8ciwjJIVVvrEkqTqJd7npt6pKeswvwHJEgl+v7kQbz07k7sOnsdhkKzyvj1DgzXzmNX8i4sVwIMGhdr4caK8gvlz1rjobRMKLyC6LV7cfJaPmA6ZwmPn3vpGJISP0X8hZr86WBE4qattltolOQhJlFMYHwe+ltm+1yJEUU3ruDkgRTEHbAVpKoJ4XVs+RRxeyye59d86M8eQbxQp5ZBKtGufTsR/ekxZN8Q3rOpLoTXlnvpBD798FOLINXd+V54HdPf3Y3DGcJna76jF+Yg+8huJJ5Wlu/G1VOYsylVThZtYswT6uAgVqzajl3mXYXvQXvj3kfqTWXBUQj7+NLETYj74oS0HxWV/g4oRlGB8Nke348V25QcUo1UVQYEJbcLIbWNa9a8tJXsvn0pwnGUhdzSfUd4/FvX8f2e7Zj1bpqS466apONyO46K/QfFFpwTu2GI2RWj2Fpy2tr9OHopB0W/KoWiQmFfyhCOjXWH8LFSZJNROKf8lC6cs5Lx0horQSrR3ZwfzH9vlQh1cSMLR7/YimkbLIJUotOpShJ1i89HrL8DwjmAQSqiBsEWVfWALaqIHtwWVY7m/mxRpcPUfy9HWAcVjJnbsfCNVeVaTUnd0f74FmYM1kIl/Fzf+9cIxB5X7iMiovtG2NItmNpDBRjTsXZMFDYo5fRgqLSlIRHdU+7fFlUORMxdZStIJfpw3mQGqYiIam0o/DuIrUcMOLvTIkglMmQh5cSPSq5EFVQ1SVZLREQOT8orOHM5JolBKoGYH49BKiKiexcDVUREdJ9Qo/O4RZg4QEnsLVLrEPTsHCyfJuZ6Ety8wBFViYjuI1NX7MDG1XGY84yvdJ4X8+PFxNihKzURETUYBqqIiOgetx7bjoijiwEqbSCmzF+OpB07sEOcNsZjwbQQSIPDGfXYmxhbvQTeRER07yg2wqBPR8p/5yPcXvnxiIiowTBHFRHVC+aocgz366h/Ymsq/1HT8OKz/eCjUYuj6ZcSk25npR/E5pUJ2HuPJwsmIiIi65ijiuj+wUAVEdULBqocw/0bqCIiIiIiovsBu/4REREREREREZFDYKCKiIiIiIiIiIgcAgNVRERERERERETkEBioIiIiIiIiIiIih8BAFREREREREREROQQGqoiIiIiIiIiIyCEwUEVERERERERERA6BgSoiIiIiIiIiInIIDFQREREREREREZFDYKCKiIiIiIiIiIgcAgNVRERERERERETkEB4KCAj4LS/vlrJIRFQ3CgvvKHMPEmd4+j2JJ/07QOumgrPy10Bx/nX8cOZrfJN2BbdK5LL64uPjg8zMTGWJiIiIiIjIsbBFFRFRnWgKv2emYOxTXeHlXhakEjm7eqL9EyMxbmQPuCtlREREREREJFwveXl5/a2w0KgsEhHVjeLiX5W5B4TPIIzp6QmnkltI37UF2/YcxDffHsXRE2eRfbsFWrduhsauWjys/w6X8pRt6oFGo0FOTo6yRERERERE5FjYooqIqA54PuYJZ+HWmHkAX2Xmwmjq4ld0G/pTXyDtZ3FBBbdmUikREREREREJGKgiIqoD12/Iuf9U2nbwcpFmyzTtgDYacSYXV7OlEiIiIiIiIhIwUEVEVBfOfo0TN4XbZn4Y+dJkDO/ZGs1UKmj9nsLY8f2l4NWtU3uRyrEsiIiIiIiISnHUPyKqFw/kqH9O7ugaEor+bSz6993JRfrXO/DVufo/93LUPyIiIiIicmRsUUVEVFdKbkGfnYNbpvxUJqqm8GyhQVNlkYiIiIiIiGQMVBER1Ymm8Bs2BWP7tUYz3MaPBzcjcV0KTl8zCmdeFTy7DceEZ/wYrCIiIiIiIjLDQBURUR1Q9QjBU21UUquq059+gJ2nrsN46wccSE7ER4f1MIrreD+FkB7COkRERERERCRhoIqIyO5U8PPVSnPFF7/GgZ+l2VK5aSlIuybPa71ayzNERERERETEQBURkf01hbqRPFdYcFueKec2bhcqs0RERERERFSKgSoiIrvLxaUrcoCqaedgPO2nRVMXaRFwaQptt+EI9JIX9Vd+lGeIiIiIiIgIDwUEBPyWl1f/Q6QT0YOlsPCOMveAaOqH4eOfQuvGyrIVxktf4aPP02GtzVVd8fHxQWZmprJERERERETkWNiiioioLtxOx851m/HVqSvIvVOsFApKinH7lx9x+qvNWFvPQSoiIiIiIiJHxxZVRFQvHrgWVQ6KLaqIiIiIiMiRsUUVERERERERERE5BAaqiIiIiIiIiIjIITBQRUREREREREREDoGBKiIiIiIiIiIicggMVBERERERERERkUNgoIqIiIiIiIiIiBwCA1VEREREREREROQQGKgiIiIiIiIiIiKHwEAVERERERERERE5BAaqiIiIiIiIiIjIITBQRUREREREREREDoGBKiIiIiIiIiIicggMVBERERERERERkUNgoIqIiIiIiIiIiBzCQwEBAb/l5d1SFomI6kZh4R1ljhqSj48PMjMzlaUHxTS0e3MstDDgh4Sx0F9Riu3FfSQeGTwWXh1bQq1SykSZm3H4wzXKAlnSTVqCuMn+UAufS9q6KMxfn6XcQ45q2qIbiIQbnl34MBrs0xq8CBtfDxT2m/IMR2IxftFeZakqGgS/PAeTBvtDpzE/aA1I/ed4LNyjLAoGvZiHfwSp8J+oxlhrUAqJiIioTrFFFRERUW25TkO76TPRoZtFkIqqNLSfP9TOwoyzGv79hsqFVCXds3OxPHEjdvx7qlJSP6Yt+gUL+uajRadCDLOMEt1T1AhZuAJzxwZaBKmsKcGzQQVo0fZnLPhnIQYppURERFS32KKKiOrFg9qiqlnbQAT36QatmwrO4l8DRbdx/dIxfLXvNK4XyevUJ7aosm+LKtdxW9GtiwoleRk4t3Epci+zVVB1sUVV7QQv3Ii5fdRAZjJCZyUopXVrUGQe4sNy0cjojo/+7Ia56codDmDqih0I86lBi6qec5H492DhfGCE/sgGrFq5AanXlfusUf+K9e/qEaQB8g5rEdqQrcmIiIgeEGxRRURUJ5rCb1gEJg/tBS93JUglcmkKz/b9Mfb5kfBrqpTRPWoQ1F5iiwwjLm+dySBVDWWtn4/xI0MROnI8g1SOzO8OYsQgFdQ4tMKxglS10lsHrXh7ZS/eXFRFkEpkeBiT/uaJC8ZiuPX9BfGTlXIiIiKqMwxUERHVgab+IXiqjQowXsfp//sIiWviER8fj8SPUpCeK6yg8kL/QX5gb7F7WUs0loKNRfiVKdjovvQbYl/NhU6YyzvsjklfyKX3Mn+NqzxzJ7/6LaPSGyF6u7swU4iu4/Lx+j3d9ZGIiMjxsesfEdWLB6vrnzuenDgBPZoX44fdCUi5oBSbqPww8vmn4OWix9eJW3DCqJTXg/u+659qENxHvAidWWLz4jtGPNRYBSdbXf8stykR9tecDPy4bQV++fGsvI5VdZyk3ZQ0WunipQmegbemhcBXyatjyE7F+riFSLbSwkXdYyJe+8NI9NZpoBLzQBUbYfjpLLYlLsbar21khPYMxtSZkzCohw6aJkqZ0SC8rxtQaXW48XkoZpfmhg/GovVzEdgcyPjEvFwxbTl2POtbsXuaqdyC1ccwqZd6mIrlO8LgezMVsYsyMCp6Ivw0QvH1Q1j2x8X4MSwOMc/5STm1cr5ehukxKcKnbk6D4JnReLG/D7TNlR2vIAcZ+9dj5bLtKP/STHWXgeTQ2TgwdgFeC+tdmi/JKOx7KWvexKq9OdKyeV1XSXz9kxbCsgNchXoQGHOykLZnPZa9uxemZ6pgZD7OzbohdflbM9ENi6tMJm6lHoqFfSj9IDZ/sAbbT1h7gJrUXUU17fpX+66TJXhv7U8YpAWytnmh/4qHlHJbdJi4NA5Teqht7DNERERkC1tUERHZXUt4SheVely2FhMypiPzmjijRau2UgnZQ6todJn7BvwsEps7S0EqG8Rk6K9YbCOs3OgRX3R46W2069VZKZS5Pf85+r5pmsQglUiNdlPNy8VpM7Re0p13T6ND2B+WI3HuiNLgjEjtHYip0QsQrCybqEMWYPXfpyCobVlQAs4qYX1/TIxejUUhVpqD+E3F8vi5COtjFqQSqdTQtrUoayj1UQ9QYejrSpBK5BmEkTPn4o1JcpBKpHlyEmb2lOdlfpj670TMfcavLNAiaqKBb8gMLF0xVVjDmpbw/0cilr4cVC6pt0rjixFz4zDH+kY1pg5ZhNVLLepBoBLqM3DsTMwZrBRYsWBIPhoJt9cOu1YjSCXUwwor9eAs7ENdQzBj+iSlwFxt664GxEDnjh3YoUxSkErkE1ZaVjoJz2ebE6J3NxNui6HrW4AJcqFtPSdhaA/5uSruM0RERFQZBqqIiOyuEIVSonRPeNoIVuhvyC1ZNR5idxK6a06T0Ca8H9yEb7XCi1/i5MppOPzWMBxePA2p7x1EnrJaeZ3hMWEstE2BoiupOLVikrxNbAxOfXMVRVBBG/oGPJSeQg1GE4ipo3yhKtAj9YOFCA8NRfjKVLkVjKY3Rplf/6vDsGBaEDTOgOH8diybPh6h4vqvLsP282KkQYPAaQsQVi5GE4i5b4TBVwxGXU9H8rJIjBe2CQ0Nx+wlycgokNeyizWzpdcjT7FIvamUV0ed14OguT/8vQxIezccC/fL7Yx8g4OhvZmGVVNMr1cLXW/pLonfK28grIMKMJa9rtDxkVj8QSr0RkDlE4Y3XrEWblHDt6sWKmG7Q/+V6zw8NgVZUgtLLQLHB0lrAXuxcJKpzkIRe0SJGIktgpSy0qlCayodXhwXCDHulnNiLRYr9SC+vqj/JCP14g1hP7fFiCAf8cW44tTuavxcfOZFDPUR6yELKf+ZLdeDMIW/uhgJKenIyVfWM1P7umsYWZsa47RYJS0KMGagXEZERET2x0AVEZHd/YAf9eKtCn5PDUfXlk1hasigcm+NrgPHYHgX8Z95gfPD8i3dFeenhuKxxkDJz1/i1Nq3YfhFyT5TkoXiH6/Caqyl7UvQtRJu89Nw5n+jkX9D6QB15yDyP5+J9FPCFalTSzwa6C+XC/I+HCYHs6RpM6SPWer6Z14uTnbuCliQgeS/RmDhejkwk/NZLL6UWuupoG1vCmgAupeGwl8MvlxJQfSrq5CSLQc1cs6nYNWr0UgRX5O6M/qPkoplz4YhSGwaZkzH2j9GISElS+miJHa/uoAbUuDEQdRlPSiMmV9g1eYcpF6/YSpB+o7F2H59L7J+UYpKjcCLA8TKMyDt/VmlrwuGLBxavxCzPkgTtga0PUehbC8yYxTez7wILN4q13nO3mVYf1x+rRptF+n27vhCK51qjPgxdRsOKfUgvr70zxOwcEYkFu+RiyoY+Ct0YiOnAhVOHZaLKuXlCinud/0sPv88Q64HQc75Q0heFoXweZbd7O6y7qprz0Il8CpPlQb6quoKaHBBlpR83QBdN6nEtuPr8YXS1THn6/VYeVyaJSIiompgoIqIqA6kH/xaahEA19boP/oFTI2MRKQwRUwYjv6dtWjKs68dqdFM11KayzmxrpIWIuW5tG8NsRGRIX0PCkrksjIGGC7KwS73Vk9Itw1Hj5S/zkZCuWQ9Bly4Jl8Eq5zKukwN7SimvQayvl1jJbdPOr7LErdRQdexrKNcSM/2QokYpzqADco1vGOq23qQGXF2d0L5JNvXv8X6D2xUzIDH0VqMztw8gy8/qbiOYXOG/FhaHQKlkvKyPp9n8X6AvVeuKnP2kIqzP4knIhX8X1iNuJkh8PWU76lS51/hJt7qXfCRVFCFE1ly4NYrBDGrFmDikzo5cGXLXdZdw3gI316Wh2ttri2Wbm3LwoZ5Sks+5qciIiKqEV4qERHVhdwT2LIpBceyc2E0u54pzr+OH4+n4OtLcuHtfOud0qgmnkAjqQelAfmXyoUYKtXEU05EpO79mkV+KWUaUTHpd8PIR37FaAv2LpIvgssSSAehpRKE0I3aWDH/jjCV5ucx09pDLtNfdPQh3eq2HmRFMFp2R8y7ilRltoKOWkh7UfNAzLHyPDvEBO3SitYZi+s6fGHAhuhV2Cv1o9PA75k5WL52BzYmLseil0OgqySSpHNWorfCTbWOqiOxeHt9uhSQUbcNwpToeGzckoT4v89BWG9T0i8zd1l3DUY5n7t5VBWoIiIiotpioIqIqK7c+gGpn32ExIR4xMfLU0LSZuz85jLQROwMaETOL2JrB7KXkt+Umeq473pdquByF9/qdR80qS93Vw81ci/8ijKkIDYiHPP/m4K07BwpcK7W+iJw7BzEr43HnCetR6ukbn81lP5BFMZPiUXykQzoxd1JpYGuZwimvpWEpL+HlU+Mzl+gREREZAN/JhAR1Td3f3R+VLgtuozL9sxj9MAySq0+xC6ATa11a3J1hYsya67wuhyYyf/mbYv8UhbTh2uk9RxfWQ6ljE8scu9YTOWG8Vcahni0LMvxVMYDqloELNTOtdjIbmpZD7WRcUPu0nUzFbFWHr9smo0qsh/VMQPSti7D/OnhGDMyHAvXpCBDfOFNdAiZPtNqDqhDBcpPROFG7khZTdf3ImHRbESMF+p3+jIkH9dLuaY0PadguvlQefdM3VmXd8NsCEUiIiKyKwaqiIjqk4sX+g/rBbGn2u0Lp3ChQm4kqrmDMFyVW6a5tx0r3ZZyGgrtS0PhoSyaK/zxRylG4+rb32og616UKmfxh67zlMrzA5lJvSxvo2nzRPkWL8LS1H9Pgb+YyKuCHBjuyHOuTcqHMdQhC7D6mRqFNuyuNvVQK3vOyqP0NW+P/n3korpmLJH3dTR2rVkAqVQOUj9ZhtlrUuVAka0cUBed5dEytUUwjy/VhCE7BQl/nYWUi+KSCtqOZsHQBqg7e+je8rZ0e1NfVaBKh4lL5a6nSdEhdbsfEhER3WcYqCIiqnPOaNpMi3ZPDMfkF0eia3Oh6OZppBxgcyp7yU/PkIJOjXqMQ6su4mW3Gk6tZqLNrNfQzgMosRYQTD+AK+KQ+Y/0Q4+pb8OtdWc4mb4VG3dGky5vQBe5Bi28lLJ7QNrWNCmhtcpvIt779xyEDfCFKTuQpkMQwmYuQnxSHKYqZaK0r5QR2ryC8docOW+RpvdELEpYirAOtlpGpeHHHDlgon1yBib2EC/DNQictASrZwdB08CNTWpTD7WzDQfSxXCPBkHzE7Hk5RD4eSshCbUOfsMmYu4/EhE/3zJpe+0duiC3UBI/rwXC51V5cvSpiEuKx6KZYQjqWpbcXO0dhImD28vL+izrObi+cJEDSU3uIOBpuagywfPjkfiPuZg4zN/sNWngO2wa/KVjyAj9hUNSqaz+6+7uGdFeei/NcKGqkRB7TsJQ6bgQ3uGTkzCzpzRLRERE1fBQQEDAb3l5t5RFIqK6UVioNL94YPhhZORTsBbjMF47jd2fH8CP8h/z9crHxweZmdJ4/veZQDzyhxh0ELtUWsg79A6utHwNfj4G/JAwFnrz+GCrGHSLCISrzb9trGxTahravTkW2krXuQuDF2Hj64FQIwPJNej+5DdtOZY+6wvbne8sH0+NiXFJmOJXcQujfi/SCoIR2FbuRjfbvBfk4AVIej2oNABUxoiMbzPRsrcf1JnJ5Yb8n7piB8J8lAVbxK5gkxaitFNevdTDVCyXkncbkPrP8Vi4RygStt8hbA+z92B6/eXqQh2CRavnINBKvnATw5FYs26GwVi0fi4Cm1upU5GV5y0vGAuS5iLI2vNZ1l3p+7IlB6nLpmNhitS2qoKYf18V9gsjCo95oeP8ypO6BS/cWEmSemGvEN7PPOH9lMuHX+O6q/p5ZLb3ldLtbdavbboX83Bgci5wzRNzn29a+WiIPeci8e/BwvlBpMfev0Yg9ri0QERERFWw+dOciIjsp/jObVy/dBoHtq1DYnLDBKnub6n4ZXUM0s/loEhpPVWcn4UfPn4DZ3Z9IaewsuZyNE6tWInzp67CoPSoEpUYjci7nIbz65baPwBVx9LXzEZEbDJSL8qJs0sVGKA/n4rkZbFYrxTJDNgQNQ8JR7JgMK1vzEHW/rVYOCsWWbYqb89ixLybiiyzGIdBn47tsRGYvbfh/wCreT3UkiEFC6fPx6qUdOhvmu1ExUahGrOQlpKA2JV3mQurnL1Y/Gostp/Wl9tnrVuPBFMSdfN1jUIdnE7Bqnm2g1Si6F2uKBRuG3W7jZgqYkN7V66Uk6ib14FArIPUzbGIsAxSieq97u7Gb1gQLO7Xzsg63KTyIJXo+Hp8cUKu25yv12Mlg1RERETVxhZVRFQvHrwWVY7p/m1RRXXDH3MTlyBYa6P1D93nfkN84hUM8ypGXqoXQhc8jCzlngeNbnIedr+Yi0Y3H8Hi59TgoUBERFR32KKKiIiIbNBA3ViZpQfQQ4iM98A1Yc4tMBexQ+XSB45fId6blItGaIJjGxikIiIiqmsMVBERERGRdYeb4M/J7ijEbQTNykNs+aEh73/qX7H+b9fRXuWMvMMavJKslBMREVGdYaCKiIiIiGz6Mt4N/zisBlS5mPA/t7DgHhoJ8+78htilvyBIU4zCTE+8svDB7fpIRERUnxioIiIiIqJKrVnogTVprriW1gTv32MDDNTeQ9h5qgnyMrX48+uN8KVSSkRERHWLydSJqF4wmbpjYDJ1IiIiIiJyZGxRRUREREREREREDoGBKiIiIiIiIiIicggMVBER0T0tLCxMmSMiIiIionsdA1VEREREREREROQQGKgiIiIiIiIiIiKHwEAVERERERERERE5BAaqiIiIiIiIiIjIITBQRUREREREREREDoGBKiIiIiIiIiIicggPBQQE/JaXd0tZJCKqG4WFd5Q5akg+Pj7IzMxUlu4PYWFhSE5OVpaoNtye/xxdfJSFUhk489ZM5ClLVXIfiUcGj4VXx5ZQq5QyUeZmHP5wjbJAlnSTliBusj/UMCBtXRTmr89S7rk/TFt0A5Fww7MLH0bFd+aG6GkjEOAmzBozkLT8CDZCh7g/DYC0O/50BLPWZSBbnL9vldVBZso6RJ1UiuubkxfenhmMTg9fwc5VexFfqJRTme4DsCVEJ83qDycj8uAdDBw8AlE9xR34Dk5uSkb0Jenucga9mId/BKnwn6jGWGtQComIqFJsUUVERER3x3Ua2k2fiQ7dLIJUVKWh/fyhdhZmnNXw7zdULrxPTFv0Cxb0zUeLToUYplYKyzHCYFRm7xigV2ZLGY0OEKRqjIiQYLw3eziiWypF9yF1V190Eo7dosxz+JBBKusKjShSZg15ln++GWG0Wm8leDaoAC3a/owF/yzEIKWUiIgqx0AVEVF1OTWDV8+nMfaFSERGCtPk/vBU7rKpWTsEPjMBU6cp20ybihfGPY2uj4hXpkSOIe/DYTj8ljIlpCJfKa8u12EjoW0sXJLlZSD93WlljyVObE1VqS8OpsFQLMwUG5B28Au58D4wKDIPf+5rEK7f3fHR39RYY7UlyR3kVCi/iZxqN+OrDy3QvbsX3FWOeM5WYXifQMT/YQK2/GmyPP0hBG/3dIW7skb1OOP5rmJLoXykH7sCy49E3cgNkWKwbpbZ88wegfhQXwwXGxPVlUZeiJulPJ8wxXVXyu1E7abFvHHDsfE15TleG4ekKYGIbGHjs84zwBRXNdl37aYyZ4sTXol6BIdynNHI5zr+s+hXyG2yiIioMgxUERFVwbl5a/R6eixeeHkyRj7RHp5NlTuq8mh/TJ4Ygl7e7nA2nW2dnNH0kfboHzYZIe2r+0BEjmwQ1F5iMyojLm+didzL91fXtbqWtX4+xo8MRejI8fdPtz+/O4gJy0UjqHFohRvmpivllTEUwLJTsiGnqiDAA0ylQXTEs4js3wFaqUmeQu2JToNHYc0YHTopRVXy6IAnWwm3N85hi5Vd8LmRIzBcDNY1MnselRu0nfsg8uXhmFdHLc3GhwTBp5GyYGfqx7ph5ctPo28bDVxKv59VULfogOHPP4O3O1fWNPQODBWCqTfx88/KrCXDw5j0N09cMBbDre8viJ+slBMRkU0MVBERVaoZeoUMR2B7TzQVLsSvn/0KX52tRl4/p3YIeaYrmglnWeO100jZkID4+HgkfLAFqVeMwv1N0W7AU2jPblJ0z2uJxlLMtQi/MhUd4TfEvportRrJO+yOSVU0ErtxS9lpSrv5mXUH/E25pQpGPz0IAR7OwK1L2LnuI4T/ax3CV2xF0qkc6X4X3554vppNd4b37ii1wMo+cR5H5aLyCvOQfXw/Vvz3I4wRnmfMvz5C1IaDyBS/Cp00CAjUyuvZkbpjHzzXUfiCzMtCtr1T6Tpp8ebYHnAXvp+Lrp5A0rvy+3rpvzuxK0vYH51c0enpQERYBslyCpTWpmbd/My6AxpLlBlr0hshertYy4XoOi4fr1vtCktERCZMpk5E9eJeTqau6jES47wuY+/BY7ginC49+03G2G7NhAuE09i87gCuK+uZc39iAib0FH6UCuts2XAA+nI/YN0ROH4CenkAucfW4aPU+jsHM5n6vUYNZ78otBUumjw0KrllXokReRfTkP1/ccjTyxelFbhPQosRo+DdWoNGDwvLwjaG7LO4tOMt5P1cRTZfrxh0mxoI12onU5+Gdm+OhRYG/JAwFvorSrG9DF6Eja8HQp2ZjNBZCdAEz8Bb00LgK9SHyJCdivVxC5FspdWOusdEvPaHkeit00DquVUs1MNPZ7EtcTHWfm2jHjyDMXXmJAzqoYOmiVJmNAjv6wZUWh1ufB6K2aW9GYOxaP1cBDYHMj4xL1dMW44dz/oCymsvZSq3YPUxTBqgHma88SIGddCW5R0z6JF+cDPeX7MdabZ2o5H5ODfrBhoZ3bFmohsWV7G7lSajvrQfYzbJzXkixk3G6DbC0x3fjvA9tvZAZwzs1hnPBXaEt3tjSH+9/poP/XnhnHsgAzstN1M1xuieXfC7Lm2hFdaXWtGUFKMo9wqO7k/F8gt3yrq8mSXNroqtBOhqNw0i+gfiSV+NUH9SpaPoxhWcSD2O5afykSuvJjAlU8/H0XVbsfzXNnhzRCB8PMRKF7e5iF3bjiDe8ovGyRMx41riq02nsKvc94tQPiME3YV9t/L6U5iSqAvH+8aVR5BUWbDFgvrxAUh6Wqgns8/OLpy0eHvG0+jUKE+ok33ACPsmmw/oPxzRfTRA3imsePeERf01RtSLYRjoWZYwvYwp0b/wupK2I+aqUNSyG5LCewhn6ix8+q/9SJRXtKEE7639CYO0QNY2L/Rf8ZBSTkRElsSvaSIiqoTxxDas+1wOUlVPM3RoI2cI0Z/6xiJIBTRt0w2tXeV5d+92MF0DEpWnRqNhCQh4rh9aPKIEqUROKrj5BKLLhChY7RXTKhpdZr0IXx8lSCUSu7S09keX6QnQtrr7v/LFUQL7vmmaxCCVSI12U83LxWkztF7SnXdPo0PYH5Yjce6I0uCMSO0diKnRCxCsLJuoQxZg9d+nIKitEpwROQv14O2PidGrsSjESj34TcXy+LkI62MWpBKp1NC2tShrKPVVDwlzMaKrWZBKpNbCL2QGplbSdWnBkHxpv7x22LXKIJVo357tcisds0BH4iax1c4620EWJzdEhT+LqKE94O2hBKlED7tK3dGe710xcVLEqDBE9PeT1i/r6uUMFw8d+o4ejbg+wuPYSSfhNax+eTiGdPZUglQi+bkChvbEs0pJeSVQde6HNc/3U4JUInEbXwyfNACRlh9TyXVEf2wZpBJdR6atLmhWePfsKCdR/zELW2oQpBJ5N5JfZ1GhZeamuzP6d33QSdiJDN/tQ9xPSqHdNMZTvhppLvvY6Qr118m3PTo1k+e1bVrBW55VZCFKalGmBKlEV09JrdnGVBmkEjkherf44MXQ9S3ABLmQiIisYKCKiMjutPCU4lS5uPyD+Q94Z3g9MRYThnWFp+k6pKkb5J/MRBYav4TWvTVwKslB1qYYfLNYSU4e+xrStqbi2g0rF4dOY9FqQj+4Cd/uhnPbcDx2rLxN3DtIP2dAiZMG7Sa8iSb34re/JhBTR/lCVaBH6gcLER4aivCVqZDalGl6Y9QkaS2ZOgwLpgVB4yzUw/ntWDZ9PELF9V9dhu3nxeiJBoHTFiCs3MV/IOa+EQZfMRh1PR3JyyIxXtgmNDQcs5ckI6NAXssu1syWXo88xSK1JqmY6rwegBEvDIWvcI4yZqdg2avhyusU6yEBKadzkG8zoGFEkI+4X7ri1O6628nGPxOCgS2FF1iSj8wDKYhZLge2XvrvViQeyECOtbjJr3nIPnkEiWs3YdY7pvV3YtdlcWVnaJ/wx3h5TeDkful+edqv5M4SW9GYysqmCi18PDogapgv1MLbL7qajk+Vbnlj3vkIb2zYj5NXbUXv3NC9Zxu4FOlxdFsyXhK2eendg8gUu5ipdOj1eHUDaW7wVr5U8qsMIDXGc93ESLL1JOo2qVQY0i0Q84O0QGEWduypMF5jranb9BJek6vU2inxy7zqv6Zq84C3h3h7HZnnxVEMTJwxvP/TWDymB7SmfwBc1fBTZu0la1NjnBY/lhYFGDNQLiMioooYqCIisjenRnhYOrvexi1TKywXLwSGTcHInp5QleQi/cBpueuHq0a4VCSywqMlGon70Z0fkZt+ECWm4MCdsyj4LhoZH8bAcjR0pyeGoZVwjVdy+Quc2bAShXeUy7z8L5C7YQEyxG55rp3x6F1efZUbJfCtzZAvU8Wuf+bl4mTnroAFGUj+awQWrpcDMzmfxeJLKYqggrZ9kDgj0b00FP5i8OVKCqJfXYWUbLkecs6nYNWr0UgRX5O6M/qPkoplz4ZBvO6GMR1r/xiFhJQs5SI5Bxn7L8BaXLDB1GU9CFo2lyNXOWc+R8p5U/dSsR6SsezP4Zj/rlJkaeCv0IlB+AIVTh2Wi+zOww/PiLmLxMDRhq2IOnIdR5XPJteQj0+PHMGsAxVbYiVu2Y5ZKRn49JoR2cqxlGvIwYqPU+XcWCoP+FY5jGvVwgf4QysGqbIOYkHSMST+VCzvRyXF+P5yFqLFMmlNKwqzsHPtbsScuyN9P+TmXsKWM/J70T7WQrqtirpNe/iJDcpKruDYt1V0ufdoix7ie7aRRL0csYtb6Yh/4zBraAeo9ccQn7gficpp5q45eWLecD+oxc92u2WXPDtxcoFK+n4uKBtdUqXBvPDRiOyjhUtJDk7uPiWf05o1t/8IfQYXZEndOA3QdZNKiIjICulUTUREdvSIBkrPAYnzI70wcvJI9GohXFzduoDdGz7CV6ev47ZyP5FVV89AyjPd1B9+f3wH7q0r5jSy5NpWJ32x/5K2GuZtBWRnkS8FKlRo1nqQXHRP0SPlr7ORUC4HkwEXrslXySonMXghG9pRvrzM+nYNKqZsSsd3WXI96DqWdZQL6dle6oZrTD+ADfa68K4TdVsPorQf5dCjNiQG8fMnIsjbosmVLZ1/hdTpTu+Cj6QC++veubWU+BuXTyLRHt3CSkogx7mc4WLqKltrWvRoLdZ/PtK/voTv5cJqyz6wH/EWMbZ912rQ3E6tQ8xIMdAD5B49hnjLSLaFKpOoV8HlsV6IfGEAZtkhwCcaMqgvugsvvm66/CkebVbuzyH3Fr5YMXU4+rZsDOSdx8Z3dyL6uxwlSF0XHsK3l+URf5trK56liYhIxkAVEZG93cwrDUJp/EdiSlggvITfwLczd2Pdht24ILayUqmEyyKiSpSsx6WkL3HjjnBB+Ehn+L20Ek/8ZTP8JsbArZW1//n7oYlywdgidLNFrih56vlENQMODikf+VYShe9dJHdnG79or1IShJZKPehGbcSOHTsqTHP7VKyH1h5ymf5iFcPUNbi6rQdRauzb2JAuXqqroRswBQtWb8SWpHgsmROGwEqCEjpnpQmMcGPH1Nrl9G4hvwDDzznKKIHV5NQYw/sEIn56GLa8prQMkiYxObadeLaAVooT5iCzFhVgvJu4hUqD6InCe2kEFF3ajyX7bOT3MnHyQnAnV+FJM/D18Wo8cWkuJvNujEYpODZkYr+KI+TVkPqxHoh43K0Ou/wpSkfuA7SBA7Dm+T7wFhPPn9uL6HdTkSRWWyOVFOyrM9qelHAAADd2SURBVEp1u3kwUEVEZAsDVURE9mY0Kr9DvdCjrxdUuI0fD3yED/7vAm6ZujK4u8mtrvJzpK47RFZdfhvn/vkG0vak4ZdfhIvCh9Vw7xiILi+vQc8pr5UlhZYIV8j8VheoLOqlZozFddeWon7dTT2kY23UeITHJiP1vB4G4YSm0ujgHzIVixKTsGSs9b6jUre/ulabVk9OboiOCENk/w7QNjNLvm5vwmtzUWbrldoTMS8MR4A7UHT5CP6VnFVla67SJOrnMmo00p+ktBvjdhy+ISw3aoO+ve8iGb2YHD+0W912+TMpNCpBMB36DtQJn1c+MndvxfRtV3DS9Lweakjjndy6WWcBVyIiqhx/0hIR2d1VXDf11rhzBV9v/gA7T5cNRi5yb9sKUuP/3OtKfh8iG0rSUHDgDZxfOQrfLI3GyT0ZMAgXVI3aDkW7IH9lJdGXKBAvGgX67Za5ospPpz7/Ul7xvrQXWb/IcxmfmBKWW5/KWh8JlMYNHi3LcjyV8RAbQdaY2rk+Ije21LIezOTsTcDCVyMwfuR4RC5LRpreCDhr4P/CdExU1jF3qED5WSnc2D23jyLjhtxSSKWu/hCM3j17SUEcKfn6np2IUpKvy5MpWbodXL2pnM+bQFNx4MG6ofbC2+Eh6C4GqS4dxFsfZ+BwlYGexni+h5JE/YyUMKmW7iDtstw+yVUZAbBWHm0NP6k/pxsCJpu3dhOnEQhQ6tInRCmb1g21z0Oeg59NX8cFWdj1wVZEfZdfrgVXgG8ruUXVjRx8LZXUjbwbbFdNRGQLA1VERHaXi0tX5M5/xdfPI10JHpRy8oJ/J+lXOfRZdrtEogeBMRWGAzNx7ph8WeXu/YR0a2K4LI+Z7tn+RenWcakRMjcRW8QuaJsTMTfEvh1tUpUcS7rOU6rdhSf1sryNps0TFiN9+WHqv6fA32pcJAcGJV+1a5PyoRl1yAKsfqauwjXVU5t6sM6ArJQEzJ+VIrcwUWnRfoB0R3kXnSGFkbRFdTb0/r7saygSbl3ad8asar6p3+nEoIzgchqij+cgU0m+LlE5iW0RK1EsdWUUW6ipquzedg3ZUtzHEwFPet5lnVdN7dYGcRHB6NQMKMrYjwWbLpW1CqqMrgu6iyPfVSeJeqUaw18cvQFGZGfb6GootpYKD5MCTBvDO2BIHV55dOociCSxW+drI/B2Z1ufaj7SsuTgWtHPF7HFMk7n5Ikx3eQsVtk/1GAkxBro3lL+fXBTz0AVEZEtDFQREdWBK9+mQS9cMDh7P4Vnn/ZT8pYIy83bof+YofATm1PdOo2vT5lfMRGZ6fEOuj0fA/f2/eDc2HTJq4bTI5Pg6SMv5+m/kW5NilPT8Iu43/lNQveJr0GtNUvA7toP6idi4DvrHTnhdUNST8LIYK0cIGiiRfC4F+3aAidtq3D8Cbcqv4l4799zEDbAF6YEypoOQQibuQjxSXGYqpSJ0r7KkLvhegXjtTkh0AlVrOk9EYsSliKsg62L3jT8mCMfw9onZ2BiD/Fz0SBw0hKsnh0ETQNfh9amHoBgLFidiLi5ExHSs2x9ePoiZJo/xIERYdTjwn6ptLwvXJAlVkeTOwh4Wi6yu3PnIKXPcvLCkBefRkw3DXyUj0fdyBWj+/TBiv7l9/CsW0pWokfbIaKF/KGY1k2a2Q/eUoktN5At/dnQGN2H9MJ4D+dKAlB38PEpeZhLdbensXqML0aXru8Mn1Y6xIT3QoS0fHfUj3VA3JR+Uk4qMb/Sgi1Vd/czGd7ZW3pNtU2iLjYv7C69l1D0FQNeuen47Jx8lyV1V38MFBOVC1xaBmJMTysHhXn+qwrTdhxVYmCZKUrZmlPYJxeZccNz/TtALV7ZOLmh01PdMFy+o4KdB09L388ubYKwOFSHIUoA0t1di+hJwVJCdzFX1pbq5O6qMSPaS3HTZrhQVyNjEhHdBx4KCAj4LS/PNH46EVHdKCysYphsB+bZbzLGdjMfx8+aWzidvA4HrimLgqadR2LCQDFHlRXG6zj22Wak/qws1xMfHx9kZt5frbjCwsKQnJysLN1Heq1E3xG2R/oruZGKtFXRKLRoQeEsbPe4sJ3tXDkZOPPWTLnli2Qa2r05Vg5AVCL/m7dtdBk0bW/ADwljoZev0yvXdgbiV40oC05dSUHk1GXW88EMXoSNrwcKF9YZSA6djQSluCp+05Zj6bO+lbSWsXw8NSbGJWGKX8UtjPq9SCsIRmBbuRvd7DXKHaLBC5D0elBZQKeUERnfZqJlbz+oM5MROqvsmaau2IGwqjJ430xF7KSFKO2UV2/1EIxF6+cisLmyWIHwvj6ZJ9SBlYzugph/XxXq0IjCY17oOP+uh9GzSgrSjA2E1kYLJ8Px7QjfY9bCp2U3vDepB9yt/T1bkgdDgRvU6jwcTdqOGLlRYjneXfrhneFtrB5TYvAk6qSyIFEhfOQwjO8oZTmyIguf/ms/EpUlMcASPU3u3lbxsQTdB2BLiHCkXNqPMZtMR4gr5r08Cn3lhrmVqvCYTl54e2YwOgmf+8aVR6qRn0qHuMoSzosj5a1LRZKNpkfeAcFYEay0aBPo932EyNSaBICqqJ9SGsT8YbgcZBIVpCNx1TF8qixa6iTU62KhXq2eJwv12Ld5d52MPKh7MQ8HJucC1zwx9/mmdTY6JhHRvY4tqoiI6sjts9uwdtMBXPjlNopNFwPFRuReSsW2TfUfpKJ7zHerS5OoF5ldTBblXcXlPStx1EqQSlR8bCaOxm/GD5k5KPxVKRQU3zEg91wqzry71CxI1UAuvo/Ne/WQ2iIV6LH34zV2T1qcvmY2IsRk4Bdzyo+mVmCA/nwqkpfFYr1SJDNgQ9Q8JBzJkpKHS4w5yNq/FgtnxSLL1gX9nsWIeTcVWWYX6gZ9OrbHRmD23ob/I7Dm9bAXy+KVJOoFSpFIOHflXBTWF9+XjSCVKHqXKwqF20bdbiPGdtOju2L46TwiV2/FzpNXkFto9qaMedCfPYj4AxZ7+NVTmLMpFdk3zFqwKuuuWLUdu6pI05R95iDe+vSYsP0dpRtgZYxI2rYV0cL6mdfyyo7dkmIU3cjC4U9T8bFSVHtOtU6Ub0qibvj+XM2TqJv8egeGa5dw9IuteGmN7SCVKPv4Mey7Kv9RVXQ1FRuP1iRIVRM5+PCr81L+PjH4+P2Xp2wGqUTfn9yPaWsP4vtr+WWfqfC+cjOOIH5t3QSpgN+wIFg8Jzgj63ATBqmIiCrBFlVEVC/u5RZV9xO2qCKqDX/MTVyCYK2VFlVk4TfEJ17BMK9i5KV6IXTBwxw5zWE0xryIMPT1sN16jOqObnIedr+Yi0Y3H8Hi59TgaYSIyDa2qCIiIiKqlAbquxh9/8HyECLjPSD2gnYLzEXsULmUHEBpEvUL2MEgVf3yK8R7k3LRCE1wbAODVEREVWGgioiIiIjs53AT/DnZHYW4jaBZeYgtP4wiNZDwXj53l0Sdakf9K9b/7Traq5yRd1iDV9gAmIioSgxUEREREZFdfRnvhn8cVgOqXEz4n1tYUJZPmxpI0qebpFHzZtVZniiq6DfELv0FQZpiFGZ64pWF7ApLRFQdDFQRERERkd2tWeiBNWmuuJbWBO9XZzRIovvOQ9h5qgnyMrX48+uNYG3cVCIiqojJ1ImoXjCZumNgMnUiIiIiInJkbFFFREREREREREQOgYEqIiIiIiIiIiJyCAxUERERERERERGRQ2CgioiIiIiIiIiIHAIDVURERERERERE5BAYqCIiIiIiIiIiIofAQBURERERERERETkEBqqIiIiIiIiIiMghMFBFREREREREREQO4aGAgIDf8vJuKYtERHWjsPCOMkcNycfHB5mZmcrS/SEsLAzJycnKEtWG2/Ofo4uPslAqA2femok8ZalK7iPxyOCx8OrYEmqVUibK3IzDH65RFsiSbtISxE32hxoGpK2Lwvz1Wco994dpi24gEm54duHDqPjO3BA9bQQC3IRZYwaSlh/BRugQ96cBkHbHn45g1roMZIvztqhcEdG/J57q4gX3Rs5KoSDvBOLWnMI+ZbHhNca8iDD09cjHyY+3Ivr++pgbVMS4yRjdRpy7jn1rUhCXZ7ZfFaQjcdUxfCrebWHavFy86KFG9FwXfKmUERGRY2CLKiIiIro7rtPQbvpMdOhmEaSiKg3t5w+1GF9xVsO/31C58D4xbdEvWNA3Hy06FWKYWiksxwiDUZm9Y4BemS1lNFYepHJyQ/QLozC6p658kMquGiMiJBjvzR6O6JZKUW20bI/uHsLtjXPYwiCVXeUXmnaiAuRYRtaLjMhRZsvx+hWDHzdA5/8z/rPoV+iUYiIicgwMVBERVZdTM3j1fBpjX4hEZKQwTe4PT+WuyjTz6oWnx70gbxM5Gf1bKHcQOYi8D4fh8FvKlJCKfKW8ulyHjYS2MVCSl4H0d6eVPZY4sTVVpb44mAZDsTBTbEDawS/kwvvAoMg8/LmvATC646O/qbFGmK3oDnIqlN+sGGywofuTfRHgLswU6nF0WzJe+tc6jDFNdmtN1QLdu3vBXXV3gbDhPXwgxuqyT5zHUbmoIrF12OABeO/VydjyJ2EaV3X4pHt7P6yIGCevL06zRyA+tA0G1kHA2L2FDtHjRmDLa/JzxXVX7rC3GtaD3mDZYjsP2VajU2auPIxJf/PEBWMx3Pr+gvcif1PuICIiR8BAFRFRFZybt0avp8fihZcnY+QT7eHZVLmjMi7N0FoJak0eGYj2j1RnI6J70SCovcSrYiMub52J3MtsLlITWevnY/zIUISOHH//dPvzu4OYsFw0ghqHVrhhbrpSXhlDASw7JRtybipz1vV+TP6rQH9kL2LO3UGutOSAnLwQ3MlV6t749XExKlme92NKAGim0jrsYeWOKgwZPBwxo3vB28MsKqVyg7ZzP0S91AfhVlux1ZCTM4Z064YVL0/Ae1MGIKCNW51dPdS2HkoVGHBDmS1185btwGB6I7y04hHkoRDthf31vb5KORERNTgGqoiIKtUMvUKGI7C9J5oKF+LXz36Fr85Wndev2eOhGK4EtYzX0vHVV+lgNkC6P7VEYykOW4RfmYqO8BtiX82VulLlHXbHpCoaid24pew0pd38zLoDVtrIpTE0SiDGcKdi8MeRePfsiE4q4XV+fw5JJUphKS1mj1MCQMhD5oGd2FeNeKW6Yx9E9tQIc0boj+9GzHKxJdlHiNpwBNkFQnEzX4z5nRe8pbXvQvveiBzaA97uzsLLy8Cuj1Mr745Za7WrB1HmLaUNqFk3v9LugCUlsNqYT5H1hRr/OSyewG5hUOQdDJKLiYiogTFQRURUqVtI+/4Kbl1KxbYNidi8Lx3Xq3FNdCvtLK7c/BGp29YhMfkrpP/i2BdS5KjUcPaLhu/MrQhc8Dn6vilMC7aiy/MxcNOKF6k2uE9Ci+fXo+dfyrbp/tLbcHvUHk0sLLnCqS7zUg1ehI07dmDHiqnSoiZ4BpYnbcEOsUyYNq5ehDA/6a4K1D0mYsGqJGzZJq+7Y9sWYf0lmPJkJfXgGYypC+ORtFnZRpy2bETiKrls+TRlPUkwFq2X1ylfrpi2XN5eee2lTOUWk9XHMGmAepjxj0Rs3KJsI04bExE3ZwT8K9uNRhowxscIqctfbNXd5XKKTFEpE2vdAa1RVS8fWstuSFK6j6kf64AVf5iALX+agKQxOnQS7h7S72lsFLuyvRaGuO7KA3YfUNaVzpTYHW4ICDeVlU1Vd39rjOd7eAm3OTj5rbX+aHrsPXMd+pP7EbdyO6KO5CCnQjDLUmPM7ucLF2HO8F0KovbocVSqxmJkXs7ArA2p0AuP4eLbDc+JcZ+7ce4cTlzX4+QXW/HSmiNYkXUHlp+YfdSmHmTZVgKVFbsD2rYm1g2nxTfldQuvjJTLiIioYTFQRURUBeOJbVj3+TFcqUmTKOMJbNuwE8dqtBGROTUaDUtAwHP90OIRFZxN39hOKrj5BKLLhCg0UorKaRWNLrNehK+PBo1MXWeEbdSt/dFlegK0re4+WCWOEigFwKRpLLRSqRrtppqXi9NmaMVrdHvQ6BD2h+VInDsCvpqyCIXaOxBToxcgWFk2UYcswOq/T0FQWw1K0ws5C/Xg7Y+J0auxKMRKPfhNxfL4uQjro4OmiVImUqmhbWtR1lDqqx4S5mJEV235YJBaC7+QGZg6WVm2YsGQfGm/vHbYFYurEXDat2e7nFNqU1nzmcRNcp6p8D3lk1UNHDzCLEikjOom8AkpHzwSpwoBJKcWmDc6EN5y5nqoxSBOnz6I7KuFi3hsOTWGT3BPjJdWtiNdFyWJ+g/4vwr90mQ7d6cgMiUL+6obAXLToZ34mCVXsO9AnkWLIRVGP94aHtL5whOdOlUdLKxcDmLe343oU/l13rWyxvVgcnJ/hbxk1vYrmwwqvC/sr2Iy9l5DjEysTkTkABioIiIickSNX0Lr3ho4leQga1MMvlmsJCePfQ1pW1Nx7YaVqzmnsWg1oR/chG93w7ltOB47Vt4m7h2knzOgxEmDdhPeRJN78dtfE4ipo3yhKtAj9YOFCA8NRfjKVLmrj6Y3Rk2S1pKpw7BgWhA0wjW64fx2LJs+HqHi+q8uw/bz4mW9BoHTFiCsXIwmEHPfCIOvGIy6no7kZZEYL2wTGhqO2UuSkSF2p7KXNbOl1yNPsUitPBVTeXVeD8CIF4bCVwUYs1Ow7NVw5XWK9ZCAlNM5yLfZ0sWIILE1FVxxareD7WSt/NC9yRXsWvMRNl4QX6MGAUG+QNZBRC/fj0zxPalawE8c2c8U+JAm4T5xe+ThaJKprGyKOindadP4x6uRRL2mvB+Vg8M3LuNQoVQiU2kwL3wUInpqpdZWIlc3K4FIquCj3Y1xTZzxu4PZUgkRETUkBqqIiIgckUdLNBK/pe/8iNz0g2KqFdmdsyj4LhoZH8bA/BpV5PTEMLRyBUouf4EzG1ai8I7S1iL/C+RuWICMK8K8a2c8aqOLWHWVGyXwrc3QS6UG/JBgXi5OY6EXn9NeCjKQ/NcILFwvB2ZyPovFl1IUQQVt+yBxRqJ7aajcPe1KCqJfXYWUbLkecs6nYNWr0UgRX5O6M/qPkoplz4YhSLz6N6Zj7R+jkJCSpbRUyUHG/guwFhdsMHVZD4KWzeXgRs6Zz5Fy3tRdTayHZCz7czjmv6sUWRr4K3RiC6wCFU4dlovsqbSVjDRtx1GlwVVmSvngkThVCCAJx5Ih7RhW5BUjy5QXyykHR3ddwknjTeTUdKjL6nDyQu+2YsTPehL12lKrlJ/vhjswvU13nR/ipw5H35bC891Ix87vrkvlak1z6ZaqcFiFLCkYbYRuqFRCREQNiIEqIiIiR3T1DKTr6ab+8PvjO3Bv7SuXV8K1rU76Yv8lbTUqXhafRb4UqFChWet7MWWwHil/nY2EciPIGXDhmhx8UZklyhraUe68k/XtGlQccC4d32XJ9aDrWNZRLqRne6FEjFMdwAb5IR1U3daDKO1HOfSoDYlB/PyJCPKuZquczr9C6o2nd8FHUoEjuYKvD5bvSlh0IQ3LbXTHs4fKk6jXXoCHefDJGQP7DMCacb2gbVIMw9m9iH7/GOJ/tmcTwAfBw8iSdvvbeLStVEBERA2IgSoiIiJHVLIel5K+xI07gMsjneH30ko88ZfN8JsYA7dW1rKo9EMTebR+tAjdbJErSp56PnEvdwPKR37FaAv2LpK7s41ftFcpCUJLpR50ozaWJQI3m+b2qVgPrT3kMv3FKoapa3B1Ww+i1Ni3sSFdDGKpoRswBQtWb8SWpHgsmROGQOUxrdE5K9EY4aaaA7bVo2IYLJogGm/lW+R3sqeqkqjXXukod05qzHpuNKL66+Ai7Bff7/wU03dcwUmh/r0b321uqgfPHWX3fbQlBz8hImpoDFQRERE5qstv49w/30DanjT88osReFgN946B6PLyGvSc8pqcBLqUit/qEpVFvdSMsdihm1PVwN3UQzrWRo1HeGwyUs/rYRCu21UaHfxDpmJRYhKWjLXed1Tq9kcyUxL1n87hQzu32iod5U7XC0N0jYFbl7Dzg61448yd0sCbn5ucad6QU5MEaERERI6BP2mJiIgcWUkaCg68gfMrR+GbpdE4uScDhhKgUduhaBfkr6wk+hIFygWxfrtlrqjy06nPv5RXvC/tRdYv8lzGJ6aE5danstZHAuXa36NlWY6nMh5Q1SIIo3ZuyMhNLevBTM7eBCx8NQLjR45H5LJkpOmNgLMG/i9Mx0RlHXOHCpSflcLNgz5yWngvJYn69xeRLRfZz085pSPwFWUdwdKEg4iXU1IpGqN3a3EUO+Fc8HP57o5UtZ+vsjUaEVFDY6CKiIjoXmFMheHATJw7JrebcPd+Qro1MVy+Kt16tn9RunVcaoTMTcQWsQva5kTMDbFvl8RUJceSrvMUKVhQHamX5W00bZ5A+fZCfpj67ynwF0cDrCBHzGctcW1SPjSjDlmA1c80bLimNvVgnQFZKQmYPytF7tKn0qL9AOmO8i46QwqLaIswQSq4HxRLXRnFFmqqRlJB1Rq1wZM+KuF4tW8S9VLXL0NKLwYjss5exGGly5qJuo3SmqvkCr4/J5dVoPbC29MmYMufJiAp1AudlGK7c3JDVHiY8DyTsTG8A4Y47JXHr9A9It42xc8XpQIiImpADFQRERE5oh7voNvzMXBv3w/OjU1hBjWcHpkETx95OU//jXRrUpyahl+Ei1Znv0noPvE1qLVmCdhd+0H9RAx8Z70jJ7xuSOpJGBmsFTsrAk20CB73ol1b4KRtTZNGIlT5TcR7/56DsAG+0Mh3QdMhCGEzFyE+KQ5TlTJR2lcZ0gh68ArGa3NCoBOqWNN7IhYlLEVYB1sto9LwY448HKD2yRmY2EP8XDQInLQEq2cHQdPADTNqUw9AMBasTkTc3IkI6Vm2Pjx9ETLNH+LAiDDqcWG/VFreFy7IEqujyR0EPC0X3ftuIFtqqdgY3Yf0wngP5yqDft7d2sFb+IVt7yTqZXLw4VFxyEYVfIaE4O1ubtLziYnVAzp2Q9xIP+k1Gk4cw4eWQ4MqBvbphU5u4g4qvJ/OvfF8HcVU1V39MbBlY2nepWUgxvR00NZKvYrQQcxRb1ThtKOnqSMiegA8FBAQ8Fte3i1lkYiobhQWKs0O7kGe/SZjbLdmypItt3A6eR0OXFMWW/TH5LCuqHKrU5ux7mC5Pht1ysfHB5mZ0jj2942wsDAkJycrS/eRXivRd4Ttkf5KbqQibVU0Ci0uhJ2F7R4XtnNRlivKwJm3ZsotXyTT0O7NsXIAohL537xto8ugaXsDfkgYC714/VyVtjMQv2pEWXDqSgoipy6znoB78CJsfD1QuPDOQHLobCQoxVXxm7YcS5/1lYNhVlk+nhoT45Iwxa/iFkb9XqQVBCOwrdyNbvYa5Q7R4AVIej2oLKBTyoiMbzPRsrcf1JnJCJ1V9kxTV+xAmI+yYMvNVMROWojSTnn1Vg/BWLR+LgLNB5YrR3hfn8wT6sBKRndBzL+vCnVoROExL3Sc/7BSWhfcED1tBALcgMyUdYg6qRRbatkNSeE9hHrLwqf/2o9EoWjg4BGI6ukGw/HtCN8jHgmmx8rD0aTtiJEbJpby7tIP7wxvY/WYqvjcjTEvIgx9PXJwOHEnllYjP1XEuMkY3UZZsKns9ctUwnajhO2sf7JFV1MRv/48dtkIlA0PGYXI7nL3QOAOTm5KRvQlZbEcHeL+NABV7a64tB9jNlU8gr0DgrEiWEwqL9Pv+wiRqdZbmdWuHuxjwl9vIHZgPpDeEv1fVVk/FxERUb1hiyoiIiJH9N3q0iTqRWYXm0V5V3F5z0octRKkEhUfm4mj8ZvxQ2YOCn9VCgXFdwzIPZeKM+8uNQtSNZCL72PzXj2ktkgFeuz9eI3dLwzT18xGhJgM/GIOjObXxQUG6M+nInlZLNYrRTIDNkTNQ8KRLCl5uMSYg6z9a7FwViyybLWM2bMYMe+mKl2xZAZ9OrbHRmD23ob/I7Dm9bAXy+KVJOoFSpGo2Iici8L64vuyEaQSRe9yhdiIp1G324ipqunRPSL7zEG89ekxZItDcNraD0xMSdQvn7F7EvXyjEjc9Ani9pyHvnSHFRTmIPPATrxVSZBKtPPgt/g+T9yuGIazh/Gh1SDV3cs+fgz7rsp/VInBs41HzXdCB6H+FRMDxJEUm+DYLgapiIgcAVtUEVG9uJdbVN1P2KKKqDb8MTdxCYK1VlpUkYXfEJ94BcO8ipGX6oXQBQ8/UBf+4aPHYXx7VeWtvMihTJiXg9hBwrVQphaT/tgIh5RyIiJqOGxRRURERFQpDdRymh2q0kOIjPeA2AvaLTAXsUPl0geCWRL1o6eVMnJouqEGLBCDVHDD5/9mkIqIyFEwUEVERERE9nO4Cf6c7I5C3EbQrDzElh9G8b4VENiljpOok135FeK9Wb/ADY1wIbk5Im33aCUionrGQBURERER2dWX8W74x2E1oMrFhP+5hQVl+bTvW0cP7MSYf61DeIo0fiQ5tGKs/9t1tFc5I+/wI3gp/iGlnIiIHAEDVURERERkd2sWemBNmiuupTXB+9UZDZKo3jhjz/dNcC1Vi4kLH6w8akRE9wImUyeiesFk6o6BydSJiIiIiMiRsUUVERERERERERE5BAaqiIiIiIiIiIjIIbDrHxHVC3b9cwxi17+rV68qS/eHYcOG4fPPP1eWiIiIiIjoXsYWVURERERERERE5BDYooqI6gVbVDkGU4uq27dvKyX3PiZTJyIiIiK6f7BFFREREREREREROQQGqoiIiIiIiIiIyCEwUEVERERERERERA6BgSoiIiIiIiIiInIITKZORPWCydQdA5OpkzVuz3+OLj7KQqkMnHlrJvKUpSq5j8Qjg8fCq2NLqFVKmShzMw5/uEZZIEu6SUsQN9kfahiQti4K89dnKffcH6YtuoFIuOHZhQ+j4jtzQ/S0EQhwE2aNGUhafgQboUPcnwZA2h1/OoJZ6zKQLc7blTMGduuM5wI7wtu9sdnftnk4mrQdMVeVxVqIGDcZo9soC6Wy8Om/9iNRWaqJgP7DEd1HA8PJnQhPyVFKyVxZnV/HvjUpiMsz268K0pG46hg+Fe+2MG1eLl70UCN6rgu+VMqIiMgxsEUVERER3R3XaWg3fSY6dLMIUlGVhvbzh9pZmHFWw7/fULnwPjFt0S9Y0DcfLToVYphaKSzHCINRmb1jgF6ZLWU01kGQChgyOARRQ3vA28M8SOWI3BDaWSPc5uDktwxS2ZJfaNqJCpBjGVkvMgq1Z4XXrxj8uAE6/5/xn0W/QqcUExGRY2CLKiKqF/dFi6qmXREyZSJGPNEBjzYVlvO+w/LpS3FQvteqDiGRmDKyDzq0EDcQFN/Gz+cP4KPl/4uDv8hF9YktqqhKXjHoNjUQrjVoUeU6biu6dVGhJC8D5zYuRe7l+6tVUF26X1tUDYrMQ3xYLhoZ3fHRn90wN125w0Jpa5i8E4hbcwr7zFtZXdqPMZvsXB9uHRA/LRBaGKE/vh+rD+hx1BTnsLeW3ZAU3kP4bGvZokrXC0nP+UF9+SBmbbhkJWinwvA+/hjT0wdaKdopMFzH90cOYcnxfOTKJXYkt0Qb06stdM3VcFEpz1n62dmJyhUR/Xviqe46uD8sLFexHwwcPAJRPcUdpqyeK+5XVvgVYvc/9GivaoQLyY/i6fiHlDuIiKihsUUVEVEV3B9/BpF/+w/+d000fh+sBKmq5I6QP/8XMb8fVBakEjk3xaN+IZj9r6V4ob1SRnRPGwS1l9iMyojLW2cySFVDWevnY/zIUISOHH//dPvzu4MYMUgFNQ6tsB2kKsdQgExl1sSQc1OZs6M2LaEVb386jpg9dRiksoPwXj5CDRrxfZqVIJVKg+iIZxHZv0NZkEqk9kSnwaOwZowOnZQie1C7eeHtaeOklmg+LdzKglR25P2YDtHjRmDLzFEY3VMJUtVEgQE3lNlSN2/hqDJbQXojvLTiEeShEO2F/fW9vko5ERE1OAaqiIgq1RUvvPwCBvk9iqbORfj5xGf47EQ1WiM9MxsvBLgLM7dxMSUef/r9REz8/Z8Q9/Fp+V/uxm0x6LkQcY7oHtcSjaVYbBF+ZSo6wm+IfTVX6kqVd9gdk76QS225cUvZaUq7+Zl1B/xNubWj7m5N5Jk66lZoN43a4EkfFWDIxN6zSpmZ0U8PQoCHM3DrEnau+wjh/1qH8BVbkXRK7ujm4tsTz9urP1sjL8RMCUYnN+H58rJw9IudiP7vRxgjPKc02aU1lRazxw1AQBuxZVQeMg/sxL5qxm0zb+XLM2bd/Eq7A5aUwCDPWZX1hRr/OSyewG5hUOQdDJKLiYiogTFQRURUqdNIPn4RuZlf4n/fisQr//MBMouUuyrz2b+w4cRlfPffWZj3v1/ishjbun0Z3yTHYNsZ+QGatu2FftIckS1qOPtFw3fmVgQu+Bx93xSmBVvR5fkYuGnF3DU2uE9Ci+fXo+dfyrbp/tLbcHvUaqKgu+QKp7rMSzV4ETbu2IEdK6ZKi5rgGVietAU7xDJh2rh6EcL8pLsqUPeYiAWrkrBlm7zujm1bhPWXYMqTldSDZzCmLoxH0mZlG3HashGJq+Sy5dOU9STBWLReXqd8uWLacnl75bWXMpVbTFYfw6QB6mHGPxKxcYuyjThtTETcnBHwr2w3GmnAGB8jIHb5i6261U1OkWWTpjvIqSyyoOje3g8rIsKw5bXJ2PInYXptHN4b1w0RLSp/Tk2j6uysYkJ34TGndcNAtRfefnmC/BwvdsMQ4Zdzp86BSBKf97UJeG+gm3CU2l9AYBd4C8+Ve+oMdipl5j79Yh9OZp3AioSDiP+pWArGGArzsfGLVJwsENdwhU8HMehz90YH94ZPI6Do0n68sWY/Yk7l4KShWLnXXvTYe+Y69Cf3I27ldkQdyUFOiXJXFbLvVHwtekP1o+ZrYt1wWtwNvW7hlZFyGRERNSwGqoiIqnD5f+fhD3+JR8qZmuR1uo3P/udPWLq34jaf/XBZmSOqjBqNhiUg4Ll+aPGICs6mb2wnFdx8AtFlQhSEa8eKWkWjy6wX4eujQSNT1xlhG3Vrf3SZngBtq7u/rBZHCZQCYNI0Vu5KJbzedlPNy8VpM7Re0p13T6ND2B+WI3HuCPhqyoINau9ATI1egGBl2UQdsgCr/z4FQW01KO2l5CzUg7c/JkavxqIQK/XgNxXL4+cirI8OGqXhjUSlhratRVlDqa96SJiLEV215ZPjq7XwC5mBqZOVZSsWDMmX9strh12xuBoBp317tsutcsxyECVuklvqhO+xniFtyODhiBndq3wydGEfd2/TA6PHdMZApUgi5okSg0zKJOcyErQZUFpWOo2zbILUBL8bHYxO7krFefZA6JMdEDWsA9Ti8zo5wz2wLyLtEw8yo8GYbnIS9fQzNgIuJdcR/fEp7KoQzLmOzJ+VWXtw0uGpLq4QR2XckpyF75XiurBzdwoiU7KwzzJ2WZWT+yu07LK2X9lkUOF9YX8Vk7H3GmJkYnUiIgfAQBURUT3r1/JReabQUAfJbum+0fgltO6tgVNJDrI2xeCbxcNw+C1hin0NaVtTce2Glas5p7FoNaEf3IRvd8O5bTgeO1beJu4dpJ8zoMRJg3YT3kSTe/HbXxOIqaN8oSrQI/WDhQgPDUX4ylS5q4+mN0ZNktaSqcOwYFoQNM5CPZzfjmXTxyNUXP/VZdh+XoyeaBA4bQHCysVoAjH3jTD4isGo6+lIXhaJ8cI2oaHhmL0kGRlSKxU7WTNbej3yFIvUmqRiqvN6AEa8MBS+KsCYnYJlr4Yrr1OshwSknM5Bvs2WLkYEia2p4IpTu+toJ2vUBmP8NYBwXJzcthWz3lGCWis2YcUXJ5Cd86uyoh24dkD3x/JxcstHiDkidyrzeSIQ2vxTiF++HUelOJonvMWk3fbUsSP8xM/k8hl8WCHpUlXc4K00tiwbDe8utPeCTvwos7KQVM0WTveij3Y3xjVxxu8OZkslRETUkBioIiKqT02fweDOcnL1y8eTcVqaI7LCoyUaid/Sd35EbvpBMdWK7M5ZFHwXjYwPY1CoFJk4PTEMrVyFa/jLX+DMhpUovKM0acn/ArkbFiDjijDv2hmP2ugiVl15HypBM2naDL1UasAPCebl4jQWevE57aUgA8l/jcDC9XJgJuezWHwpZeBWQds+SJyR6F4aKndPu5KC6FdXISVbroec8ylY9Wo0UsTXpO6M/qOkYtmzYQgSm4YZ07H2j1FISMlSctvkIGP/BViLCzaYuqwHQcvmcuQq58znSDkvB2jkekjGsj+HY/67SpGlgb9CJ7bAKlDh1GG5yO40zaARj4vC6/j2Qj6ylePCUGjErlOnMGtTevl8SVdPSfmbpNY1whR3XGmlJY4kZ1YuTZatb4TnKbp0HPEZxTh6U8mD5GTE9wdOYKcxD9mmqrGz8M46uNhKol4FdZv28BNbeJVcwbFv7z5pXN+WHsJrEer3tjMiBvdD/PRxZS3QXg3De2N8Mdwi0HlPOqxClhSMNkI3VCohIqIGxEAVEVG96YAXFk5EVzFOlfsNkv+XXQCpElfPQMoz3dQffn98B+6tfeXySri21Ulf7L+krUbFrC1nkS8FKlRo1vpeTBmsR8pfZyOh3AhyBly4JgdfVGaJsoZ2lDvvZH27BhUHnEvHd1lyPeg6lnWUC+nZXigR41QHsEF+SAdVt/UgSvtRDj1qQ2IQP38igryrGYno/CukXnB6F3wkFdSBn68hW4zQNumA518MRGQrFcRhK+rGHaSnZpUPFt04hY+tJDe3myqSqFdKrUPMSD8pZ1bu0WOIt4xk14LqYbnbo7r7AIzu2QbaZmX7Fx5uDHffPoiMGICIez5Y9TCypN3+Nh5tKxUQEVEDYqCKiKheuCNk3p/wTBsXoOgiPvtnHA4q9xBZVbIel5K+xI07gMsjneH30ko88ZfN8JsYA7dW1rKo9EMTT3muRehmi1xR8tTziXv5ajIf+RWjLdi7SO7ONn7RXqUkCC2VetCN2liWCNxsmtunYj209pDL9BerGKauwdVtPYhSY9/GhnQxiKWGbsAULFi9EVuS4rFkThgClce0RuesNG8Sbqo5YFvNlejx1uZU6AuF48KjA4ZPHIf3Xh2F+DHdEPGYs50TmxthtAz23DLgqDJbF6pKom6TSoPoiQNKk54v2Wc9v1etleQh+/h+rFgtjzA45l8fISb5mBw0bKRD6GA5U9297I6y+z7a0t6J4omIqKYYqCIiqnMd8MybS/H7x92FK4jL+PI/b+GDC8pdRJW5/DbO/fMNpO1Jwy+/GIGH1XDvGIguL69BzymvwaXct7iK3+oSlUW91Iyx2KGbU9XA3dRDOtZGjUd4bDJSz+shDvCm0ujgHzIVixKTsGSs9b6jUre/emD46TwiVyUj/kA6ssU+mQ+7QuvbA6MnT8B7z/mi7z17HJiSqF/Bt6k16Lan9kTMC8MRIH3FHMG/6iDpuSFtH2btycKuW/IIg0Axjv6Qjjd2Z0Acx9alZYvySeyJiIjuAn/SEhHVqQ54bvF8vNBFvIK4iJQl0YhPrcnogfTAK0lDwYE3cH7lKHyzNBon92TAUAI0ajsU7YL8lZVEX6JASbys326ZK6r8dOrzL+UV70t7kfWLPJfxiSlhufWprPWRQGlE4dGyLMdTGQ+oahGEUTvXU+TGqlrWg5mcvQlY+GoExo8cj8hlyUjTGwFnDfxfmI6JyjrmDhUoPyuFmzofOa3kDnYeOYZZiZswZnkyEg9cko4LF10fRAQ2Vla6t6g7m5Ko/4At1e22p/bC2+Eh6C5+xVw6iLc+zsBhpWWQPWTeknNzqdTWh7w05BggpW9rrFZG/7z3/XzVNDwmERE1FAaqiIjqStOu+P3bbyKsfVPgzkV8tmge/vcMg1R0F4ypMByYiXPH5DYN7t5PSLcmhstXpVvP9i9Kt45LjZC5idgidkHbnIi5IfbtsJWq5FjSdZ5S7a5gqZflbTRtnkD59kJ+mPrvKfC3ep2eA4PS8MW1SfnQjDpkAVY/U+fhmkrVph6sMyArJQHzZ6XIXfpUWrQfIN1R3kVnSB3OtEWYIBXUE+MdfHrkIBJPyEEV7WMe0u29xRnP+/vWKIm62q0N4iKC0akZUJSxHws2XcLJ6gapxADXtAnY8qcJSAr1Qiel2FJ21nWpBZWLrjVGW7lq6KTzlPetvBtW8qAJnNwQFR4mJV/fGN4BQxz2yuNX6B4Rb5vi54tSARERNSAGqoiI6kLTQZj99jyEiDmpbp9H8uJ57O5HNdPjHXR7Pgbu7fvBubEpzKCG0yOT4OkjL+fpv5FuTYpT0/CLcKHq7DcJ3Se+BrXWLAG7az+on4iB76x35ITXDUk9CSODtVLycjTRInjci3ZtgZO2NU0aiVDlNxHv/XsOwgb4QhmxH5oOQQibuQjxSXGYqpSJ0r7KkEbQg1cwXpsTAp1QxZreE7EoYSnCOthqGZWGH3Pk4QC1T87AxB7i56JB4KQlWD07CJoGbphRm3oAgrFgdSLi5k5ESM+y9eHpi5Bp/nKrGaMeF/ZLpeV94YIssTqa3EHA03KR3XXpg/fGdUNkO1d0aqSUCbw9tHiqras0r7+mNC28lzTyRvfHhNtqJlFXP9YBcVP6STmpDOf2YsGWmnX3G9inFzq5iTuoM9Sde+N5Wwfg1Qs4KVanmLz+OT+Mdld2aidnDOkWiPn9vYQFIzKPZeKkfE856q7+GNhSbuHm0jIQY3o6aGulXkXo0Fy4Napw2tHT1BERPQAeCggI+C0v75aySERUNwoL736Y7IbS78//i9kB4lB9lbmN71b+HkuVi7cn/vRfRAVWYyyqS59h4hsfKAt1z8fHB1evXsXt2/dPy66wsDAkJycrS/eRXivRd4Ttkf5KbqQibVU0Ci1aUDgL2z0ubCcOKW9dBs68NVNu+SKZhnZvjq2y207+N2/b6DJo2t6AHxLGQn9FKa5M2xmIXzWiLDh1JQWRU5dZT8A9eBE2vh4ItfC6k0NnI0EprorftOVY+qyvHAyzyvLx1JgYl4QpfhW3MOr3Iq0gGIFt5W50s9cod4gGL0DS60FlAZ1SRmR8m4mWvf2gzkxG6KyyZ5q6YgfCfJQFW26mInbSQpR2yqu3egjGovVzEShetFslvK9P5gl1YLX9DGL+fVWoQyMKj3mh4/yHlVI76j4AW0IqCWvmnsCKxFPYZaNl0cDBIxDV00049+7HmE22Ur7rEPenAfARjpKjSdsRIzZUND2v2XYR4yZjdBsgM2UdoqQojWm7yhmOb0f4nvLJzgP6D0d0Hw1yjyTjpQNVfV+6Yt7Lo9C3Gl8xZa+tvOEhoxDZXQ7siaMbntyUjOhLyqIF9WPdsHJiD7jb+HtbDJS9te2K1UCZd0AwVgT///buL7TKMg7g+M/MyZissouF0VUFBUEXEVFE1JXDq+40utGbJFSCoBCaGBgVJwS7CFpL1IjsnwMhcBdmQ/uzOLkSsrYKm5yyjdk2Zse5zWPtuLM8xabLjmfP5PO5OTsPuzkv28X7Pc/7e4oxa1LfwfdibXb6YeVT1/PicrF366HYUXpXKSufG4jMQ39EdN0UDz5Vc+UOAwBgVuyoArgCFpUdEQ+X5Zs3/h6iPl520z0+3Bu/HngtDk8TqYoKnevicPOe+PnYYIyeLS1OKJzJx9AP2fhu+8tlkWqO9OyKPe19k7NtRvqi/f2Wit8YdrVsiDXFYeA9gzFWfl88ko++H7PRui0Tu0tLk/Lx7tMb480vc+eHh583Nhi5Q2/F5vWZyM0QPuLAC7FlezZyZTPY831d8VFmTWxon/svAv/7dWiPbc2lIeojpaWiwlgM9kz8fvFzzRCpijbtXxLnD4K763RsmdoIWElHs6Uh6mfK/i8KMX7qZHR/ui82XSRSpas0RP3cifhiVkPUr/lfBwYU7fvsq+geLv5BFCL/fUe8PUOkKsr/9m2s2/5xdBwfvHDNz01c84FcdOxtjSdmiFRFv3zdGQd7Jz/TeG82Pjg8faSaU3VnY9U9xcdGa6Nzv0gFkAI7qoCqmM87qq4mdlTB5bg7nt3xUjzcMM2OKv7lz2jecSIalxViOLssVjRd68b/EuruvC92rrg1Fh0/FI9/mCudqke1rNw4GJlHJu6FjjXEY08ujs9L6wDMHTuqAAAu6oaom58Hyc2BBbG2eWn0T/xUf+9QZJZPrjKTsiHqR0WqartleT6aipEq6qPtVZEKIBVCFQAAldNRG8+0Xh+jcToeWD8cmX8eo0i5pbfH/TdPvM5yiDoVdMdo7Fz/e9TH4vip9bpYO/MTrQBUmVAFAEBFfdJcH6901EXUDMXKF09F04V52pQb6IrVW9+JR1/vjH2lJaqhELufPxm31SyM4Y4bY3XzgtI6ACkQqgAAqLiWzUuj5ciS6D9SG7tmcxokVM3CONBdG/3Zhli12Rw1gNQYpg5UhWHqaTBMHQAASJlQBVSFUJWGqVB1NWlsbIy2trbSOwAAYD7z6B8AAAAASbCjCqgKO6oAAAC4FDuqAAAAAEiCUAUAAABAEoQqAAAAAJIgVAEAAACQBKEKAAAAgCQIVQAAAAAkQagCAAAAIAlCFQAAAABJEKoAAAAASIJQBQAAAEAShCoAAAAAkiBUAQAAAJAEoQoAAACAJAhVAAAAACRBqAIAAAAgCUIVAAAAAEkQqgAAAABIglAFAAAAQBKEKgAAAACSIFQBAAAAkAShCgAAAIAkCFUAAAAAJEGoAgAAACAJQhUAAAAASRCqAAAAAEiCUAUAAABAEoQqAAAAAJIgVAEAAACQBKEKAAAAgCQIVQAAAAAkQagCAAAAIAlCFQAAAABJEKoAAAAASIJQBQAAAEAShCoAAAAAkiBUAQAAAJAEoQoAAACAJAhVAAAAACRBqAIAAAAgCUIVAAAAAAmI+At2VflJl2GsyQAAAABJRU5ErkJggg==;" parent="1" vertex="1">
          <mxGeometry x="-90" y="420" width="1194" height="477" as="geometry" />
        </mxCell>
        <mxCell id="dh3TJx1O1v9X3l1imXYK-4" value="" style="shape=image;verticalLabelPosition=bottom;labelBackgroundColor=default;verticalAlign=top;aspect=fixed;imageAspect=0;image=data:image/png,iVBORw0KGgoAAAANSUhEUgAABPYAAAFECAYAAACkvrCAAAAAAXNSR0IArs4c6QAAAARnQU1BAACxjwv8YQUAAAAJcEhZcwAADsMAAA7DAcdvqGQAAKVwSURBVHhe7P1rUFtnni/6fy0QAiGLiwyI+8XGGNMY28FOPO64STIZZzyZTCb/3tn9z/RJZbK7utOX2XumuqZ2dfWbeZNK7Zrq6j6nM9k9fbI9qZzsnD7p7EyfjOOJ2xPH7Qzt2CbYmGCMwVwsLgIsA7IQCBn5PM9aSyAJCZAQF+Hvp6KAliW01rOe51nP+um5bCkpKbkPIiIiIiIiIiIiSig67ScRERERERERERElEAb2iIiIiIiIiIiIEhADe0RERERERERERAmIgT0iIiIiIiIiIqIExMAeERERERERERFRAlqTVXFNR2vQUG/Snvm50HG8DZ1D2tN1Y0b9j6th1Z7N6WnHiXed2hMiIiIiIiIiIqKNhT32iIiIiIiIiIiIElCUPfZMqPvbGhQPBPRm21eGp4/lwdV0BWdPedRtIfw99uwnL6DpsrZxw9B67E304uzrw3BpW4mIiIiIiIiIiDayKHvs6aBPATxOr/YcMOWmKz/dE/PbiIiIiIiIiIiIaHVFF9jLT4OcKc/r9anPBb1er/z0eea3ERERERERERER0eqKLrCXmgwZxgvsnWcwG8T/XZiwq8+JiIiIiIiIiIho9S1jjj0DKn+wF1UZ2tOlhFlNlnPsERERERERERERxdcGC+xpQTbtWWQudBxvQ+eQ/D2W9wRiYI+IiIiIiIiIiBLPMobietD5+gWcePUCzjbJsJcMkKnPT7zaBtuM2DRjx3nluXiEBPWIiIiIiIiIiIgo/pbRY29e7vMHcLDSidbXO9A3ITakZuHgD3ci904vzvz3YbjVly3AobhERERERERERETxFcXiGUlIy5Qv98Ajg3qSxaCskouJqYhBPSIiIiIiIiIiIoq/JXvs+XvbLc8wml7tRegCuZxjj4iIiIiIiIiIKL6i6LFHREREREREREREG8Xy59jTZaL+R1Wwjnbh9C8d8IhNcz3xPr6Api/Ul4XDOfaIiIiIiIiIiIjia/k99vK0+fRcXiWoJxnS08T/ffDJlXGJiIiIiIiIiIhozSw/sLctTQnseZxe9blgMCaJ/7tx97b6nIiIiIiIiIiIiNbG8gN7KepLvV6f8hMwID1T/pzC5LCygYiIiIiIiIiIiNbI8gN7X3TjxKsXcPaUfyCuB52vXxDbujHoj/URERERERERERHRmlh+YI+IiIiIiIiIiIg2DAb2iIiIiIiIiIiIEtCWkpKS+9rvq8Z0tAYN9cqaugFc6Djehs4h7em6MaP+x9Wwas/m9LTjxLtO7QkREREREREREdHGwh57RERERERERERECWhNeuwRERERERERERFRfLHHHhERERERERERUQJiYI+IiIiIiIiIiCgBLRnYq6io0H4jIiIiIiIiIiKijYI99oiIiIiIiIiIiBIQA3tEREREREREREQJiIE9IiIiIiIiIiKiBMTAHhERERERERERUQJiYI+IiIiIiIiIiCgBMbBHRERERERERESUgBjY26zyLTj0Nwfw9I/24tBhg7aRiIiIiIiIiIg2Cwb2NinTHissRnF6dQZY9mXCpG0nIiIiIiIiIqLNgYG91bavDE//+GE8/YJZ2xDKgMofiH8Xr6nfp22KA9dVOxxuH+DzwHF5HC5tOxERERERERERbQ4M7G1WQw6c/+klnHjtCs43erSNRERERERERES0WTCwR0RERERERERElIC2lJSU3Nd+D6uiogLd3d3aM4qaHIp7LA/oaceJd53axkByKO5eVGUA9pMX0HRZ26wx1hdh36FcZJj1ahT23hTGOgbQ+qkDzgnlJfPy89DwctmC+fRcTVdw9lSEXnva/imvOe1DwTMV2FVlhjFZfJr4rJErXWg57YbHp70+UI4ZlU8WoqLUDH2EEHG4Y4qJLgnmQ/mo3T+fFr4ZJ0auDuDap064Z9SXBQpNO9+MGxOdg2g9LdJuUn3NnFjTQaeDqTYHOw/kwmJJhUG+Hj54nU4Mnu9FW5NHPAvkP9/DaHq1F47KHNQ9UYxci9xH8T7HCFr/uQ+Dw9rLiYiIiIiIiIgiiBCOofWXBOsL+/H40UJk+YN6UnIasmp24MifRJqzLzamfCvqvr8X+2sy1WCWJD4rt74Wh4+lqc8DFebhyLeqUVUeOagXN+kmsW/7caQhOC10KWZY66uxu0bb4KczoPTlhWmnSzGqaffKTpQWahtDRJsOpier0fB0GQryjFpQT9JBb85E6dE9eOLZSMuWpKPo2Z14/PkKWJWgniTeZ7Fi/8s7UJyubCAiIiIiIiIiiigpIyPj77Tfw8rKysLY2Jj2jKKWn4mdlSZg/DZutIbrNZcMy0ErtqUCrs4BDNq1zaV5OPi1bOinHWh5tw3NJ/rR8dkAuppvY2R6FluTPbB1hPw91yR6xWtuaA9ncREKsoAZ8Ud7b85qLwrh3z+zCRmG+3C3X8fZt7rRfs4Oh9mMYmsK9Lli9/99HPOd3PSo+ItqFKUDXlsXGv+pE62fyH27A3dhNqwZScBoF07/rBM2//HETI/Sv6xFZbYOmB5D98cdOP+/+tBxTnxeyx1MpKQgedyB0RHt5YLp6C48vDNNeX3Hh+24+Jtbyut7eidhLM/G1nQj8gqn0ffFFOZSJaZ0AFLKspAxNYy2j7rQ+lsbrp8VaX9pBI70reI9BiTnpsBz1YGJuVPlP98pMOWmIUns47X3vsSFD/vRdWMaGbuzka43wogR9PWE6yZJRERERERERKTydzGijSY7FUb5c2wMdptvbjinb9KDscZ+NH4YbljvSvjgbLqKMx844ZHDWn2zcJy0wS4/WJeOjHzlRaoMM/It8pdRtL4zP6zVNzkF2zvdUGJ5OVnITVU2r0xNAXbliGw6M4rmX9zAtRYPfFpi+JxTsJ8U21rV54rULOzeJ3vJTaH7gxvobPfOvd5rG0fz8S6MyOc5hdheqm4PFkU6CK5PbqDxvWFxjmbh9Q8HnvbCcaILncopMsNSomxdaHoYTeKYurUAnm/YgWtfqusXm/PC9JIkIiIiIiIiIgrAwN5GdesuxmS8J78Cj34zBxbLKp8qpw3NofPw+TyYuKv9vlwpW+KaqSxVOdCLn+62IQyGzosXTmUGcuUOOIZws0fdFGRyDP02+UsassqSlE1B4pUOgk+ZvVIHXbLydAH72V7YQ47JNbKcgyQiIiIiIiIiYmBv43I4cPFDO9w+HYylFTj0ygEc+9tqHDxmQVa29pp4ur/oGirBJtwYU+JPOaj9pgVmbT44XbYRFc+XI1c+cUxgZFrZvAJ6ZOepwTfn0JTycymGbIP6i9ODcAOfJeeo2itOnxom4hZNOmiMdXmof2Uvjv7oYTz9Y/9DXRBlUVpPQiIiIiIiIiKiWDCwt4F52/pw5idX0NRkx9jkrLJYRO6+HTj83QM4csyo9GRbH1O4/umwEpfSF+/Akb9Wg1nHvluL3cVir3wudPzLaMTA2vKJ7BmmU91ikpIjdI9bFdoCJ0+XwWoxrP4iIkREREREREREARiKWCsmPbS+ZAvotsj/uzARbqGJGQ/sp/rQ+LMmnJBBvstj8IrTZt63C7sqtdesNV0adj2WB930GAZ7nPD6e575vHD2dOP8G23oHNC2rYgHd++ovxnMy4vwue9oQ1kXSW9zjrpSrXvCq/yMWWkOdpfL8KoXjqY2nPnJBZx41f+4go4J9WVERERERERERKuBgT0p3YTaHxzA0z8+gIZnTfHtCTcyDbf8acmCJdxiEuXbUGgWP32TuDusbopo2qMsFtHaJ5/okVWyTn326vJQkS7nvetD87vtOPWaFsx6rRnn3h2Vo3DjZmxgXPmZtc+KrOXk1u67UNZwzrGirFDZEsxiQXmx/MWJ250rGwtr3GFRFzhxDqL1lAvuwKHHOp0WsCUiIiIiIiIiWh0M7Ammr5aiNEMmhQ6mmgpUhl0tNUYDE+oCCToL9r5kDVoEw7A9BwefK1KCQ96O2+rKqxpTww4cfjYHluIk6FO0jYK+2IKiPPnbLCYGV9jjLEYGs9oXzli+DZa8JBhE2q1WRvJcGFFXsU0vwqHvlaJ4u17GzBS69DRYj+3E7lr1uWJiDD02+QYTKr+xE5XV86+X6V3/YoUSIPR2DqDXoW6PlXtcm/fPZEFJldajMEUHc50Vh/7LV1ApA7ZERERERERERKtkS0lJyaKrBVRUVKC7u1t7tjmZj+3BkX1p2jMPut+9gmvhVlSNka66CA3PFsIYKfp1pxdn/3EYrsDA3tEaNNSrQ0bD8fa048y7TgSG9pZ6j2oYTa/2Ym7U774yPH0sD5gQ+/C62Adts8qAyh/IRSBc6Djehs4hbXN6Fg7+553q6rNh+GbcmOi04fLJcbhntI0roK8pxaPPWCOmn/3kBTRd1p5I6Wbs/3YVCiK8wefoxblfBqd3TOmQKj7n+9UoCNcT0+eBy5UMkzkpZP/8fyvMfkv+/RDn94Q4v0REREREREREkUQKNT1QnL/rRt+EjPL44GrrQmccg3qSr70fZ4+3o6PHCc89fzTJB9+0E/bGVpwOCepJrk+71EUznB745t4yC49jFB0nruB0SFBvTU06cbNdGWAM3PPA4xaPueMSmSrFiKyaKjz+n/JgikMOUxYReaMV1zrH4ZpZmH6tLdomP7F/zf9wFc1tIa+fHEff2av4JDSoFyvx+c1vtqN7eGr+HIn0UOYZ/McraLqxvJV8iYiIiIiIiIhiwR57FDXTEzVoeMQE3OnDuf9hhzOkV56hugiHniuECbOwfdCElnbtH4iIiIiIiIiIKG7YY4+iZEB+tTrcd+TSwqCe5OlwaUNZtyApWfmFiIiIiIiIiIjijIE9ipJPrtuhyD1UhoLipLnFKSR9sRm7X6qAVT6ZGcVgp7KZiIiIiIiIiIjijENxKWr6fWV4/Fge9NrzsHxu2D68hpY2LQpIRERERERERERxxcAexUSXZ8b2JwpRlp8OQ2qSttUHr9uFsY4RXG90wDmhbSYiIiIiIiIiorhjYI+IiIiIiIiIiCgBcY49IiIiIiIiIiKiBMTAHhERERERERERUQJ6IAN7cngxERERERERERFRImOPPSIiIiIiIiIiogTEwB4REREREREREVECYmCPiIiIiIiIiIgoATGwR0RERERERERElIAY2CMiIiIiIiIiIkpADOwREREREREREREloC0lJSX3td/DqqioQHd3t/Zsc9iMx0Trw/rCw6gv157MGUbTq72wa88W2FeGp4/laU/m2U9eQNNl7Qk9gHSwPFODh2uNwEQ/Lrw5AMe09k8bggGlL1ejNl8Pz1A3zh93wKX9y+ZnQOUP9qIqQ3vqN9GLs68PR0iHWN5DREREREQUHfbYo01LV27B/m/twbHnzdoWoo3MhPJao1Ip6zKKUF6tbt0w8jNRnm8Qv+hgyLciP1/dvBEY9hXi4Cv7ceSo3D8iIiIiIqIHB3vsUQzMqP9xNazas/Bc6Djehs4h7ek6MB2tQUO9Cehpx4l3ndrWVZSfh4aXy2BaqsdekPlePeyx96Bjj71Y+XvOupqu4Owpj7Z1Ffl73UbT+y6W9xARERERES2BPfaIiDYEHxwftuLkqxdw8vWNFtSTPOg7fgUnXr2E0w/UMFwiIiIiIqKNi4E9ioETTa9eEDf46uNsk3aLL3vGzW1f3956RERERERERESbHYfi0ootb8irf8ipOkzVUZmDuieKkWvRQwcfvI4RtP5zHwaHtZeHMNYXYd+hXGSY5euFe1MY6xhA66cOOCeUlwgRJqsPJ9xwuBQ9sg7korI2B1lZBujlB/lm4Rm7g5uf9qG7Y1Z9XSQbeCiusS4Puw/lI1ccl04eV9j0m6fLy0TNnxajIMeopYMXrtER3Dw1BJstJB38x62c/0lkNZSi9oAF5hTxRvE+581uNP1mHO4Z7fV+YkdMIq13ijS3WFJhSFY+CF6nE4Pne9HW5BHPAq0sDynyLTj0jQpYMIqmX4pzNKltjwd/OvR14MQ7d2E+XIS9j+TAnJqk5CNXXw+a3xfpHZIO0S/A4k+HUTS/1o3RQgt2/0kxCpVz64PvjgNtJ7vR16e9fEUilKnFhpNqQ06VYbGnfSh4pgK7qswwyvMr8t3IlS60nHbDE3xyVSkGFBwrw85KM0wy/4jz6pt0wnbpFm6cnwp4z3KmA9CEqZd02UYUPlKAcrFfJqO/TvHAaRtA20ejcIQpE0E26lBcXRLMopzX7p+vK30zToxcHcC1T50Ly6AQWrf6ZtyY6BxE62mRV0PKh5pXtWkW7mWi9s9KUJyTpua7yTF0/msPOsPVk9HWrbHWKUREREREDyDlfoZo7aSj6NmdePz5CliVgIykg95ixf6Xd6A4XdkQIEncTO7H40cLkeUP6knJaciq2YEjfxK/hTGsX9+Pww1FyLVoN56SuFE2WHKwW/zbocN6bWMC0cl50UT6PV0m0lsL6kla+u1/ZOFiA6av7cST36pCaZ4W1JN0epjyClH3Yh0OfS3CAgXZ2ah9uQ6HD+eoN+CSeJ+5sgqPv5CF0NQzPVmNBrFfBeJz1KCeJPKCOROlR/fgiWdN2rZQ0eaheZZD5bAYxTuMeag7Gunvr1CmCZUv1OFIg1UN6kkiH5nKRX79T3mI36emwfJkGR5/URzz3LnVQZedg9oXalC5zotbmPKtqPv+XuyvyVSDepLId7n1tTh8LE19HijdjPq/Ul+vBvUkcTzpIj807EFtnbZpxczY/91a1O2zwOwP6knJBpjLK3DoeztRatG2JZJ0k0jv/SLfBdeVuhQzrPXV2F2jbfDz1w0hdasuxajWra+IdCjUNgYR/36oFI8rdYQM6slt8jxZUPX1GuxeEKReQd0aZZ1CRERERPQgSsrIyPg77fewsrKyMDY2pj3bHDbjMa2nlB25KCtIAcZv40ZrpInrk2E5aMW21BSYctOQND2Ga+99iQsf9qPrxjQydmcjXW8Ut4wj6OsJ6MpTmoeDX8uGftqBlnfb0HyiHx2fDaCr+TZGpmexNdkDW4f/M2dx5+IAboh/l49BY6a6X7LXxxvdc9uVx8VJhHb2MFVnI/lWH6581I0vT9nQcU5+zh24C7NhzUiGsWALHL+fwJT2+gW2mlC2LxMpmMTgZ+PL7JHjTxfA1Sn2eXnd/JbN8ud1eKhc3P763Bj83XV8/utetJ/1p5845vsuDPYG9JYptOIPnrEiDV44msTr/+8etH2qpsNdy1bkW1JhLEqFp92BCX9C+I871YTMrUnwDnWj8Zc30Cre1+9LQ1GZEUlmA2avj+KOW3uPkFKWhYypYbR91IXW39pwXezXjUsjcKRvRbHVgOTcFHiuis+Zy1Ix5qEAxuoCFOeoAQLf7VHcbI9jl5+5dDBjW5ZMh15cfKcDLb8dQN8IkLPLDIPRDOOMHQMD8x2lXa0B+bLrHgqWzEPz6ZBZYFLSoePDdlz84BY6ro4heUcOsowGbNvmRlfLNBbtkr2k4DJ1w6XHzkoT4BlHb5gypMjPVF9jNiHDcB/u9us4+1Y32s/Z4TCbxblNgT5XVBf/Pi6Ocp75ySrUFOvhtXWh8Z860fqJ+pk9N8YwaTBA53BgVKSjyiPSZ36/nMVFKMhSF8/47T/1ze+vfCyokwzIqdPB8flNXP6XW2j7t37ldT290zBXyTyUhuz0icXzhv8YF0uHULG8Z9n0KP3LWlRmi7wt8kP3xx04/7/61Dqs5Q4mUlKQPB6YfqLsH92Fh3emKa9X8s9vRP4Rr+/pnYSxPBtb043IK5xG3xdTIhdo76mV6bwF6Tkm6O+7YfuoFY2/Dsh3aSnISr2LG23BaR513RpjnUJERERE9CDyf3dOtHamh9H0ixvo1oIvvmEHrn2phjDMeSE9ebJTYZQ/x8Zgt/nmhmb6Jj0Ya+xH44fxW+3W/l4rLp50YGx4Fj7tg3yTU7C9060OiUwxITtH2ZwYLDmoqZZ9WlzofLsVzY1ueLRogpp+fWg6G3gDrkPBE8VKjzJ3SzvOn3LBrS3gINNh8L1raBkQCaPLxPaHw/S4Erw97ThzfBRO7X3uRhu6lWGNJmQUKZvmuD65gcb3hsV5nYXXH+WY9sJxogudymk1w1KibF0omjwUwHG+Bw63eI97GC3i+FaLmg7DcNxRn3s6BnDhvDwoHXK3yxSOEy0dOtu9atmYcOPae71Qkq8wA7nrWsP74Gy6ijMfONV855uF46QNdrmjunRkhPQoNGaq5815czxoCKh32A3bbzpwrVXbsGJOtLzehWuiPLidav6RvDYHLp4dVX7X56Wr9U6iqCnALhmwnhlFs8gP11o883WYcwr2k2JbYPqlZmH3PpkPp9D9gZZ/tNd7beNoPt6FEfk8pxDbS9XtQXwudIg6paUlIN99rqYdctMW9EpdSd0aTZ1CRERERPQgYmCP1pz97MK5zVwjESY7u3UXY/JGML8Cj34zBxbLOmRZ/52olKz9TACGr2RDGahsG0TngLJpCSZYC2X6OtF7Ply/xFnYWh3Kb8YiIxYOyB1F66+c8GrPVB7c1YJb0fAp3cx00EVI76jyUKAhB87/9BJO/DTO8+sFGUbLu6HpIFKizylSQ8heGPiIlf1MmONwuHBb9mLSpWNrnrppXThtaD4V0lvO58HEXe33EGMD48pPy5HdqG8wwZiqPF1b/rKelFgXR0tVjjIs1d02hMHl5OtKLejrGMLNHnVTkMkx9NvkL2nIKtOGkwdwX+5aWKfYp6KfN3DJujV+dQoRERER0WbFwB6tvYB7uSU5HLj4oR1unw7G0goceuUAjv1tNQ4esyArW3tNvMiJ5w8X4fBf7cWxHz2Mp3/sfyxzkv4NJiNPnX/QNexeXpJn6JGm1AhTcKvxu4UGJ9Wb95TkMPNb+YLu05dDLupR/8peHA1K72UsgBLl52wI0/fUAEVaapigaDz54FU/CMZMZcP6uB/dIGDP77pwsd0tyqER1sM1ePyHB3D0lR3YfdgIQ4r2onjJSEPxs1Vo+GF9QL4TD7m4RcLRIztPDb45hyJOFBDEkK3lQKdHDTaH4RxVw3T61IURNzXwHoWY69bo6xQiIiIiogcNA3u04Xnb+nDmJ1fQ1GTH2OSsMhl87r4dOPzdAzhyzBifCdR1BlR+xz/xfMAiEwlMN7cgxTKlJMuOSmtEWxRFW9RjbkL9B8F05GBKfHkwHb+R6mtgFiMftOLkm+3o6ByH+x6gt1hQ0VCLJ39Yjd2VccqdhXk48r09qJOLdPgXN0loovBEeRhJyWvY9XgT1q1ERERERBsJm9iUGGY8sJ/qQ+PPmnBCBvkuj8Ersq953y7sqtReswK6A8WokhPPy0UmTl3Fqb+/gBOv+h/t6jxQCcblUHvcGNKXGfocnYI6D70Bhkg95grS1WGkrhnttTEqzcFuuaiHOIuOpjac+Ulgel9BhzKH1iZj1YbgerwLhunGlc6AjK3ylxlMr940gqvGN+xE53sdOPPfLuHkW+3oHhKppTOj4pl8ZGmviZ2cR7IEZnnlcw6j+W3xGXP5TjxODqsvSyjzQ1MN5uVF+Nx3tPG6Jn3E3qPmHHXAuHtiZbl1M9atREREREQbCQN7m5S+pggNcsjTj2pRW7MZeqUEmPYok8G39sknemSVhA9c+e5pv6QkLZnRt5VqIQObDc1NU/OLOUgpuoQsKK5bLiWApK+yojhd3ba4SYwq899novxQuNt9PUofsii/OXtdKxoNa9xhURcncA6iNWCRDoVOpPcW7fd4y7fg0N8cwNN/UwbrstIkXpJQXKeuDuDqc61qjz39wVxYZYadGIcjwQOkvgEnrr2lLbCQmoFtERZY8N1Tc6N+ya6f/nkkAfvvezEYsCCPpEtKoEk0A/jnJ8zaZ0XWciqr7rtQ1oXPsaKsUNkSzGJBebH8xYnbnSsbC7sZ61YiIiIioo2EbepNyYCyxwphkmdXZ0TpkznqIgoJyNSwA4efzYGlOAn6gHm29MUWFCnTYc1iYjB8jxL3oBrYQmE56g+nBb0/lNu/5GLeNhT7p9lK1SPrcCkafliFXG1TQmkfgU12zNFZUPftndhdF5AG2rHVNwQG8GZha1En1zM9VINDR+cXMNBlG1HxzRrUypU3p4dx/fOV9eJxj2tzgZksKKnSAs/iJt9cZ8Wh//IVVK5ShrUcKofFKI7BmIc6cXyrIw1bRX71DznUpaeh4PndqJMBpRmRdr+LX1jPYBHn1L/IhEy/+jI8+pgMvs7C3jga/WIG68aAiherUNtggjkjINgjj+nQNijh5BkX7mgLr4aaGFbHHBtqK7C7Wr/IcE8PJrVEsdRYYNTKg85iRPHztXjqqBq4TjSeCyPqKrbpRTj0vVIUb59PA5n/rMdE+a9VnysmxtBjk28wofIbO1EZkGaG7Tmof7FCCRB6OwfQG2m+zWXalHUrEREREdEGsqWkpGTRabArKirQ3d2tPdscNuMxBUvD7r/egwp/jyR3Pxp/OqD20IgLM+qXnPTchY7jbegc0p6KG/fKH6iLIthPXkDTZW2z374ydeL6nnaceHd+YjDT0Ro01EcOwHjF68+EWYFUJT7zu3vUYWChJnpx9vXh+cBHfh6OvFSmDtEL5XPDNWWEKT30mJaTDiIlmq7gbMDqoNYXHkZ9ufYkktD9i1WhBYe+sQOWCCuMhu6bMvfd87Wor4wwQM/nRMfb7cErYoq0a3i5DCYMo+nV3gVD6/zHG3TeU83Y//1qFITbL58HLlcyTOakkLwSWx4KZHmuHoeq1UCit70Npz6IY+hrLh0i8LnQ/f51XOuc1TZIseSh+XQIzwdnSxvOn3CvfMjvUsekCTof/vMQNg/79z1y/RCeV3xGi/iMwLQLsFh+Cq1TnhB1yiPhj8g34cZ0hhHGMPVD1OkQy3tWQF9TikefsULGrcNZ8DnpIs2+XYWCCG/wOXpx7pciDQI67PnL8sJ6Q/Afbzzq1rm0i6JOISIiIiJ6QEW4BaDENoXO0wPqDZm4cer7rT2OQb215fq0S100w+mZXx3RNwuPYxQdJ67gdMSgnuRB5/+4iua2cbhmAu5Owxkaxr+/2wW7wzs3NM8348ZYWwfO/rQV10e0jYlmwIHzP7+C5ssOOKfngyL+Y7v4aWjvsVnY37uCM6cGRJrPpwXuTYnXd+HcGyFBvVhNO9H8Zju6h6fmz+s9D5w93Tj/j1fQdGN5q3tGy3G+Bw63+ED3MFpOxTGoF0T8/bmE86e1TLu2kKBeHAQuGerzwjU8gJZ3mnEuHkG9NeXBzV+ri2a4AvKpmid60fRmc+SgnqTkp1Zc63HCow3LjcT1SRvOnR2Fc65O8MHrHEffqSv4+I0+JNR6IwGURYbeEGkg0zDg2HwibeyNrWht0Tb5TYo0+4fQ+lG8flKkxdmr+CQkqBezzVq3EhERERFtEOyxR0QUD0v0MoqfJXouEhERERER0QODPfaIiIiIiIiIiIgSEAN7RERERERERERECYiBPSIiIiIiIiIiogTEwB4REREREREREVEC4uIZRERERERERERECYg99oiIiIiIiIiIiBIQA3tEREREREREREQJiIE9IiIiIiIiIiKiBMTAHhERERERERERUQJiYI+IiIiIiIiIiCgBMbBHRERERERERESUgBjYIyIiIiIiIiIiSkAM7BERERERERERESUgBvaIiIiIiIiIiIgS0JaSkpL72u9hVVRUoLu7W3u2OWzGYyIKZX3hYdSXA66mKzh7yqNtpY3OUGrBzicLUJBjhD7gqxf7yQtouqw9CaCrLsSRZ4tgghvdv2nDtXaf9i8h8vPQ8HKZeF0w5o9oGVD6cjVq8/XwDHXj/HEHXNq/JBLWD4nOgMof7EVVRuS6QVp2/UAPjow0FD9Wgu2VZphSAi4yPe048a5Te7JG9pXh6WN5wEQvzr4+nJB16caSBOvztaivTOzrExERRY899ighGPYV4uAr+3HkqEHb8mBiOmxuenGT0/DNHSjNCw7qLSZ3n7hpl6/VGVGxLzRsR3GXn4nyfFn+dDDkW5Gfr27eCFg/rC1duQX7v7UHx543a1s2ns1VP+hhPbYDR/62GpUbqNwllHQz6kWeravJDA7qxVEilItNK38bdlVurOsT8wMR0dpgYI9ipsszo/L5KjT87QE8/eOHxeMAjv2wGgePWWDO0F4UJ1nVRci16B/4DMt02MxM2P2HeeLW1Qd3ZwfO/uQCTrw6/4jUI2fkcj9cshOOz43uy4t8Nz80jLOBf69H207RGRpHz5Ds4eaDZ8iOoSF180bA+mFtGXdaUZCXBl2ytmEDWnb9kBDSULRPtC9WKSD1ILAc3QlrqvjFOYzmty4FXWPi1VsvEcrFpjV0G9c7N9b1ifmBiGhtsHVEMTF9bSee/FY1qioDv/XVQZdqRu6+HTjyv+UtGPJHRIvIT0dWivjpHsTl98bhmlY3L8XXPoCzr4mbstdaOcxuTXjQd/yKuBG+hNMc5kQbHOsHmmdAdkGS+OlB94leDA4wP2w+s7C/x+sTEdGDiIE9ip4lB/u/mjXXs+jcz+e/9T35sytoPDuAMbf2WiJansxUcdsleO/Bq2wgIiKKFz2MafKnF95lfnFEREREiYGLZ1DUjE/U4PFHTICzD2d/bo/6G0FjfRH2HcpFhlkOGfPBN+3CwOe9uNY4FRDQMKP+x9Wwas8WFY8JnxedwNk/SbkLHcfb0Okf2uBfjKCvAyfeuQvz4SLsfSQH5tQkwDcLV18Pmt93wDmjvT4msaeDf3J8+8cX0NRlROWf7UBlYRp0OpHmk2Po/KgHnZ2z2qtDZBhR8Sel2F5sgiFZJ47HC9fAIK79qx0jo9pr4mXBRN4+eB0OdJ8fwM0Wj3gWQpcEy5FS1DyUraa1lodGvhzAtdNOuEPeoKaDdu7uZaL2z0pQnBOQDv8q0qEjTDqk6JF1IBeVtTnIyjKoc96J8+oZu4Obn/ahO/Q9/vygnIdJZDWUovaANmxMpJ/zZjeafjMOd6T8EM0k4v7XhlhsEv1QUS2esNr5IeqypEPBiw9hf7EO3vY2nPogXGrpUPzSAdQViqqqsRnnzq4kXDq/UEGQxc6Vdo6U9D3tQ8EzFdhVZYZRpt+9KYxc6ULLaTc8K+o0sz71g6EqB7WPFSJXlAudzA4zbtxu68OXHy8sf7EKKrfDosw/WY66vVlK+vlmnBg4I9LvizDnNMr6wS/4uqQe00TnIFpPi3w3qb4mYj4IJ56LASw4Jrl/oswmq+m/oNzHUj8E1V9O6PJEXfnnFSiUQ7tFGXQP2HD5fw1jbC4t5sWaH+R0HtufKETZXL0iPmfUjs7TQ7D1aXkvwrGEE/b4os0PgeVW1IuGqjzU/XExctNlXaTV4++Lelx7n/nYHhzZlwaMduH0Lx0IV5NmPb0Xh+sM8HaIuur9OOSIBfWxel3qbbShs3Wxes5fX4S0ZVZsBeXCf35l3f/u3aBy7q8nL59yh/+yK8WAgmNl2OlvOyjpMIrrH/XDZovQtomK/7hG0fxaN0YLLdj9J8UoVPK5yEd3HGg72Y2+Pu3lfisoS/K1NX9aPL94lrzWjo7g5ilRJhYc0xL1/2J1UKxpJ8qT+VA+avcH1pVOjFwV5elTUZ6Ua/Q61ZNERA+4pIyMjL/Tfg8rKysLY2Nj2rPNYTMe01rSV+SivCgFmJ3EwEUnphcNDQeSq3XV4fDBLKQZkrBF2bYFW8TNSUZZHkqL7+JWqz+QIxodR3KWN5x3/DZuiPetSH6maOCIT/OMo/fiJIJjL8mwHLRiW+oMHJdHccffAtlqQtm+TKRs8eD+ju14aF+G2siWtuiQkpWN0up7GGwK/XvRiD0dTLVFKMgCXBP3sOOZKhRm6rFFSXSR5ilGbKsxY0v3KBx3lZfPK8zDkW9VoSjbgGSdepawJQkpGZkoFMd7v0ekQeh7YqSvKUXDN7ejOC8VKUnaZ4n9SzKmY9vOLZj4bDy4wZduQt139qBGnKu5tNbykKkgB+V1yRhvm8BkwF2Amg7J8KXqUfVHZcjZGpIOu7OQ3D+M0XHl5XOs//EAHtlnRroxGfO7pkOy2Lec3VZYfKPotwXcFfrzg2jwG75SjtrdW2Hwv1Gkn8GyDeVlbvRcmdbyuGyU78X+I0XYKR8y/0mpmSjzb/M/6kQ+CsyX/vwawtU5gEG79mQJ/vwxI97Qe3ORhvxa5Ieoy9J93L2nR/kuE/QZPox/Ls55aD0k0nHXUQvSfeLm6/3b4vXa9pj46wDtqV/Y+kKjnaMUsV9pX92OXcVp4kZNSz+dHukFecg330HPjZXs2NrXD6YnqvHYH1mxVZQL9fUyO4jjyRflr0aco2aRHsu+JkTmL7czw2Mw/1kd6ranz6XfliRxzdixDabxYQyNBHxYDPUDdAaU/mUdHtmbGXBdUo8pLVfku73p8NxyYEJJhwj5IJzF8kY00s3Y//1a7N4eeExy/+bTf0G5j6V+8JfB+5MYvZ+DI8+XIsuopYcog3pR3kt2LryexZof5HQeDc8WK8HA+XpFfI7JDGvpzHx9F+FYwllwfLHkB3+5nZyAvXg7Hv/DXKT7pxvR6vEi6130tIm6Smzy3PHBWp8FQ3oyPNduY2xKfem8NFT8SSGy9FPo+9iG0Qltc4z818yCoPpYvS5tq8pDUY4T/e0z2jVGDZA3POO/lvjrihRs2xdwfVEeoi7vCmjfRGUF5cJ/ficmcf/QLuzdMV/O/fWkNf02ertCrlGyXHy3BjsL0+bbDko6mGCty4HZNSLyQpiMFxX/cd3HTFo69vxxiSgT/nwu8pHYlvcVkW43Q9It1rKklIkiZJv0AW0Oca2VZUIck0V3B/3+gLdiifo/Uh0Ua9pp5WlPVUZIXamWp7QJf/lbh3qSiIjYY49ikC9u9F8qg1m0dX2OPlx4zw7HHe3fFqF/ZAeOPmEBpsfQcbIHN9u98Ol0MFbloO5YGSypPox80oyLny8MMkTVuygW/m+Nw3576P/2MUKPPe2pd6gXTb8ZVtLCUFWIh58rEmkkjunfvsDFCwEBoBWIJh38r1X43Bg8fQNXmj3wpaSh6i+/gsrsML2ddGnY/Z/3oCJdDrPuxMUP1bnedOlpsP7JDuyvNAKT/Wj8PwYwttJDslhw+Ns7kCXykXeoDy2nRmCXc/6IPKEvNKHyya24fXwAI9rLZWC44Jv7sL80SZ34+ze3YLf5QvKQ+FshxxSaDraT19HaIvJehhG7X6hBhUgHdLbjxHvBvT6tz9eixDWIzi/GMTE6C5/cNZEOhf+/atQV64EZO87/fR8c2usX5odunH93FE6RfsbDO/BogwV6kbM6finykNLLLYreVot+qz3/7Xjce+ytVX6IqSyJffsbsW/GWdh+04SWNm2zxvC1Kjz51cz49OgNtWh9oQnqaSTSr70DjSec8NxLguXYLhyqE0frG8bF13oD8vjKrHr9UF6Ix18ogjHw9eJ06IszUftsJQrERcHdchVnTiyIbkRtbv+UgieOSeS/Jpn/ZkQ98I067C8XZTCol1Rs9YPpqRo0PCTOhf+61CHqhpBjitQby3RUvLdevHc18phCj9Jv70Vtjk5cawfQ/NEgRuQxyX+RvYBeqEKBKIKLl/tl1g/+Mqiktzhmt0iPj9XrNEqt+OoLpaIMirL2gShr7dp7Ys0P1aU4+pxVm86jG5f/zYEx2YZIEeeqOAuVD+twU9SdC8tVND3OYssPc+VWSwffhB1X/tmmzEdneKgMDU/JBY7G0fp6B/qUIN0SPYP9xxqPnknpmaj/XhWsKWp93PTRuNqbNFUPy9fKUV8vp0jxinPUPHeOgsr5ouLXiy+qchFaT/qvMzM6mP+oGkdk2Qy91opzW/zSfpHmoo4KuFYEpYPPgZb/owu2ML3ili+k51lg2zWw/WC7gZNvj80FU2MqS4VWNLxUKq6BXjiabqDldy64Q6+1PpHvfiny3XxChOf//LB5Lta0m6+LZDp0/1sfrssv4uUhmtOQ+9ViZIt0uNaqvTzA6teTREQkiRqaKEpDwzj/8bAyhExnKcWh7x7Ak98qRWWdOgwnvDRUPmIRP6fQ/cENdMqGkdwsWgXudvH3PhwQN0065O7JFE2pxOMVDZYzx7UGkuDpGMCF87IBI45pu2jQrCefC53vtqK5SW2EYXoKHZ+r4yf1BelB3/bqDhSiIl38MtCFzwIWcPBNTmHwvWtokY3+9HyUVKnbVyL3sXI1qNfXIdLOrgb1JLGTXpsT14KCekJpDnbJmzTZ6Dzei0HtBncuD33QDzm1o77KioJw3xSLdOh4uxUtMqgnn0+4cU1LB+SmBaWDZH+vFRdPihvOYTWoJ8l0sL3TDeVL6RQTsnOUzQuo+UEN6knuRhu6lZtAEzKKlE2CE02BKxKeHFY3y8Z44Hb5WOkNYYzWMj/4Lb8sTaG/QwYMxI1KnVndNEePwupM8VPcPLWs942ED86mqzjzgRMe2S3BNwvHSRvsMk/p0pGRr7xo/Sy7ftCh4NECGMXxjHx6bf71gtc2jubj3cqNt7E6F7KmjxtRRzg/v4qz/vwn0m/w0wG1PFi2Ym60Vyz1Q2oWdu+TRxhwXQo6pi6MyOc5hdheqm5fU9UF2KXcSNtx4Zf9amBK+yfv8BTuhsSQ4kIJRAyj6Zfz12lfnx03+uRvScgo0Csviz0/6FHxNRnUA1xfiHLxnhbUk2bEubopzl/YoF6UVnq9kEE9Ry/OvdE3t8iE54shrR43w1KibBJ8GGhXIy3mr2QvuI7k1uQox+r88s6Kj8n8tRJY5QJLWn08N0R82gvHqRu42CLrQz2KD2TJYqOwvxt4LWlXr11iTzqOB26Xj3gOzY2FqCe/+DKgnIvnv9XqSXmtDawnxbmtLBRHONmPi2/NXyvm0qHNI86fBSX14vzHy7QoE78IaLvK9sN7veIqLhRmINef4IGiKUtPFCt5x93SjvOn1KCeNHetVb70zMT2h5VJEmMXa9rVaHXRzCiaRTpck9OkKAkh9tE5BfvJ8EE9IiJaO+EuRURL8l7uxek3rqKl0yUu7joY8qyoenovjv3XWtQ3GGEIzVk5ZmyTAQLnCG71qJuCdDqhDI7O2YosZUMiGRY3Is4Fc8B4+sSNvPwle2HQaC25L3ehI3QOGPtU2JuMbaVq6ttbx8LMaTOLsQH5riRklaw0/GpCfrlsOE7B9tl4+PlzQhh3WMRNpMh7nfbw38L33MaAEv/JRE6YHgoyHToHtCd+EdJhUf7WrJSs/QwyitZfheYHD+76G9AJZO3yg190Zcl5YUi9sSrNhjWwzrFkokhGE8TNS09IT74157ShObT3nM+jDe1cf8uvH0ywyhtCONB/MczQ7UkXbsugR+hN+Ap52tpw7pOQ9BvS9k/sjv+0x1Q/VGo35I4h3Ax3XZocQ79N/pKGrLI4BgmWyVRqVoJCno4ROAKqndU1hpZf9sIekoYuh7oilm5uSGuM+SHDjHxZNn0O3Dgbcl7jaKXXC7gHcP6Xw3AFpbu/HteJdFA2KHyXxGfIoH3GNuQHHqtOu86JY+36fDlXucXokVcqgzqzsF0KVx+LM3d5RAlWIs+ceO0oWU9+PKUGzfwi1JP+c+u+fjtsT/GxPnVejaxC2eiMD/uZhWUCDpHHZYLr0rHV3+kwSLRlyYne8+F6O4tz3qoGj41Fon2t/BabWNPOUqUGqN1tQxgMV56IiGjd+a8qRNGbmILtvTac/EkzGs/2Y2RCtBJ0RlgP1+KJb+fBFJi7rGlQ+tSYS9Hw44fx9ILHMockJpJpbXXTNG2103XiW/Y0M3pkWNSTZn0q3Dl6WB1OEQ856ciQPQ9EQ/ZOaFAhgrQM9ZtqT8RuKuImQGn7JkEfpgfG8tNBIyeJPlyEw3+1F8d+FJgOS+VVX1DsL3GtYX5YSqSy5HCgRwZrdTkoOTBf4Rhqtyn1jfOKQw38raf70Wa8tbXscpGTptXpOdgfVB78j2VOlh4l71SYoJE4q2pvV3HTrG2JpX4wZGu5yelRA8dhOEfVEKc+NWwUf1WZsuUtuLjZHlr50Oblm4E3zI2761Sb0rNrboh3rPmhRPvy7u7duR7Nq2Gl1wt4vfCGqcf9PeCChjT7XLjVLtPFhGK5kIZftUXpYSeDi4MrPlYDjEp1OwV3pC+JBtxqfZeyRQnCJJQo6kmTRS0Xxof2hsl34jE3tHe1+WQ2EdJglB3EF1hmWcrQI00pS+LcqvG7hQYn1S8zUpJXdG5jSzs9svPULzaca1oXERFRNObvhIhiNePFWOMALr5+Cac/tEOuFqezlKH+yYBb8LW/J9o4piPfNG4sojpYq04pIj9EW/kkJfunal4DOgMqv7MfRxoKkWVebIj5ZraG+WG5FpQl/zA4HXKrMrQ8ZUDJV8zin+LRS4bmxFBm11Is9UNScoJcmDbiFwWx5oc1SvI1vV4IY62i7SN+GndmqF9iCta6XOhlr/RLC/u/Rk8njkn79QE339Nto/BgeiXfIKUkr9mlNra0E+/ZaG0BIiJaYCO30ykBeVr7cFlbedFUaprvXeMf2hVu/rCgx3wPjI3Ev0hbVKzasEGPN+ywmY1nfrionGQ9/PlRH0tNzL8k/1A6kUMMy+zl455Qh68Y0iN9X21AhjKZkwfukBVuo6U7UIwqOSm2nBT+1FWc+vvA4/fPU7TZrWF+WMoiZWluGFyxBYWy501pFopFnopPLxmaM1dmh4PnhlzwWJ+5umKpH9x3tO40Jv38tSqEOUftleqeWPta3HdPjegZs8Mcky5Jzne/fmLND/62wCr3ZF/L64Wiz4Fe+R1DuhVFcmhvahZKSsU1RA7zXmav9MWJ+lgZlhqpd5hQaFSDim6vePXm5XKoOU8uEhQ+z2mP1V6oQSfy0Fb5ywym1V2KzeiUOoRa5MmI7SH/fKeuGe21sYkt7ebbAgYzI3xERBsVA3ublL6mCA1yeMyPalFbs04XYvfsfONyaBJjyhw02chVGtPR8d/g6PWrlGWn76sBA33oMIckWJ+vRqX/K/hlkxP6qysruPpccWtkr3Y6jA2odziWVV/wYxKjyvz8mdj+aMDQpUW4brmUc6TfnivbuAtVW1Emz9PMGG6v8EbKP7ccbDY0N03BK/OuX4rugak4V5wf0k2o/cEBPP3jA2h41hTjEKIlytLcMDgLyh/Rw1yTCyNmYW9byZ1WYlrd+sFfZrchr0bZsKHEVD9039XmdhX/VqhsCWYReapY/uLE7c6F3eZ897RfUpJWpU6YGFZvrs3FppC/L65L39iFUnVU3TqJMT/42wIpudj+SPRtE3WaA3344bMB1vJ6ofKi94qM7BlQ/JCo6+osyvyNY+134nT99+DOoByWLs79Q5lh61LLw3IxE7Entgk1X6+T1S4X/nNrKjevanB4KfqDuercrhPjcCiLqsRqvj1UfijcEelR+pDacHb2ulbUgTfWtPO3BbL2WZVFz6IRc36IS/uBiOjBsRrXXFp3BpQ9VqjOf6MzovTJnLmhIfGQ+1wN6o9mIitPXKQDcpAu3YCshgrU18rmgg8jnYHf+Mmbbzk3hxm7X9qJ3XVp8w1z8Uf04sal4tkqHGwI39Tw3+AYaiuwu1of/6GRgy61F4ExH5VfNagFI1U00L9Zi/rKpZo/adhaPJ8WuvQ0FDy/G3VyMuSZYVz/XbzCequfDp6mEWUVSH1VNR5/3iLO8XwQSzm/9Xmo/24pcrVtsZOrlaqTyRjrvoIG+VnafG6Svljkk5cLgz+nfUSdBD0lB/tfLkNBsbZvIhFMdUU48qxcadEHZ7NdXclyBdz+yZ/ytqHYP+VMqh5Zh0vR8MOqOBx/YlhpfjB9tRSlGfId4hzVVKByyZVFYytL/mFw5r0VqK1KE/dJ/ehpV//tQbK69cMsBq/KMpuE4mdqsf+wEcaAgIk+z4iCoxVoeC6eV5soxFI/TIyhxyafmFD5jZ2oDEgzw/Yc1L9Yoa7c3Tmg9sYK4RbXDXmTjMJy1B8W1zRl3tD48Xx5R50zTfn76pQAumyxry+L65KyKIPysnUSa35woadNtgV0yH2sFoeOmWH2v08coHG7BXUv5Ki9kxaYlNNqCgZUPFUIS8A1Y4E1vF74+a441PqyshAH6yxigwM9F8LNERkbxxfaSr6llXj0+cz5dBNtFeuz1XhY5F/5RUd34/p+qbHa5QId2rm1iPz1shXWgGsGUpNgrs5B7bd2oCKOi/gYLAFt1hQdzPVlePQxGWybhb1xpas4z7eHTA/V4NBRE4zaZ+myjaj4Zg1qldWxxTVwpdNLxJh2ngtqWwDpRTj0vVIUb5+vK+V12npMtOtr1eehYs0P0bcfiIgebFtKSkoWnbG2oqIC3d3d2rPNYTMeU7A07P7rPajwN/rc/Wj86UDcvsG1vvCwuKnQnoTlg6ezA2ffC1ndUpm3bI86xDECOTwg7LC+VDP2f78aBeG+pRd38CsfciFuMp7fi4OVC78T9Dl6cdNdhspiFzqOBwwrys8TDaOyCDcggmxgv38d1zrj17CPJh385ylsmvr3XQ6Nfn04qFGq31eGx4/lLfLtqBx6FY8h00nIfW43DlZH6nYS5nMK83DkxTKYw2ah8PkupnQQ24+8FOFzfG64powwpUfKD+HTx78fclhr0MTrfiLdlYmrw5yTUEuXQSHk75iO1ixjsYuF+76S/GA+tgdH5iaT96D73Su4Fm710RWXJT0qXtmP3VpvYGdjM86dXeENUKCl9k8TdG4XPZ+iLvyBXFwgJA+t1KrXD0nifXXifYv0nYhLfbzE/kUSQ/2AdJFm365CgTH8dUnW/+cWrI7qJ87jdyNc05ZRjpfD8tx+HJIBmyDqsTRNFOOwKNOhdUos9cNS9Vd4MeYH0RYofakGtfkR3rdI2ulqy/DkM+HrowV1ayz5IYp6OJzcr9fjYJXaE9Hb0YZT7680BwQzPVGNI4+Y1SBlKJ8Hgx+3ovlypHrSjHpl8ac41zsLRFEuYq0nFz23UjyO0f/52tMFfHC2tOH8CXdwHoq1LD2/yBfJPic63m5fuLJ/OBHrb02MaaevKcWjz1gRoaqM3LaJsZ5cdvuBiIgUEat1SmRT6Dw9oN6I+Nzo+609rsMy7B9cQVPTAEYcnqBV43wzHjgH+tHyTjNOhzaWJdHo7PxHecM9gDGnVzSJND4vPA4Hus+24vynEW7gpp1ofrNVXNSd8GjDzeLLh5H3RYO4U+y3/8/fc8He2IpPxE3dhH8oQVjiDUHp4MZYWxfOvdEW36CetOrpIG5GLvfi9Jvt6Aj6DB980+K4OnvR9NatZTZUlzKLkQ9acfr9bgwOi4bx3EfNivwwimvv2xZ+zsCwSNfQ4/fBK17fceIqPgmX72IxNIx/f7cLdsd8PlXPq7gR/Gkrro9oGx8AK8kPzt91o0+uli1e7xJlonPJRrl4rf8jhOWXJf8wOMmJ/ta45ILEs+r1wyzs7zbjzAlxsyrq/7nVn2WZdY5jsKkdZz9YeVAvZrHUD5Mizf7hKprbxuGamX+Pb3IcfWfFeyIG9SRxTfsfoe+NL8cHLWhscsCtHY9vxgnbqTjWdSsSY34QbYG+4+J9p/qVdsT8+7xwDQ+g+dfhb/QlX2svzoprRtDnRbJW14sAI18MaUNvRdq0RzqK2Lk+accnoccv0s3ZI+ri41cWCeqtpdUvF+q5vYqWkM+Ya4f+6gZuxjNwGZjZtHwq27rnQoN6MRP55b0rokyEtI/vTWnXwGUG9ZYjxrTztvXhjCxPnSF1pbjuyLZya4u2aYHY8kP07Qciogcbe+wRxSqmb2WJaIE4lCVDQzWePGwGbDdw8u2x+RsjIqK1UlOKo3KY72Qfzv3Mrg6lpgQ132Mvcm+0Daha5MHnRB6804sz/314RYttEBFR4mCPPSIiSmzpWag7JOfymkL37xjUI6J1oEvD7ifVuftGzo8wqEfrwlyeoQxV9w5PMqhHRPQAYWCPiIgSllzk4OArO5UVKL3t3bgWlxUuiYiWT1doRu13vqLObTzajZYL/HqBVpdJLlZ31Ayzf7I8uTBMfRnq6+S8dFOwXY7/UHAiItq4GNgjIqIEIyeBfxhPi8eT36hAbiqURQ4af8MbGSJaK3KoploPHXupGqVycQD3MJr+p0ObZ49oFRnSYK2vxpG/OqDkwad/dAANR/Ng1PngbuvGdc5JR0T0QGFgj4iIEtT8xN2LL3JARLR6/IsrnfmHXtgntY1Eq8j1aVfwghTawmNyYZizv3FxSgoiogcMF88gIiIiIiIiIiJKQOyxR0RERERERERElIAY2CMiIiIiIiIiIkpADOwRERERERERERElIAb2iIiIiIiIiIiIEhADe0RERERERERERAmIgT0iIiIiIiIiIqIExMAeERERERERERFRAmJgj4iIiIiIiIiIKAExsEdERERERERERJSAtpSUlNzXfg+roqIC3d3d2rPNYTMeE60P6wsPo75cezJnGE2v9sKuPVtgXxmePpanPZlnP3kBTZe1J+vFv28TvTj7+jBc2uZEYDpag4Z6E9DTjhPvOrWtD57ETwcdLM/U4OFao8iH/bjw5gAc09o/ES2TrroQR54tggludP+mDdfafdq/PABiucbk56Hh5TKRXsFcTVdw9pRHe0Zxs07X2mWXi3i3UxK4bUEGVP5gL6oyNkg7lRJfvgWHvlEBS6oXjnPtON8Y6Rozn/eCsB7Z3Hi9iBl77NGmpSu3YP+39uDY82Zty4OJ6UCJxYTyWqNycdJlFKG8Wt1KFI3cfUUwKZnIiIp9oeGqdZSahtLnq/D4fy2DVdtEtFY2bLmIiR7WYztw5G+rUZmvbSKiDc+0xwqLUVREOgMs+zIXfKFEicmwrxAHX9mPI0cN2hZaa0kZGRl/p/0eVlZWFsbGxrRnm8NmPKa1ZUb9j/di/5Ei7Iz4yMT9rlHcWccwe/rDFajdmY4tztu40bo6PQ5crQO48Zn26LqHAnGBSsEkBj8bj/wNg318/j2f3cb9Oiu2pYq/1TmAwYjd/GIXVTrkZ2JnpbjEesbRe3ESM9rmRJCyIxdlBSnA+Oqd70SQ+OnghUfU0YV5etyf6MeXv72LqXvaPxEtk1vkmfwqM1Luu9F9dgCjtxcdnLB2cizY94dWpOuWuE6sRCzXGNckeufeMwBncREKsoAZ8Ybem7Paiyhu1ulau+xyEe92yqocrwm7ni+BJckLx+X1bW+uBzlipOGZkLb3V/NReiAD27LvYcI2jZm4XDuTYTm4uu1UerDMuH2wVGXCmDQDx4V+dNsiXWNmcefi/HXphkufsPcoD4Kcx3ejsiAJ3pW2G1bheqEvtqDm+UrUHy1D1ddEXfkHFuTkeODonoY30q6mGFDwpztw4M8qUNNQrNavXxEV4V0nxhwbpE0Zgj32iIhoA/HB8WErTr56ASdf5zBcio2vfQBnX7uAE6+1PljDcIkWwXKxyemSYDCakbuvCg1/sxf7H0rS/oFoAxly4PxPL4l66Moiw3CJ4sN8tBpPvrgDpXlp0PkjX8lpyKqpwuPfL4M1XdsWKN2M+r8SdWhNJozJ2ptk/WrJwe6v1+HQ1zZmr0QG9igGTjSJm+4T2uNsk/Y1qZzTa257GzqH1M1ERERERBRfct67ubb3T5pw5lddsE34lGGOBU/VoY7TWRDRg2p7IR6uN0Pnc2Pw1BWcVL7YuoQzH/TDKb/bMuZh99fS1NfO0aP0L6pgTRW/OofR/NYlrX5txvnLTvjEv1v+YMeGnAKCi2fQii1vsn7/BKjqwhKOyhzUPVGMXIseOlFEvI4RtP5zHwaHtZeHMNYXYd+hXGSY5euFe1MY6xhA66cOOCeUlwgRJlkNJ9yEnCl6ZB3IRWVtDrKyDNDLD/LNwjN2Bzc/7UN3xxLdiucmH19i8YwgqzEp8QrSwT9haV+HOJd3YXmyHHV7s9RvK0Saj1zpwuVTbni1lweRXZaPlWFnpRmmFPF6Je1Gcf2jftgidrOPjaEqB7WPFSJXnCfl2xefFx5fEgxyPyPkw9D3+GbcuN3Why8/dsId2nFBSwf3F1dw5rc+5D5Vit01WdpxibzX0osm8T5PuA4P0aSDP88o+zyJrIZS1B6wwKy8zwvnzW40/WYc7gj90NcqHZQJ9E/7UPBMBXZVmYPyQ8tpd/h0EHR5Zmx/ohBlxSZ1n0RauEft6Dw9BFtfcFrEtBCNJrh+8ME37cLA57241jgVPq8K4dLO2TeAG58Mwx6hHlIZUPpyNWpFMRn8uBXNl+Obt+dkpKH4sRJs9+cjpZ50oPv8AG62eMSzELokWI6UouahbJhTZS8NNR1GvhzAtdMLz62a3i50HG9D571M1P5ZCYpz5LeZ4n2TY+j81x50hqnzdNlGFD5SgHKRD0xGf33sgdM2gLaPRuGYq481K8xDUfHXXyEWq1tjTQdpuXlo7hq5JG0/Ar8UE3/YJK5JO8W1yWJJVcuRzAtOJwbP96KtKUxeCBLbNcZfHh/UxTOW1+ZYAX9elfX0rybVsjtX90e4xizRxvCfswXnOYZyESy6PKTLy0TNnxajIMc43466twUGeWwrnQw9wrGEM7evqVk4+Dc7kaubhe2DJrS0q/8eRL7mh+I1cOLaL9rR7ZAb/cc9iubXujFaaMHuPylGoVLeRf1wx4G2k93o61P+wgJRXWtjEPF8Szqx79/Zg6ps8cGObpz+xSiCSnFU7TV/Oqj1002fPL8B9WSEdFi0DvHn5Qj5QQ6b23W0UPsMbWOQMHXlGlr1+iFANO0oaWH588I1OoKbp8Trg86tnFapGlZ5Dv5pEuUv7kJp9hb4Rm/h3JvD8FQX4fAzhaK+mcXYxVY0fuI/hzGWi7n6K1hU1xh/+V9OPZJhRMWflGL7XLqJdBgYxLV/tWNkVHtNgKC2wLBoTwXc//hmnBg4I9oqX0RqUcbGWJeH3Yfy59sQEfKRum9udL7Vio4ZM3b/cSmKC9Xz65scR+8nXbjWGpIXtLSKy32MbE9OOmG7dAs3zk8FvEfLQ9qzRUW4J1nV64Um61gFtrV0o3NA26DJenovDtcZFn5OTSmOPmuFfkbk8Te6MTipbddYntuPQ9V6eNvbcOqDle5dfMkkJFpD6Sh6dicef74CViWoJ+mgt1ix/+UdKF7QHTZJVGj78bi4wGf5L6CS0oV2B478SfwWhLB+fT8ONxQh16IF9aS5breiEB/WaxsfBKmo/LY45nrLfBdkkea59bU4/FSY7sfpZuz//h6ly7J6ERCUtLOi7sU61O+L13AQkR+e34snvy7zj3YhlHR67YY3PNMT1Xgi5D26FCNy91Xj8e/kqZOJh2HcliUax3txcJ8l4LhE3hPva/i6eWEFGms6ZGej9uU6HD6co97YSeKYzJVVePyFLCzMeWubDqZ8sf/fD+mS7s8Px0K/6VKZvrYTT36rGlXl5vl9EmlhzCtE3Z9uW9C4i42aDsH1gw66VDOKG/aItDOHSTs10BIu7czlZaj/DyIdtE1hVVuxK1+UAdkb4g+LYNE2x5NeNCoe/94e1AXmI6WezEHV06IRqG2Zk24S50fWUSL/KEE9SU0Ha704t98vRW64oQYwIuuQ+KxvVQUMURDvS7eg6us12L0g0Cry93drUSfKg9kf1JOSDSLtKnDoeztRGiFBYslDayfadFhhHoqC6UlR1zxdhoI8Y0DZFnnBnInSo3vwxLPx+iRSrV2bQ6EzqtfaoLp/kWvMBievMU8p5Ui7SZPkNXCuHlsH02Po7ZQ3veLc1oQvL7q9FrVetdnRqwT1AqWJm/wyPP6iaKPOlXdRP2TnoPaFmrC9NmK91saNz4POcyPqF1uWbFgDv+hdQXstdU8Znng5pJ5cJB1iod+npnXQsLkNY23rh2jbUerrQ8ufHib5enFuww8f1KPkP1SjNFued3E+c0qw81ELDsqgnvwb4vOyHilD6YLOAtGXizVTmIcj36sV1+7AdBPpUFyKg98S+1aoblrIiK0Faaj6TvD9jy5FtCmfqsX+Wn+irpBoP5a+LPKRuLYHtSG0fLT/kXDnSexbrTgukR8qiufPry49ExXP1EXct1juY/xDUAPbn/JzSkW7urZO2xQHa3W9GDu5MKgnjQ2Ma78Fs1TlKPcO7rahBUE95Ih0KFTrSL0oFFnKbxsHF8+gFVveZP3+yXdTYMpNQ5JoaF1770tc+LAfXTemkbE7G+l6o6i2RtDXE/D1QWkeDn4tG/ppB1rebUPziX50fDaArubbGJmexdZkD2wd/s8MnmR10Jip7pf8luCN7vnJV+UjzGScpupsJN/qw5WPuvHlKRs6zsnPuQN3oWwUJcNYsAWO309gSnv9AltNKFvO4hlBVmNS4hWkg3/C0sxMbDPeh7vzBhrfuokvfzcEuzEDpeLvpGxDSDokofgvalFp0cE71IuL73Sg5bfib18agSMlFdaCdGRsN2Dq8h04V/hll0E0Wh6VK/n5nOj7qAMX/t9eXD+r5ocJSxYKLMkL82F5Ib76xzlIkd2wf9uGz37dp5zbnt5JGMuzsTUzC7nmO+i5ETDLdGA6pAWkw6cD6PeloahMXIQsJiTdGsbo3LdqMaSDP8+kmpC5NUm8rxuNv7yB1oDPSTIbMHt9FHfc2nuENU8HswkZBpEO7ddx9q1utJ+zw2EWDR1rCvTibmj838dFrg9QXYrHjsoLo0+k3U1cfK8TV2VaXBhCv20KyRZxQW11B+W9WBai0T+yHUfqtyo3bh0ftuPiB7fQ0Sg+Y9QLc7lolORYYPYOY6A/oGN6ahb2PpeP9PsudP/zlzj/G/EekQ43LtlhvzMDw1YfbofsWxBxUd9RLc69/H3Whf7F6oRYWCw49EIJzKJd4x3qw+X/1Ynmj/pxQxxXT48TutxkTF6+G5DeSSj4j7XYlSf2SA4Z+H/acVnWkwHpYEw3ITdjAjfb54/KVCsXR9iC9BwT9PfdsH3UisZfi7S4OobkHTnISktBVupd3GgLrNMNyKnTwfH5TVz+l1to+zexX+J89fROw1wl6/A0ZKcHf07MeSgWMUz4H1M6RJmHZm6Ozu/XXN6Wva7ENW1uf+Vj4QIAKWVZyJgaRttHXWj9rU0p50qdkr5VpJ0Bybkp8Fx1YCLwNAWJ7RqjpssDuHhGVG2OFYh0rV3sGrNEG8N/zhac5xUvhLHMPCTr/SctSPZ5YP+9qI9/3Ys2cTxKuUgyobRI3KyudDL0oGO5C/ORHJhESnQcv4zPT/q3q4/A/Zyc2oLSWjNSzD6Mfz6ByaCxSkkoObYDeek+2BtvYmDuffPt1swCcS4CrzP++sFowLZtbnS1TGPuT8ZwrZU9chYshBHmUWC8PVceI55vv9H7yPhqDrZuScX92/7XxNJeC06HZM/y0mHROsSfl0Pzg86E2m+WIyvJB2fLNTT+zx4lD3Vdm0BSxTZRH29Resn86y8H1mexlLWqH6Ro21GFVvzBM1akwQtH03V8/n9raSfuY+5atiLfkgpjUSo87eJ6oTRaDCiQ5SfFhKwMD/rea8alcTO2l6Ria1Em0u7ewrmf92L6K/LcB+ahGMtFPBZo8tebi9UjujTsfrkKVoNMt/l6dS4dtqVjW6UoHhfvYjqgHvC3BbZW5MBilOXqBn6v3P/Y4SrKQX6WHluzp9D3xZS4y1oZy5/X4aFyvWjDizrid+JcibqyXWvDj0yLfRFti8He+U/xlyVTQSYMop0yV698fhtTJRZxjyr2rege7J+75nvmxnQfI5pqT1ahplgPr60Ljf/UidZP1PPVc2MMkwYDdA4HRke0F4tPGwxzTmUvzN/+U9/cduURGh+I+nqxnIU75WP5i3ea6grV++O7t9E5d171KGooFGk2C/v5Wxi+rWxUGGpL8bVvlCE7dYu6Qe/B7cYx3A26nqyv+IZEiZZjWtzQ/OIGurUAnm/YgWtfqiXQnBfScyNbXIjkz7Ex2G2+uSFHvkkPxhr70fhhpKG/0bO/14qLJx0YG56FT/sg3+QUbO90q0NexMUvO0fZ/AAQjaovvsTZ98TNg1y8QCSIU9xU2mW6yHQI/CauNAeVhaIqmezHxbeG4bijbZ8WjYtTN3BR3hDrLCipj/wt8PKYsOtgpvjphe037WhtmYJXu6rL/OCaCBc11KHg0QKRh3wY+fQamuWwNe3cem3jaD7eDfnlvLE6N0LPK3HcTVdxxp8OgruxC5eVoXlpyN0V8K3aCtPB29OOM8dH4Zz7HBu6lYutCRlFyibNOqbDB0545Gf5ZuE4qeUHnbgRCPpmVo+Kr1mVb7tcX8i0E2XKnxYzoqF1UzaIR5cZ+F5MGiofkXs7he4PbqCz3Sv2UhAH5m4fxvkPB0STQ4fcPaIhJLf7ZaXAKK980xMY6hDv0dIBolHubBF101L71m7H9SFxLkVjZPDf+pV0i6fcx8RNjQzq9XWI/CAaOAPaDood9dqcuHZ8AHNtKknku12lIk/5RLoe78Wgv570p8MH/ZAxYX2VFQXixnwBn7gpfrsVLS1a+k24ce1zbZxKblpIjwAnWl7vwrVGN9zK5CQqr82Bi2fV9+jz0tU6e4Fo8tA6iCYdVpqHouD6RDTG3xsW17/ZuXKu1CknutCpXP7MsJQoWyke1rDNoYriGrOhJaH0UVnv+zD2+zY0nRV1hHY8SrlwxPXrj+j13MGA/OYgJRcloT1OLNmyGhXXpxHcalE3LaC1W+euM7J+eK9X1IhCYQZyZX2gWOm1Np48uHtX/c2YrfVdX2l7bdnpEKMqC6ziPhtOG5pPuObykM/hwrUPbeq1bD17yaxZ/RBtO0rkuyeKleuUu6Ud508FpJ24jxl87xpaZFtCl4ntD4fcZ+l0ov3Zi7ZOkWPUiJ/Ydh+2T+1wzog85P/ccFY7P8RAd6AQFXKEwkAXPguoV+fSQQ7fTs9HSZW6fQGxz87Prwbc/8xi8NMBNa0tW7GcWY4WZclBTbVyZtEp2hzNoj2ltIkENR/1ifozJAjmp7VT5uoVcX5s79yATb4/3YK8sO2o6K4xxkw1fzhvjsMZ8G2rd9gt7jk6cK1V27AiG+B6oUtDSbUsMaKubhkLmKpAB12y/DkFt79Dny4Juc/W4olnrKL8e2D/pEtNc5F+6cubGWLNrEORowed/Wwv7CFdM1wjEfpq3LqLMVl55Vfg0W/mwGJZhyw7d9cmKIX9ASAbVR9PzTVaFD4PJrRGYiDjDovS0HFfv62eqxBjfWrNmFUYdizg8hWaYJENPvcwboWbIycsE6yyESua0v0X57/9mjPpwm0ZPAsNVvpN3EJzmLk/bverx2SyzF8QV5YOo2j9lTNkPrgIDar1SAeZH0LTIUJ+QIYZ+fKOxefAjUiNk3jIMWObTEqnuBnrUTcF6XRC6ZedszX4JmB4EmOyAWEsxMFvF6GgWFzE1X9ZJg/6jl9RVnOL//x6JuSXyxuqKdg+Gw/JD+H585230w5buGq05zYGZCtbNOhzwgwpdV/uWjhEwT4VfWDKX0+K3Q+bntHkoXUQVTqsOA/Fh0/5ltjfCKW4WOs2RxTXmA1NtxU5yhefY7h1YTk111qbws0rSkUIa3XwcElD7TbILe62EYyEuXZL9jML261wiOumjDTp0rF17uYutmut/d2ABTAWecQ636VOG1K40vba8tNhFaQkycvL+lqr+iHqdpQ/3znRez5cUGQWtlb1a0hjkTH4y07RprGdlwsCBHD04Xqb9vsi1jU/RLCtVG3x2VvHwrShZjE2IK/qScgqCV+3etracG5uPkHNkNYWEEm80jNu+Eq2Ut/ANhh2eOhiXM1h2ik+N+4o30GakBFusrsorzH+4amWI7tR32CCMdwXwisV0/UieOHOyI/lzL2ZBOs3qtUA8J1buHYhMPcbsDXwEpFhxO5v78fBGiN07jFce/cKmj53wb3O31VFsko1EtEiIjScwnI4cPFDO9w+HYylFTj0ygEc+9tqHDxmQVa29pp40SXBfLgIh/9qL4796GE8/WP/Y5kTg24m95ffr9gk+6wLxof2BqRZwGOZE10vKVf7pnRU3FQrG5YhJ02byyYH+4POqf+hTggeLZ9HG0Jj0s81kFaWDr6g+PGi1iMdosgPKNECaXfvzvU+XBXWNLVxZC5Fw4LjkY8I5dbnQsuvuuAQ+6a3FGL/i6JO+a97cPj5PK1hvI5y0pEhg7aiAXMnwoTsodIy1G9XPXcjNY48mFDa80nQh2mgqcGhKMhFPZ6tQsMP64PTe6lyHk0eWgdRpcMa5yE5wXb9K3txNKjsxlZ3PWjkXIhB+TTg0XA0zI3dWrY5FhHuGrOh5RnEbaXgdKlB7w3I87ld7e1cmhvQe1mPwl3ySuJE74Vo79R88CrVbhqMshO9tEptjpVyaz35V6e9FiYdYtXjVANn5mLsf3o+qKArNKP2qQKlLHhtE8tv+yxKLgIRJg2UR4Q54taqfoi2HZWhR5qS76bgjjSMYHBSDU6lJCs9Aed54Q39DKdHtBxiFcf8EDU9MrRgq/WpcOdV1PtLLGTlnQr3ha0/qLRw0aJoZeSpUSPXsDuq2+HIRHprPf4M5uWHviNdYzy/68LFdrcodEZYD9fg8R8ewNFXdmD3YSMMSvs0Dtb5emF+ahfq5VBo2eP07dDFObxwy8C0kFphVeZqrFCmLujGuX+4gW6lba6DPrgQbRjrfBdDtDRvWx/O/OQKmprsGJucVSYxzd23A4e/ewBHjhlDLlAxUlYQ248jDXJC3ICJTGlJ/m+C18yyI2BC8ipXcu7ZucbPA50Ogdaq99BKPmfAgfM/bcK5s/0YcXjhkxMWV5ah/qWH8OQ3s9RhlushhvOUlKzN9bEWlAmptUU95hbpeECtSR7SJmrXJtiem1yaVtWatDmWK+AakxA2cgB/egL9NnHd1GWhqE4rTPnZKJE9o8IumrFcHkz7R2DGeK2Vc+yFC0KEPsIGoyPRpSFDCSKKPDShthdWt50SkA6xmh7Dl5fkbbYO5joZVFCP+9hLcnEHse/iRrzlX4Nvw9famtQP0bZvUpLXvzfjAnHID1ETeWSDN01Wswx6XDGMIllwjZnFyAetOPlmOzo6x+G+J7/AtKCioRZP/rAauyvjmMBRXS/kHHsL68SFj8UWbklC1tM1OPKQSdQlDrS8HabH6Vxg2oTShlKYdXLOylZ1qiT/dCg6A4zKdyRTmBxWtmwYq1nDE8XPjAf2U31o/FkTTsgL6mXZxVpc+Pftwq5K7TUroDtQjCrZaJATmZ66ilN/H9itt33F39BsZi6H2siSk6UGd4cOeYRZ5jwq/nmmM9LUHmsh9GlhmlP+7vPKRPVh9mnusZyu2/NM2hKjXnnF0zyI6RCWf/hiWurq9jTxf45cpj7ssfgfEb5h9c3C2TiAi79oxsm/b0bj2WHlW3hD6Q7UHVqnluHceTLAsMxeHe4J9atFQ3qk2wkDMpTJnDzz84XERM7hoy7qoSzS8fYlnAxM55MbrHWzFlY7D5XmYLf8Vllc7RxNbeJmMiC9X72CjoAJryk816m2gDQLfiw6rHGV2xxLCXeNWcq6fiEpdlMJHW2NcF0yxqurx0r4MPiFXClWh9zqDOUGyLxPrmA9C9sXY9H3nhE3dxlb5S8zmFYr7rW91i5Bd2Cb2mvddxvDHcqm1WmnhEuHpei2KOm/QHoWvnJA3HTfGcXg8NT895f3pjDW1oEzPw93Ix4rDzpfD3PsymOJ87Pa9UO07ajRKWX+wUXbDgXpai8p14z22lUSS36Im/kpbOwnw53X+Uesw9pXyl8GI7fZomXAVqW36Ky4XigblmWpa4xv2InO90SZ+2+irfdWO7qHvOLcmlHxTP7K57hcl+tFEnKf243DdTKoJ9qwb3bBpk2jHMyDCf+cDD4nut9rwflTblG+A4jrh9KsnphEwHTTG8J6NgNoFelritAghwH8qBa1NRv864toTYsL6skbaFW6w+qRVRK+cvT566qUpCUzun9OBthsaG6aX4xAkbI+8yfFSzTpEAvXLZdS4ZnksvLqptUh5zaRP7O3whIypFC/rwwHa8J9+iRGlYp7G/JqlA0rFzDhqqNnvtXywKVDJEOTGJPlJyUX2x9ZxbrH/zkZ2chVrrArMOPFWGMvLl6WrSIdLIvOB2lA6ct7Rd26F/v3xfv4/OcpE9sfDZngOgJ/vtNvz5Xt9oWqrSiTIz9mxnB7mcN7w/PP4SMazL8PWKRDo0taq66aG9Ry85C/QYvksEOjA/nnw4JzEK0Bk6ErdOK6tIadNVdFugm1PziAp398AA3Pmta2J1w0ltnmiJu5a8ws7B0Bd8biBky9uViYd0xPVGNvqfZkPYxOYkLWx7pMbAudy7MwD4eOrPhWMCw18KNfsizNaRuBTRbRQlEvWtJQtFPUszOj6F/GfGKh9AdzYZVV4sQ4HHNB9tiutXGfYy8jE/u/ql4YvR231UWKhNVop8ylg+MO7AFfNnin1d5D+tCuxulm7H++OOwNvemrBcqCC/aL3eLG+ypOvqYd+3+7isbfjMMd2DbfKFajfoi6HTXfdig/FO7M6lH6kJofnL2u6IPYUQhfLtbO3Bxx25Uw5poxfW0nnpT33X+zE6WF2sYw5tpsVVYUL9bUXK7ybSiWwdyAAP6SItzHROIbcOLaW9pCkqkZ2BZhIUnfPTVnLSjzoWK6Xqxgjj1dEgpeqMPBalHruOWCL6INu0jevN2nDfa/ewe3OkN7QSah+ECu0l5xdzu1L3I2jiVSnhKTAWWPFarzfOiMKH0yR52LKgGZGnbg8LM5sBQnQR8QwNcXW1CkTAUyi4lBtakbyj2oVp4oLEf94bSg94dy+yexyBMVpH+KkVRxgT5cioYfViFX25SIokmHmHSIhrL8BtVSgYaXrbCKczXXcyA1CebqHNR+awcqInaNXqYJJ4aUoTIW7H7eApNsyKfoYTm6Ew1P5UEfdmjqLAavyjeJiviZWuw/bIQx4EKqzzOi4KjY7+cilBB9Gkx584FdncWEype0CVcnbuH6ZXW7YjOnQ1Rc6GmTcxXpkPtYLQ4dM8Ps/yyRIMbtFtS9kKN+c7wiLtxql59jxu6XdmJ3ncjb/ps78Tn6YhMqnq3CwYaQRm6tKNMv5KFguyHoZlCe25JydcPY8CJdAqqt2JUv/qbOgII/LIrzyoazsLWo48GMdV9Bgzi/WQGTc+uLxbG+XBhcH7Vr+S4lB/tfLptfyEGkgamuCEeeVVceczbbI04MvzweOe+7wlJjgf8LVZ3FiOLna/HU0fimxIa2kjzkb9Bq5XeubIThHtfm/DJZUFKl3dylyCFqVhz6L19BZaJe2DWmr5aiNEPmVpFXaypQuZ6BKc1K2hwx0acjK+BaEXSNuWPDzcCA04RHdrYRLNj+lBEG+R5Z9x+rxpFHzOvcoHdhqEfeABlQ8VShXGhWrYPqRVl5sUzU0qsRSpiUU54J2mcuayGDKfR3qNeNsj8vgYy/y0Uz1Fo3MoMl4Poiy2B9GR59TNZ5s7A3Bq5OupbX2oV0ZoPabv1eFaxyf+XQ1VMBt54rbKcY8gOOJygdvBhsdIirxDyXQ10ZyVBdiFKtXa0rtKD+21UoiDBXgSFd/UJLXmPMGUkwKF3EN461qx+ibUfNtx1MD9Xg0NGA+Qmzjaj4Zg1qc0Raivxw/fP41V/LLxdrx9OkLoKjr6rG47INFdiGTxfloz4P9d8tje99nc6MXX+QpdbJxizUPpEVuT72t9l04hx+W2u7+vOSdt9ZH9pu1ejlSJ3AfFCdh0PPFSlBclfz0FwAP0g09zGyLn2xCrUNJlH+5t+jnNtD29T27oxLW6xjoYlhtaevobYCu6v183XLAmt4vRBt9dKX6rBfjn5w2nHxl0v3+vVdGkC3fE1GCQ59M2d+/sxU0e5/fjfq5JfcM6O4/jutjbaBbCkpKVl0gHNFRQW6u7u1Z5vDZjymYGnY/dd71EIrufvR+NOBOE02K8lx7kstKOFCx/HAqLmcpFadNFh2j24KqkiEfWXqpL097UFDAOTE14tNdOoVrz8jXh/+MiU+87t71CG2oeTwvdcDJszMz8ORl0RlEq4S8rnhmjLClB56TMtJB5ESTVeCvmWVc6nUh1mdMkjo/q1IFOngPw9hP99/DkPTQZBzb8nKeJFKfMF7YlFdiqPPyUBFCPkNzIkp7Hq+DKaQPCQb2NYX6tSJUiMJfY8/HSJR5mYI04072nQQ+a7hZbHPyrCdhUNG/XllQZlZ63SINj8oF1LRkMyP8FkL/l5sZUl+TuV3IuRtzYL3LHVu74h9+0exb5HaFYFpP2PH+b/vW/KmMDrqcAHlm8WwwuSVRfOdD57ODpx9L7ie9OetBekj+fNlyHkyPSHq40fC18e+CTemM8RNX7zqlBjEUrfGkg4rzUOR0zEkHVLN2P/96oCJ/gP4PHC5kmEyJy2oH2JJh6Wutarw9VSszMf24Mg+f89UD7rfvYJr4Va4XkMra3NEIcZrTMS8I+r+zp6tqKwxxiU/xPIeWCw4/O0dyAqth3xOdLw9hIyXqmANfc8K6WrL8OQzeQuvhULYtqZkycGRVyrEVUdy4tov2tEdthL310/a0wV8cLa04fyJkGFasVxrY7DUOfJNDKDp/+rHSGjPlKjbazGmQ8T6S7y+yYZpcROfG5ofyq14/BulEeYo9cE37cLIF31oPeeGJ473/su1ZvWDFHU7SuS752tRXxk+KKSWw/aAVVX97a6A8+2vlwLypz+fzZen2PJDTNeYuTby4kLLuhy98rg4jsglcOG1zH+cYdsCS0nNwsG/2an0NlUM3MDJtxYZ3l9owaFv7Fgw6sYvdB+WKute2w189s4Y3IEfGNM1Zqlz6xVp3SLSOsJcfou1WULrvDW6XhjFNfPxCO3WIKH7t1g96XPD9uE1tLRFSId1FLFap0Q2hc7TA+pNhch8fb+1xzGot7Zcn3apE9Q6PfNzbfhm4XGMouPEFZxe9ALqQef/uIrmtnG4ZpZoAQwN49/f7YJdToKubfLNuJU5Pc7+tBXXlaXUElUU6RCrgWGce+OqqOSCP8M344FzoB8tv7qBmyu8aVe09+HMe70YmdQqU58Xzs4OnPkHcYGOWPPPwv5uM86cEK9xhOQj5zgGm9px9oMIDeyg3m+yUemEXbz+zM8jzM2wWdMhWj4P+o6LzzolFxYI/CwvXMMDaP51nG7sxOd0/mMzzp0dEHXEfNmVn+NxONB9thXnPw1poLXYtAUPPPDOvwFekQZ9Z6/i9GJBPandjutD4m+Kzx78t/44B/UkdeLi0+93Y3BYNIwDz5Oo9669b1sYWFHyXSuu9Tjh0YZCKMek1JNX8UlIUC9Wrk/aRNrJCYQDPkOm26kr+PiNPnGL/IBYYR6S6XjmVEieDUfUN81vtqM7aK4pUZf0dOP8P15B042N921xNJy/60afMqm/D662LnSuc1BPWlmbIwptQzjfqOahwDK71DXG9cl1NDY54Pa/x6fNPSbq/oEp/99ZJ6LObXyzAzZ/O0qkm9vWi/NvyGDC6uybr1Xc+Im6MuiathSxnz3+4IbjtlwHZ2mBf1y7jrW8I649C4J60hpea0PMtzWa8fHrYYJ6UtTtFA9u/UuHMpG+yx18nV00HWT99XZAfpD5+468honXn4qwImifAzeH1XaN3B+PO7CO1UGXaob1cC0avmFeJGizetasfpCibkeJfPfelYXXFmV+wi5xzgODenESVblYO97LvTgtF38IaRP5psV9XWcvmt66FbcvqBTTY7j2+zE12OweQ+vpJebslItv/fwKmi874NSGrEv++86Loe1Wv6D0Dsh3b4cE9QIFvkdJg8WuMR7c/LW6aIYrYL/UdodItzebIwf1JKXNEtoWjWCNrhe6WGeJCWhXz7fDRR639aHpeOuGDOpJ7LFHRBTK/01XnHsXEBER0XrSo+KV/dht8WHk377AxQuRbiLne69E7P1HcaRD7vN7cbBSD29PB87+ajy4V54cqvcHFTj8NYs4g+Nofb0DfeswhxuxXKy1mHoT8j7mgcQee0REREREtOnpHynFbjlZ1KQN1yMG9WjtmVBSKfvhTaG3MSSoJ/l8cPVoc0YjGSnxni+aiCjBMbBHRERERESbV4oeWQ078PgT6mIPtlP2B2f6gAShjhpMQ9kTebAETPjvXzBi/3PaaroTtzEUbjoUIqIHGIfiEhGFYhd2IiKi1bHMSfGDxbh4y4JJ5H1wfn4V5z5ZakgbhxyutWUtsDA9htZf3UBfvOeLo2ViuVhrHIpLy8Uee0REREREtHlpk80rizcsGdSj9eA61YbT73Shb9gNT+BibwELj5z5OYN6REThsMceERERERERERFRAmKPPSIiIiIiIiIiogTEwB4REREREREREVECYmCPiIiIiIiIiIgoATGwR0RERERERERElIAY2CMiIiIiIiIiIkpADOwRERERERERERElIAb2iIiIiIiIiIiIEhADe0RERERERERERAmIgT0iIiIiIiIiIqIEtKWkpOS+9ntYFRUV6O7u1p5tDpvxmOgBk5GG4sdKsL3SDFNKQHy+px0n3nVqT2JhQOUP9qIqQ3vqN9GLs68Pw6U9Xb75v2c/eQFNl7XNG92+Mjx9LG8Fxx0LHSzP1ODhWqP43H5ceHMAjmntn0L59y9EzGm8Lse7UuuVtwwofbkatfl6eIa6cf64I0J6bfKylG/BoW9UwJLqheNcO843erR/2Bh01YU48mwRTHCj+zdtuNbu0/6FiIiIiGhzYY89SgiGfYU4+Mp+HDlq0LZsJHpYj+3Akb+tRmW+tmk1pZtR/609qKvJDA7qUYIzobzWqFTKuowilFerW2mDyc9Eeb6sh3Qw5FuRvxZlfgMy7bHCYhS5VWeAZZ+oi7TtG0XuviKYlMJkRMW+jbZ3RERERETxw6gAJYSs6iLkWvQbNMOmoWifBeY1CrJZju6ENVX84hxG81uXcOLVC/OPFfXWkzzofD3g750c1rbT6nOhp9UN2a/IN9EvO19Gdrk34LxfQceEtp1W39A4eoZk7zQfPEN2DA2pmxfa3GXJddUOh1vkVp8HjsvjG66X58jlfriUwuRG9+XE6INKRERERBQLBvaIEooB2QVJ4qcH3Sd6MTjA4WWbhw+OD1tx8tULOPn6IsNwaZ150Hf8Ck68egmnIw7DfQAMOXD+p5dw4rUrG24YruRrH8DZ1y6I/WvlMFwiIiIi2tQY2CNKKHoY0+RPL7wM/BARERERERE90Lh4BsUuw4iKPynF9mITDMk6wDcLz9gd9Dba0Nnq1V7kt8TE7/7J++cWfzCj/sfVsKr/uriQBSOsLzyM+nI3Ot9qRceMGbv/uBTFhUbo5S5OjqP3ky5ca53VXq1ZdPEA/7670HG8DZ1y6F2ExQvCie9E9/50CdiXJRjri7DvUC4yzOpQZt+MGxOdg2g97YBzUn1NRNEsqqBLguVIKWoeyoY5VfYqlJ/lAZIN0IkPDpsOKQYUHCvDTv8iIEoeGsX1j/phs4WcI0nbH1fTFZw95YGhKg91f1yM3HTxeT4vnDe70fT+OOQIwRUJzI+/mlSP64A23No3hbGWXjR97IQn8HPy89DwchlMGEbTq72wa5v91Hy5MB3824OF/xvhRbeogi4vEzV/WoyCHLVMKGl+bwsM8tgScvEMtSzc9MnjKkFxTprIbz747jjQdrIbfX3ayzX+9PbnoSD+c7ggHebTOEg06bXaZSkKpqM1aKg3KX/nunkHDv2BRRzhFGwft6GlJRmlL8nFQQyivrSj+f/sg91fT8zl8WBh0zJU6PUCPngdDnSfH8DNFo8yBH2B0PpBvMo36YTt0i3cOD8VXP6kCPXyYuml5getPr2Xido/C8hDk2Po/NcedHaEqYuQBPPhfNQesCJL1j/hJFR5IiIiIqJEJVvKRFHT15Ti8e/VYne5WbtJE8TNqMGSg6pn9uLx50zQq1vXiRFba/Nw5FvVqCjWAhiCLj0TFc/UYX9t4mR9eeP59I/9D3+w04SqlwO3y0dN8OIdOrl65348frQQWVpQT9mcYkRWzQ4ceWUnSgu1jSuVbsb+/7Ifhw7nzAUiJJ24MZeBiLDke76/B/sDFwFR8pAVdS/WoX5fhJtlwZSRBvNTNXjy62VqUE/S6WGurMKjXzfHr2LTGVH5be245vYxDVn7qtEQz89ZI6YnqvHUt6pQmjdfJpQ09x9bgkrdU4YnXpbHJQMycosOuuwc1L4QUiYSQSxlKVaFhTj4VQsM8u+KfF38yDaUPlujBPUkXbooi0fjsPBEoaiLQ68X4hzp5fXi6R3YHu4cyUWC/mpvcP0gz6uow0sb9qC2TtsUF6JOPCSuaUrZCMhD6RZUfb1G7LfyogBJol6uw5EGUbdGCuoREREREa2RpIyMjL/Tfg8rKysLY2Nj2rPNYTMe05oSN1b7XyhDVrIP7s4bOP9/3UTrJwO4cWkEjpRUWAuMSM3JguH2EIZva+9BMiwHrdiWCrg6BzAY2hUpPxM7K8UN5Pht3GiVPT88GPxM/E3t4SwuQkGW2jPkt//UN7ddeSivn2eqVV9rKsiE4b4bg79tw2e/7kPH57cxVWKBNUOPrUX3YP/cJT5F4/98zzh6L05iRtus8u/7DByXR3FHdr+wjwfsw12Yj+TABNnr4zI+Pxmwb+Kx4Fij5D+epQXsn2A6ugsP70wDpsfQ8WE7Lv7mFjrODaCndxLG8mxsTTcir3AafV9MIVx/FMWi6eKnR+lffgU7MnXwOQbwxfsduHKiHx3i2HtuiM/atQ1b9aHnPQnFf1GLSosO3qFeXHynAy2/Fek1l4fSkbHdgKnLd+AM7Pzp35+sbJQWGuCbsOPyr9rxxUf96HPrUbLDBL1Fj+mrDkwoJ1f2cNyL/UeKsHPRRybud82n3dznZGZim/G+ks8b37qJLz8dQL8vDUVlRvE5JiTdGsaof+GKrSaU7ctECiZF3l24mID/PIbmf1drQH7puoeCRf5GeEuULb/qUjz2pAXJPg/svxf54de9aBPHc+OSHfYkE0qLDEuc543Gf9wpyCwwIdmj5fMPRD6/OobkHTnIMhqwbZsbXS3T8HdN95+HGZFQvTdDcr7/HC5Ih1ncuRhwnlz6ZZSLEKtWlqKXsiMXZQUpMOWK8jJ4E6f/cQgpB3KRYTQjL3cL7Keace5GEirF/ialiDrUv7+uSfT600A8/PVy2LSco0PBn1ejLPM+nC3X0Pg/e9R81ziEnh4nZs0pmO0dw1hIZjc/WYWaYj28ti40/lOneo1R0mEMkwYDdA4HRke0F/sF1cu3cb9u6XKh5octSM8RaSGuF7aPWtH464A8lJaCrNS7uNEWcJ2pKcHhQxlI8rnQ/c9f4rysW/99CP2j92GpMsOwxQvbB0347GSilCUiIiIiSmT+r8GJls38tRJYU8QvA1347L3x+eGc0144Tt3AxZYp8USP4gNZ65vBxE1Xx9utaG7ywCeHbM14YHvnBmzyTivdgrwE6cljfzdgZc1X27XhmTKIGLhdPgKG5qZmYfc+k/hlCt0f3EBnu1dNA8FrG0fz8S6MyOc5hdheqm6PWXUBduWIMz1tx4Vf9sNu880Nq/MOT+Fu6KhsqTQHlYXiPZP9uPjWMBx3tO3+PCRvonUWlNRH6A2jk4GPXpx7o29uARHPF0PoVoJsZlhKlE1x4IOz6SrOiHzu0uY0dDd24bIyNC8NubvUnk0bXxJKH7WKUunD2O/b0HTWDbd/jsbpWTgdsswmsOlhNP1Cy+fy+YQb197rhTJAvzADuYlypYulLK2Ezo2OUw54Zrxwyywgu6o5+tDaNAuffSpOQ0j1SDfLE+DFWIdrPt+JCslrc6Lz3W50h5lSwJipTCYK582Aa4zgHXbD9psOXGvVNsSLdr1oaQnIQ5+PKv+E3LSg4ceWqhxxVKIuuNyFa/66VfzP3T6A5stu8USP3O3q/hMRERERrbZEud2hDUOPvFJ5wzIL26Uxcau20NjlEchbG+SZsayOZqvE1dyFzgHtiZ/PjTvKvZoJGcuawC9BVWrBDMcQbvaom4JMjqHfJn9JQ1bZyoaSmUrNyk2up2MEDn8UYgnGHRYYxU/39dsYC/Oesb5x5WdWYbrycwH3AM7/chiuoPd6cFcJEOqgS1Y2CE40BQU/Iz0izFc4cQvNYeYOu92v7p/JkiCBPd1W5OTIX8Zw60K8o0Prz36md34eOD+HC7dlRaRLx9blTYe57mIpSysyMIibQfle1Oufjc73ZI4LD+4MyjxnQOkz1aitT4NefjG0hLEBtYxZjuxGfYMJxlTl6aqRQboF14sYgpv6ZA7NJSIiIqK1xcDeZiMnDw+ady3g8YJZe1EoOVwxzOuVR1nIAhYGGJWuC1Nw+3tZhRpwqz1lUrYoN6kbiw9ebWyUwbx+N2By8vrw6f0wGo6uPFhkyNb+htMT8SbdOaresupT56JgMTFlyxCduBEfWn6vL5NFfY/xob1h0yDcBPhBvF54wwQ+/L0bV7KwwHL4PPfUX0x6USISQJ5B7XHkdGFsTVZTjqZO8ZMLVIR7vXzEMleeKOtKDDMNxkxlw4YXS1lakZnZuR6BqkXq9RVw/KYNrUPiZKSaUXp0D47+sB6Pf6sUlXWR5w30/K4LF9vdopVihPVwDR7/4QEcfWUHdh82wrCMwGC0fIsuIxbMH3Q07hP7U61Xj0H8z1RXhNpaWSPMYqQnwXvBEhEREVHCYGCPoqRD0sriQBuGxxVxZrmEl5S8Dicpih5GurkJ9FfbYgGmwEeMiyy4Z+Pcu2mV3Y8ierFpeDA9v2h2YliL3npryedB3/FmnH6nC90DTniRBGOeFVVP78Wx/1KBYqU3aahZjHzQipNvtqOjcxzue4DeYkFFQy2e/GE1dleu3xczvgs2dMgAqM6Eiuf249iPRB3yowNoeLoQctSxt+cGrrWpryUiIiIiWm0M7G02l3tDhhgGPN6NdHe72HDFXm1ONz8P7t6VPxfpBVNohNI30O1dftAjUreNuDNga7b8OQuvMl54eXRbtF/ixHWqLUxaq4+zYYZ+Rst9RxuXuEiPMnOOOmuUe2JlQzN999QohDE7TP9MXRJSw2x2OdTegnIxlHBpMPeImGfXlylXHSLsldGGZVqzLB6O2E3lLG0V5VbZEExvjHcXqGjqFD8POl8P93r5iDBUejE6AzK2yl9mML3c8ZSioK/naYqlLCUST58D195qx6nXLuD0r7ow6BTHa8xB3Z9aItZTvmEnOt/rwJn/dgknxXu7Zc8/nRkVz+Sv21QP+keKUZXtg7PPjrFJ/xdEPvgmx9F36gpOi3prZbUqEREREdHyMbBHUZLzJckbmSRYH8oMO9TW8nCBEjzw2iYwv/bwPcxoQ2B1hpBsV5iHI38UtsvGHP8Nr16/wixbvg3FGeKn7zaGO9RNiun76o2YPjnkmMRxPl+NykijmDXqwhR66Fd5Hqhl676rpn2OFWWFypZgFgvKi+UvTtzuVNM2VhPixlsyF5tCKhSRdt/YhdIwkSTXLZeS3qZy8yoPZV3hHHvh6NJQUi2DorOwdwREjNz3tJt5kYdC8oHpiWrsXekiJSsxOokJWf50mdhWrm6aI8rfoSPrORvm6tAfzIVVZkjHHdj9KxcL3mk1ELOgLkk3Y//zxWEDn2sllrKUqDw3HWj+wKbNx7oVslpeim/AiWtvdauB4dQMbFv8srFKDCirt4ifDnS924fGnzVpdcglnPxZB1rlYk3qC4mIiIiI1sQKoyT0IHJ80a/cjOlLK/Ho85kw+9c3SDXA+mw1Hq7WizswF7obA7vJzMJ1W72hzq0vgEW7izNUW3HkxTJl+NJi/De8htqK+TmNlqDPSIPRv2/iDcbqPBx6rki5cXc1D8EeePc16FInSTfmo/KrBrVgiOMp/mYt6iuXCj1NwuGQPw2oeKoQFssGKFYTY+ixyQM0ofIbO1EZkGaG7Tmof7ECWeK5t3MAvcq+x87z5R11TsXCctQfVufM0mWLz31ZpF15ksgLysuCdYzAJjsVWirQ8LIV1uKk+XOamgRzdQ5qv7UDFeu9crE+HVkB+6aziON6qRoVMl/dseFm4HC7CQ9cSvDagu1PGaHEr1P0sByrxpFHzOtc2bow1CPLn5ZHZa9VcVCm+lI0yPKX4KEIQ75xvqyn6GCuL8Ojj8ngixeDjY6gnsMuh9LlWNQ9hSjVpnLUFVpQ/+0qFBjX9yzFVJY2PDPqvluBynpxjgIr+lRRNvapi+hAnJOA2Ksg8umLVahtMMGcoZsvO/LcHtomSpgw49IWQlprehiVBW8zUXQoDYaMpI3zhQ4RERERPZC2lJSULDrpUkVFBbq7u7Vnm8NmPKa1JnsgRQxW+DwY/LgVzZf9Q5Q0+Xk48lKYIJ58/eXbyHyoEMae9vDDL1PN2P/9ahSEu4EKeY/1hYfFTbD2JAyv7QY+e2cM7qCbZB1yn9+Lg5UL+yD6HL246S5DZbELHcfD9+zS1ZbhyWfywvZgtJ+M52IOcs64algReV/myB5IiwQr5HGdC11ZVpyjhpfL1IUWFhF6TJbn9uOQDOgG8cHT2YGmiWIcrjctTAfZU3PRoG6YY5SLw8iFNSZ6cfZ1se/a5rjzf04k0w60vN0FW0hgwfREDRoeCZN67mF09mxFZY0xJB3853Nxcshy4BDtpfK4IjSNLBYc/vYOJaAbxOdEx9tDyHipCtbVTte4kott7EVVxK5ePjhb2nD+hDt4WGTEukS8vsmG6fpS5IamQyzlYi3LUpTk4j0N4u/M153+tAwoc/79D0iLufctahhNQcOtl8jjPvGZb4vPDFqRdqlz6xVp0CLSIPgaE0u58L8ntIwpwqSBlHWsFof3Reg+6ZuFZ+wObn7ah+6OkGsgEREREdEqiHhLTbQY1yft+OT9btgdHm0YquDzwtnTi6bjVxYG9aShYZx/vxcjAXMSeYYH0Cxf3+IVzxYx7UTzm6241uOERxuWu6S5HRPkzZZjFB0nruD026FBPcmHkfdb0dzpnF9t9Z4L9sZWfPLLYUwsMZWar1Xc+IWmx3qbFGn2D1fR3DYO14x/p7R5oM5eVY4rKKi3Ao4PWtDY5IBbOze+GSdsp8RnvLfIXFMDwzj3xlW0BO2ffK8HzoF+tPzqBm4ud3hsvLUN4XxjP0bE+ZzPbyLtRD60N7XjzM8XBvUk1yfXg9IBvimMtXXgzD/0YmAqTokdK4cDjW92wObQypooE25bL86/0Y7OgXXet5h4cOtfOpSFFVzugPpD1EMuUa+0vNOMc6FBPUnWJW8HpIM8r3dGce198fpT7vm/s05iKksbmhOt2qIZnqBy7hZlo0vUAaFBPcmDm79WF81waUOnFfdE3SCvMW82LwjqraWxS4NwKNcEH7xuUUcE5j9dEgyWHOz+eh3q963fAh9ERERE9OBgjz3adBbtgUFERBSruR6fXtg/bkHTFyEBxlQDSr9Ri9rCJGC0C6d/GTwUnIiIiIgo3thjj4iIiGg5qrPVYdyTg7gRGtSTpj1w2LVQXlIy2GePiIiIiFYbA3tEREREy+GfliG9ADVHTfOLtkipemQdLsNBbf49V/e4uuovEREREdEq4lBc2nQ4FJeIiFaFzoDK7+xBVfbi34t6h7rQ+JYjbvOYEhERERFFwh57RERERMvh86DzH5tx7uwAxpye+cWWpHseuIbt6iJNxxnUIyIiIqK1wR57RERERERERERECYg99oiIiIiIiIiIiBIQA3tEREREREREREQJiIE9IiIiIiIiIiKiBMTAHhERERERERERUQJiYI+IiIiIiIiIiCgBMbBHRERERERERESUgBjYIyIiIiIiIiIiSkAM7BERERERERERESUgBvaIiIiIiIiIiIgS0JaSkpL72u9hVVRUoLu7W3u2OWzGY6JFpBhgfawQO7+SDXNqkrZRmOjF2deH4dKezjOg9OVq1Obr4RnqxvnjjjCvoc3NjPofV8OKYTS92gu7tpVo2faV4eljeYvUM6tDV12II88WwQQ3un/ThmvtPu1fQuTnoeHlMvG6YK6mKzh7yqM9i8I6HS8RERER0YOOPfZoc9MZUPmf9qC+Pic4qLeY/EyU5xvELzoY8q3Iz1c3ExFtdLn7imCSV3adERX7QsN2RERERES02bDHHq2ILs+M7U8UoqzQBEOKvJv0wTftwu32IVw7Mw7XtPq69WL4WhWe/GomMD2GjpM9uNnuFXu4FPbYo03aY0+XBPMhK3bV5mBblgE6pch64Rp1YOCSHTdbPMsoH4nN+sLDqC/XngTwzbgx0WfH9VOjcExoG1dio/fYC+FPF/bYIyIiIiJKLOyxRzEzH63GU9+qRlW5WQvqSTroUs3I3VeFhufM2rb1k1WYqfwcaexC57KCepIHfcev4MSrl3CaQT3aLNJNqPv+fhxpKEKuRQvqSTo9THlWVD29F/v3adseQLoUI7IqK3DoezWoTOBeur72AZx97QJOvNa67KAeERERERElLgb2KCamJ2pwpN4sMpAPnqFenH/zEk6+Km4mxePkz6/ifKN93XvrAUkwaCPRfB7e4NKDLfePd6HYLKp82Xv1gys49fdqeT3x2iWcersdHT1ueLXXPghkzzTl+OfSoAODTlFP6EyoOMQhrERERERElBg4FJeil5qFg3+zE7k6cXN8+SrOnZxa/vA9XRIsR0pR85B/IQt16O7IlwO4dtoJd9AfMqDyB3tRlaEOh3RU5qDuiWLkWvRKQNHrGEHrP/dhcFh7+QL+9wP2kxfQdFnbHNb8a4MsZ1hZjhmVTxaiotQMfYRQ+fznL7FP/uFsPe048a5T2yho2/3D5AxVeaj7Y5EW6SINfV44b3aj6f3xkPRTGapyUPtYIXK1oZdyyOHttj58+XFoeofShiSL3Rn8uBXNl2e17XGWkYbix0qwvdIMkzac2+twoPv8QNDQUHWooAsdx69j4uFdqK82QecbR8c7HegcN6H2L6tRKtLVN3oL594U5yzg2HTZRhQ+UoDyKvEZRpl/hHseOG0DaPso3NDLyENx9TWlePQZK4w6H5xffIl//zgk/6cYUHCsDDv9x+ObhWdsFNc/6ofNtkppuCQz9v+oGgVid+wfi3z3hbb5AbTokNOHKvD0UzmA7QZOvj0WfF6jFViWfzWp1nsHLDAreWIKYy29aBJlMOg7h7kFLcIPAffv+4K6w/9ZIZau9+ZFMxRXl5eJmj8tRkGOUa3zZB6/twVKz20OxSUiIiIiWlOySU4UFcMjViWohxk7roUGNRajDQU8dDhwIQt16K61vhqPf78Uuena5iDpKHp2Jx5/vgJWJagn6aC3WLH/5R0oDniP6WgNnv7xw9pjPlBnPebfNv+oj8eww8I8HNGGI0cK6sWTKSMN5qdq8OTXy9SgnqTTw1xZhUe/LntQBjM9UY0nvi7TbX7opRxymLtPpPd38tRJ9iOptmKXXEREZ0DBHxbBom2OJxkke/x7e1BXk6kF9SR5bnNQ9XQ+crUtgVIfKsfBGpN6PMmZqDpsQelfyKCe3CDyU04Z6h4NXCjFjP3frUXdPgvM/qCelGyAuVwOvdyJ0mUenL6yEIf8Qb3Pr+JcaP5PF5/1/T3YH3g8uiQYRF6te7FO5LnA/Vof+uUuIvMA0mmF2Ota7rD9ZdAZUfltrd6byxNpyBJlsCFMmd3oZJ3y1LeqUJqnBfUkmcfnyi8REREREa2lpIyMjL/Tfg8rKysLY2Nj2rPNYTMe09rRoaChAlYz4PmyG60d97TtS0lCwX+sxa68JMA5jOb/px2XT/Sjo3EI/aNemMszYUw3ITdjAjfbZ7T3JMNy0IptqSkw5aYhaXoM1977Ehc+7EfXjWlk7M5Gut4II0bQ16PehqfsyEVZQYry+1JcnQMYnOsSM4s7Fwdw4zPt4dJjZ6VJHOQ4ei9Owr9HwfSo+ItqFKUDXlsXGv+pE62fDKCr+Q7chdmwZohjHe3C6Z91wjb3Of5jCv18TX6m+rnjt3GjNaDXjH97VjZKCw3wTdhx+Vft+OKjfvS59SjZYYLeosf0VQcm/G8rL8RX/zgHKT43Bn/bhs9+3YeOcwPo6Z2EsTwbWzOzkGu+g54bEc5hTiZ2VJvEmRNmXej//QSmlH+IE4sFh14ogRwd6h3qw+X/1YlmcTw3RJ7o6XFCl5uMyct3Mam93FRbhIKsZGTmpsN9rRWnP5hEXn0WDFmZyDO50fnOZbTOZCrnP212IiD9DMip08Hx+U1c/pdbaPs38RniHPf0TsNcJfNQGrLTA/OdZEDBkRyYxKcPfjau9j4qzMNX//9yf71w/PuXaPw0tFdTEor/ohaVFp04nl5cfKcDLb8VeenSCBwpqbAWpCNjuwFTl+/AueZjXr2YLchFoSUJxhILzPfHYB+Yxf1F+2tvTmo+AmZE4eu9qfWgTNHB/JVCHPyjPBjuu9B1YgB3VtrlzF9mMzOxzXgf7s4baHzrJr78dAD9vjQUlRlFmRXl69YwRv09RreaULYvEymB+S6Af98X1B328fm667PbuF+3SB0TQdh0CVVdiseetCDZ54H99+24+OtetInjuXHJDnuSCaVFhiXqTCIiIiIiijd+xU5R0iNVm35qbCiKME9pDnaVJgE+B1qO92LQ5lN7xPh8cLcP4/wH/XCLp/oqKwrEDekC08No+sUNdGsBPN+wA9e+VG97zXlpyk/Jdaptft6sV6+gQ7thlkPS5rerj+UOUYsow4x8pafXKFrfccCpRaB8k1OwvdOtDqPLyUJuuOOJlU4nkrAX597ow+CAmhaeL4bQrRynGZYSZZOgQ8GjBTCKVB759BqamzwyqRVe2ziaj3fDIX43VudG7onXbsf1IY84IA8G/61feX085T5WjiwZ1OvrwJnjdti145E76rU5ce34AEbULQHEG+4N49rHbpEOHiXPyDTxdvRB/AfXiD8MGMiJlte7cK3RDbecQ03jtTlw8eyo8rs+L12k1SJkz8wXy7SgXhvO/y40qCeIPF5ZKPZvsh8X3xqG4462fVq859QNXGwT79FZUFK/Hj3mRD54vw0dDnH8OgOsDXtx7G9rcPCYRcaKH0im+r3zPXj/9gCOPF2ItNF+NL3Zhs4h7UVx4YOz6SrOvDe/Sri7sQuXO2TwLA25uwzqxg0vCaWPWsUVwIex37eh6awoT/55VKdn4XTENexPRERERETLxMAeRcmADP88dPMxkiUZd1iUwIm30w5buNhLz20MyCnldJnIKVc3BbKf7YU95H3hgzgbRMqW1Slc7gGc/2Xw/HFyFd+7ShBJB12yskEwwSqDTHCg/2KY3jeTLtyWwcAUE7IjrgCqrQ782pVVmF/PhPxyGeCagu2z8agWbfC0D8MetDCLE52fxti9yh/tFLsS6XzpCi049A01qDfySWv4oJ7gz+Pu67cxFqZsjPWNKz+zCsOON199Pg86f3EJZ070YWRS7GCyCbn7duDwdw/gyW8XoWDhFG0PHH1eEfb/xyLkhs61uRITt9AcZs662/1qfjBZEiSwp9uKnBz5yxhuXXiQllkhIiIiItrYGNijKHnhVrpJCVHknrQMtVed526kG0IPJpQuYUnQh+vhFkUQcc1MuDGmxBZzUPtNC8xavEYu1FDxfLk6P5xjAiPxXB3Y64U3TFrY3w3phZiTps2fl4P9PwqeW1B9hFkoZC3lpCNDGTHtxJ0+ZcuyeRckwBTcS3UnlAt0PFuFhh/WB6dDmAUHgm3Fzj/fAYsc1vhFO5o+jxzQMFnUPn/GhwJ6gkX1WdEJnk8y+NFwNHKwyN1ix8WfXcLJt9rR0TkOj08HQ04h9r+8F/s3wByA0Yo1HUJXxT3zqy7YJnzQZRTi4P+WB61j8qrxebQh8CY9EiK0l2dQ08Tpwti6r3hORERERER+DOxRlO7Bq93UmXOWfzualLxF+20zmcL1T4eVmKO+eAeO/LUaTDj23VrsLtaLO3cXOv5lFOH7d62y5A1euNdy/+QwWv8CHVEvHHEXN/65F3IEr+mh6kUDX7rkxKpOfQNOdL7XgdM/uYprQ15xAHKRlGJY4zl0PFHIKQFuOtDyRjtscnK4jHyUhOk5vCrcs+tTR8TqQZyYkYiIiIhoA2Ngj6LkxZ1hdVimcVcWzMpvS3NPqN38DOl65edCBmQok7154FZHqG18ujTseiwPuukxDPY453vS+bxw9nTj/Btt6BzQti2Xf+nalRqa0ibeH0aTv1dS2Ee85xNbprn9M8Cwqj0HdSh4Ql2gQ1m05e1LOBl4/CeH1ZctwjcwjPMfD4ucr4f1qV2oKtX+IYTLoR5RUE+wcI935ZjzlQueTzL4cTbM0M+IZqbQ/W6POp9hyjbkrVVAK07ilg6SKLtuZao4A4yZypZVY9KWAPe6l7sAUfyqh5iI3VSquK1pYeej1BuXt2gRERERERHFFwN7m5S+pggNcgjmj2pRWxPf4XWO9lF1TrT0YuxdZKhbINctl/Ie/fZcFISbYqzaijIZJZwZw+0oh2aum7o8VIhjcbf1ofnddpx6TQsovNaMc++OylG4YdzDjLZcpM4QUvxkz7I/UiaxioNJjCrrQmxDXo2yIQYGlL68V+Sh1Rii6d+/TGx/dH7xk/jzzzUI2H8fsGiLRpc0NynhoryXe9HY5BJvMKHyhRpUFmr/EMCfx03l5sQYWhmWB9PxiTuq0k2o/cEBPP3jA2h41oRIYf0NQ6eHUcmOLkz0K1tWhy4NJdVyYOss7B0B80O676l1K5IXTElgeqIaeyMEldfE6CQmZN2ly8S20OCvqLsOHcnSnhARERER0VpiYG9TMqDssUJ1jjWdEaVP5iy7Z92ytPejtU/22tPBXL8HDc9bkGWZz0o6cxqsRyvQ8FzAp7aPqItmpORg/8tlKCjWqZlPp4OprghHnlVXW3Q22zESGHnZwAxmNXxjLN8GS14SDBnaMS1qFq7bao/H3PoCWLTeaoZqq7bqqvp85WYxeFVOPJeE4mdqsf+wEcaAgKo+z4iC0HMUSuzTrnxxjMoQzaLIq+fGZBa2FnViPGPdVxbkIX2xGbtfLlTnKVwRj1wnRGGpscDfqUhnMaL4+Vo8dXT5R+U6dR1NPXLIqglV3yiDNTRA3aHlcYtI15etsBYnzfewSk2CuToHtd/agYqIi5WsovwcHPxWESqq02AI3G+xgzKta1/aoab15CiGou1lugjTV0tRKsqF+CCYaipQuZ6BqSUoee6lnSiWeWTUjlvqgskrp09HVkBe0FlMqHypWvlSAHdsuNmmbldMeOBSAv8WbH/KCCX2n6KH5Vg1jjxiXucLtgtDPbLuMqDiqUJY5GrKsv6uL0WDrLs25ESoRERERESb35aSkpJFJ8ypqKhAd3e39mxz2IzHFCwNu/96j3rjKLn70fjTAYxpT+NCZ0Dlt/egKiAYs0BPe/CwQ9kjLWLwygdPZwfOvufUeqxI4jN+oC7yYD8ZsDCE374ydUGC0M+Zs8T7A+XnoeHlsiUnzA/6O+lZOPifdyI3QhL4ZtyY6LTh8slxuLVeegrxWUdeCpMOPg8GL99G5kOFMIYek/9YJ3px9vVhbRjrUpJgfaEO9eWL9JOKmHZCdSmOPicDrsKMHef/vg9LrVERnSTkPrcbB6vDDeyT5DDiXti1Z9YXHhbHAmWoqzrE0oz6H1fDGvi6MHnC9EQNGh4Jf2Z9E25MZxhhXJCuYf62JPP9d0S+zxYnb1r82y9CVmteNI9LLnQcX4fhz8vJ3z4nOt5uj374+CLMx/bgyD5/j0wPut+9gms92tN14s9HEbnFef3lwlW4o+bPi5FMO9DydhdsIQHEiPlV7Fdnz1ZU1hgX1GdLHpMUksfloiMN9UvVeCH532LB4W/vQNaCukvmnSFkvFQFa1R1FBERERERrVTE209KZFPoPD0Al+xA4XOj77f2+Ab1JJ8Hnb+4hDMnxE2fwxOwUqsPXrcT9qZ2nP0gJGA0MIxzb7SKG3snPPf8bxCvd4yi48RVfBIU1EsAk07cbNeWCL7ngcctHnPHJQpXihFZNVV4/D/laSvUaoaGcf79XoxMqj33ZBp4hgfQfPwKmlu8cez3Mgv7u81z58g3l+Sz8DjHMRjuHAVqt+P6kEc514P/1h/noJ40i5EPWnH6/W4MDrsD5igU+yfyxLX3bfMBhRVwfdKGc2dH4ZwJyHPi+PtOXcHHb/RhkRRYSOb7f7yKjjvib6Xmof7FkHOr5PGraGkbh2vu88TbZjxwDvSj5Vc3cHNd5jQUee5XXejuEfs17c93QkBeOPOT+Ab1JOfvutE3IdPBB1dbFzrXOagXkZLnHOg+exWn//c4BPWktiGcb+zHiCh7gfWdb1qtH8/8fGFQT3J9ch2NTQ64/e/xTWGsrQNn/qEXA1PzeWpdiDRqfLMDNodWT4l0c9t6cf4NmXfWed+IiIiIiB5Q7LFHFKO5njV3+nDuf9jhDOyVJxiqi3DouUKY5LDTD5rQ0q79AxERERERERFRHLDHHlFMDMhXJr8HRi4tDOpJng6XNhxtC5a5RgMRERERERER0bIxsEcUE58cSarIPSQXAwlYKEFQJ+KvgFU+mRnFYKeymYiIiIiIiIgobjgUlyhG+n1lePxYnrq4RCQ+N2wfXkNLW8C8ZkREREREREREccAee0Qx8l7uxek329EhFwMJXJBALs7gdmLkcpeyWAiDekRERERERES0Gthjj4iIiIiIiIiIKAGxxx4REREREREREVECYmCPiIiIiIiIiIgoATGwR0RERERERERElIAY2CMiIiIiIiIiIkpADOwRERERERERERElIAb2iIiIiIiIiIiIEhADe0RERERERERERAmIgT0iIiIiIiIiIqIExMAeERERERERERFRAtpSUlJyX/s9rIqKCnR3d2vPNofNeEwPAl11IY48WwQT3Oj+TRuutfu0fwmRn4eGl8vE64K5mq7g7CmP9iwaZtT/uBpWuNBxvA2dQ9pm0hhQ+YO9qMp4wNNnLt8No+nVXti1zattU5SLdUo75Ftw6BsVsKR64TjXjvONkdLBn8e1p34TvTj7+rBIgWixTiEiIiIiovhgjz1KGLn7imCSOVZnRMW+0PAE0YOJ5SJ2pj1WWIwi8XQGWPZlLgh6EhERERERbXQM7FH0ZO+aHz+Mp0MfP6rHk6/swO56w6pkrJHL/XDJzkg+N7ovL9JHZmgYZ1+9gBPao6lH2060CbFcxM511Q6HWySezwPH5fFFet550Pn6fNqdODmsbSciIiIiIlpfDOxR/OiSYLBYUHF0L5583hz3zOVrH8DZ18RN9WutkYcbEj1gWC5WYMiB8z+9JNLuyiLDcImIiIiIiDYuBvZoBeR8WPO9WE7+TNwcN43BK/5FX5mP4tD5qIiIiIiIiIiIKG64eAZFb9GJ7g2o+qu9qDRPofudq7jWp20OmHzefvICmi5rm/32leHpY3lATztOvOvUNgr+7SHC/o0IrC88jPryZS4SkGJAwbEy7Kw0w5Qi494++KZngVQ9dItOdK+D5ZkaPFybCtfnV3Huk1Xq/aNLgvlQPmr35yLDLPdJ7OGMEyNXB3DtUyfcM+rLTEdr0FBvUtLpunkHDv2BRZyBKdg+bkNLSzJKX6pGbb4Bvkk7mv/PPtgn1fcpUvTIOpCLytocZGUZoFc+ZBaesTu4+WkfujtEegRZZPGMQrk4wQ5YUgFvTwfO/mocnsBOZaHprXzOKK5/1A+bLfRzNjh/udAWVPDVF2HfV63ISk9SjsvV14Pm9x1waudIscSiEf68uyC/J0y5WKZY0i7WOmUuzYNFtYiI/28vZ/GM1U47IiIiIiJ6oMm7DKI40iEpWf70YHJc2ZA4CvNw5Id7sb8mU7sBl3TQKTfgS8jIwq5ao3w1zI+UoXQ1eiumm1D3/f040lCILC2oJ+lSzLDWV2N3jbYhUGEhDn7VAoN8sS4NxY9sQ+mzNUpQT9KlW1F3NDjEYf36fhxuKEKuRQvqScow6xzsFv926LBe27iEnCwcVIJ6Png623Hm3ZCgXroZ+7+/Jzi9lc8R+/RiHer3JanbEo4e+c/vxeNHxXmSgSlJHJepfAeO/Ke8xFugYSXlImpMOyIiIiIiomjw3oLiRmcxouKbVagwAt7OIdgmtH9Yicu98xPWv3oFHfH4m+HoTKj7RhnMOh88fd1o/MUl9TNfu4RTb/diTHvZ+tGj9C+qUWwWRXZ6DN0nruCknFdNDoH++VU0XR6D+5720gDW2gIYB7pw+u/bYJO9nTJLUFutg/1UE05qCwDoC9KDAyb33Bi53IXGN8Vr/J/xs6tosclB1jpY/qAAFvWVkaWbUf/iTuSm+uBub8fZ95zKEO15SSj+D1UoMOrgHerF+f+uneOfNGvDufWwPlWO4nTt5YkkoxBVlYag4zr9fj+cMqiZXYLdD8eh2t2s5WIt0m6tFhHZ8HUKERERERFtBgzs0QrkoT5gVdxjr9Rid6EPg/9+FWfecyKRpvE3PFqI4lTxy2g3zr0zijGHtvc+H7y2KSw5QG9iDNdb3XKQHZyf96Iv3oGWmgLsyhHFdWYUzb+4gWstHrlrCp9zCvaTYlur+jyIzo2OUw54ZrxwT8nn4m84+tDaNAuffSrsEEL7e624eNKBsWHxGv9nTE7B9k63OlQ0xYTsHGVzeDKo90o1rFpQ77MPXCFBPaE0B5WFYl8m+3HxrWE47mjbp73/X3v3G1vVed8B/BcTc7FxDcQJOCHYhIS6xKJA43TJ0BBTtGVCUV9WVV9UVTRtUpVJk6q9iPKaV3vRN6yTpiov9gL1RV5NqCqrFkXdIsrqkhDLDY5TMKMmNoFSu86Fi8PNzrn3GP/Bxtf/sA/5fKTre57j++ec59xzpfvV7zlPXDv5Ufxvb9LjdS3R1pXPqr3xCx/G229O7lepbzBOn0qHg9bF1qfzU3e25PNiEfQdAABA7QR7LK+HG+KJP++IrsMNufpwtezYXLm/8sH1Rf7gLse1/+iJnx399YpcX6+l47FIB8AWez+Jy1Ovhzefwcvxu2nX77odl/7708Xt40TKl6oMt55FU1Pse7WjEuqNnu2dPdRLND7TEo3JffHc1bg+5WUnXL9YHce9ZXseS/aG4+zxmRWKEaWLo9V+f6QhN0NKl35eLJS+AwAAWAjBHkswc1bc6pDQUhSi5WBnfONAXj5ehdhY+Q1ejJFLs6RMq64+HtlWrVwb/SQtu1uAW7dnVE7eiOJEddxc0gk6Dj4ZB/9hfxx5fbIi85U39kRr9pDZrYvtL1eHC5cv9sepE8VZQ71UU0sa60U0Prd/yutPuc0yMcSSpJMdzPY+6e27zdmDZmqeVpE6/bZznr6Yxc3Pq/3RsCH5xOXBGjov9B0AAMCsBHssm3S4Zjok9JeVYXPronXfppx9wMrTitLWjqQX79eI1LpC7P77iQk6CpWRu7W7HYMn+2LoZvIy7bvjxZfnjmDqHv4Sf/XcLOWsgmsNnRf6DgAAYBrBHsuuNJJVlTWtrwy3rMnCEqRllvzyvp3eN8ZXHq2smG5jfWUY7OopxZ+yKrtC88omfHXP74iOR5JjUS7G5ZMfxMl/nqzIPHH0w+o19u5lbDS6fzoQo+W6aO7qjK7nZt/esWvVq/uNdb8/5fVnuR1PQ+JlMG2yiRm3Od8j2ZfZHl+5DczfFzO1ZsNIS+NzVjLOtKqnxVo6LxbRd75TAACALwPB3gOqvvPJOJwOo3x9b+ztvL8TEBQ2NVQXrkydnOHzuJXOypqoK8z42G3fFof++l6zMay08fjDcPorvC5a2rNtn5BWsH1v1/yzwKbP/dbeOPLG83HopeUfLHh9MLvm3IHW2LKCZ+2j7VuqC5cuxZnuGzGeHbOK9XW1fWEMDsepnw8nvZrObLsvug7c/fkb+7/qtfeanmrOydDKpVoXO/ZVP+OjH2XXi0sVsyGm8XDUpxMtTNH00p7Y3541VsVynBfLYY6+e+C/UwAAAOYn2HsgFWLnX26PpvTo1jVG+189FnNdRWxZbaiPLQd3xsEX03cbj0s9UyuhbsfY1UoJS2zteiJaNlUWo7CnNQ59b2c0r/In8Vrfp5WApbB3Vzy7p75yYtRt3xz7fvD16Hgkacw3nG7Tlvja3sbkeXXR/MLOaM/2b7mUTl+JK+k2bHwyXvxBe+x4OtnGrM/qNjZE65GvxrN7q+2lKI7erC5sezR2TFzmrnJc2+PwDztia7ZqPuPvDcS73Wmsm4Z7X4vd26vr7+i7EpfSSUBadsXhV1ujdce6yQKrDeuiec9jsfdvn4ldj2frcqUhNj1diPr11VZ6fJ749rOxL50F+OZwnPvVlJqzkVKMVcKplnj6bxqjkk+tr4+WI3vi0AvNq/4FveTzYsEW0HcP+ncKAABADR5qa2v7Ilue1a5du+L8+fNZ68HwIO7TdA3x7D9+PXZNTCha/H28+6PBuJ41l+zxbXH41Z33mJ2yHKO/+uDu2WGT5x36/iw/uMuluPze1dj83PZovPDhtKGRrd/9s+h6KmvMZWQg3jk2fKc6sOnlzjjcNd/cmenEH1OHU9ZH+9/tj72P3bVxlX35eNv++MZTY9H3Zm/0T5tlNrOpJQ6+9kxU693+GD3H+uLiSKWxbOo72+MvvtUajXMEFkM/Ox3d71WX7/TBnf4sxO7X9kfHpin7MHEcp/bfXMcoVS7G2I3GaNo4sx9mee2Kdcnx25ccv/rkucn//j3532D2r1RaVXXPAOYe/b0WzXdeJH1w/q1z8dv+ahg1oeml5Fi9MMuzisPRf+ErsbuzcdqxTeXmvKjVIvtuMd8pi+qH+bYvM/043ae+AwAAvtTm/ElNnt2I/l8MxlhaEVIuxsX/HFq+UO8eyreKcb1/ILp/8uu7Q73UJ8Nx6q2BuPLZxI/zcpSGB+PMm+/HmbPjSWs1jcfFnyTb0T8a45UNKUf5s2vR99aZyr7Mu20j1+NcTzF9VvKjfWDZQ73UeO/FePvHPfHb/j/G2K2JLUre8eZoDL3bEz1ns1VLkRyj/zn+cQxdmzwelePa2xfv/Kgnzl3JVtbkdgwdPxvdF8aTb5qm6PjOzmidCJtTg8Pxyx9/EGd7p+5P+n6lGB38fZz96UfxuzwFHsNX48zJgbg8XIzStP1J++/jZF977w6mEmP/dS7e7b4Wxc+z55RvVPr77X8ZiMEbk6+zOpZ4XtRqkX33QH+nAAAA1EDFHgAAAADkkIo9AAAAAMghwR4AAAAA5JBgDwAAAABySLAHAAAAADkk2AMAAACAHBLsAQAAAEAOCfYAAAAAIIe+lMHe+fPnsyUAAAAAyCcVewAAAACQQ4I9AAAAAMghwR4AAAAA5JBgDwAAAABySLAHAAAAADkk2AMAAACAHBLsAQAAAEAOCfYAAAAAIIcEewAAAACQQ4I9AAAAAMghwR4AAAAA5JBgDwAAAABySLAHAAAAADkk2AMAAACAHBLsAQAAAEAOCfYAAAAAIIcEewAAAACQQ4I9AAAAAMghwR4AAAAA5JBgDwAAAABySLAHAAAAADkk2AMAAACAHBLsAQAAAEAOCfYAAAAAIIcEewAAAACQQ4I9AAAAAMghwR4AAAAA5JBgDwAAAABySLAHAAAAADkk2AMAAACAHBLsAQAAAEAOPdTW1vZFtgwAAAAA5ISKPQAAAADIIcEeAAAAAOSQYA8AAAAAckiwBwAAAAA5JNgDAAAAgBwS7AEAAABADj3U1tb2Rba8Mg7sjFeObMsak8a63493Tpay1mopxO7X9kfHpqx5x3B0Hx2IoawFAAAAAGuNij0AAAAAyKEFVuw1xb5/6owdgx/GieOj1VVZRV6tFXhNL3fG4a6mNVKxN1NzdL2xJ1pV7AEAAACwxi2wYq8u6tdHlEbHs3ZE09aNlfviyOQ6AAAAAGBlLSzYe7whmpK78fFytZ2or6+v3JdLk+sAAAAAgJW1sGBvw8ORxnhTq/MKzYXk71iMGLcKAAAAAPdNDdfYm2vm2DlcmHL9vVm4xh4AAAAALN0aC/YmgrX5jEXfm73R/0m6vJjnzEWwBwAAAEA+1DAUtxT9x07HiaOn453usaSdBmTV9omjvXHpVrLq1lCcqrST2z1CPQAAAABgedRQsTdp67efj2/uHo2eY31xcSRZsWFLfPOHX42tfxiIt/91OIrVh92TobgAAAAAsHQLmDxjXTRsTh9eilIa6qVaCpVZcmPkRk2hHgAAAACwPOat2JuosKvN/JVurrEHAAAAAEu3gIo9AAAAAGCtqP0ae3Wbo+v1jmj99OP4xb9di7TWbqL6bujnp6P7N9WHzcc19gAAAABg6Wqv2NuWXU9vbLwS6qUKGxuSv+UopzPjAgAAAAD3Te3B3qMNlWCvNDpebScKjeuSv8X409VqGwAAAAC4P2oP9tZXHzo+Xq7cRxRi4+b0/kZ8NlxZAQAAAADcJ7UHe785HyeOnp5yXbxS9B87naw7H5cnsj4AAAAA4L6oPdgDAAAAANYMwR4AAAAA5NBDbW1tX2TLK+PAznjlyLasMWms+/0pw3pXSyF2v7Y/OjZlzTuGo/voQAxlLQAAAABYa1TsAQAAAEAOrXzFHgAAAACw7FTsAQAAAEAOCfYAAAAAIIfmHYrb2NiYLQEAAAAAa4WKPQAAAADIoZor9orFYuUeAAAAAFh9KvYAAAAAIIcEewAAAACQOxH/D2xSoDmvQaxXAAAAAElFTkSuQmCC;" parent="1" vertex="1">
          <mxGeometry x="-200" y="1200" width="1270" height="324" as="geometry" />
        </mxCell>
        <mxCell id="dh3TJx1O1v9X3l1imXYK-5" value="&lt;span style=&quot;font-size: 33px;&quot;&gt;Recap&lt;/span&gt;" style="rounded=0;whiteSpace=wrap;html=1;fillColor=#dae8fc;strokeColor=#6c8ebf;" parent="1" vertex="1">
          <mxGeometry x="180" y="1110" width="510" height="60" as="geometry" />
        </mxCell>
      </root>
    </mxGraphModel>
  </diagram>
</mxfile>
